<svg width="34" height="21" viewBox="0 0 34 21" fill="none" xmlns="http://www.w3.org/2000/svg">
<path d="M9.395 16L3.389 8.272L9.206 1.174H13.28L6.728 8.881V7.537L13.49 16H9.395ZM0.428 16V1.174H3.725V16H0.428ZM14.9406 16V5.794H18.1536V16H14.9406ZM18.1536 10.393L16.8096 9.343C17.0756 8.153 17.5236 7.229 18.1536 6.571C18.7836 5.913 19.6586 5.584 20.7786 5.584C21.2686 5.584 21.6956 5.661 22.0596 5.815C22.4376 5.955 22.7666 6.179 23.0466 6.487L21.1356 8.902C20.9956 8.748 20.8206 8.629 20.6106 8.545C20.4006 8.461 20.1626 8.419 19.8966 8.419C19.3646 8.419 18.9376 8.587 18.6156 8.923C18.3076 9.245 18.1536 9.735 18.1536 10.393ZM23.2735 20.578C22.5315 20.578 21.9015 20.452 21.3835 20.2C20.8655 19.962 20.4105 19.619 20.0185 19.171L22.0135 17.176C22.1675 17.358 22.3285 17.484 22.4965 17.554C22.6505 17.638 22.8325 17.68 23.0425 17.68C23.3505 17.68 23.6025 17.589 23.7985 17.407C24.0085 17.225 24.1135 16.945 24.1135 16.567V5.794H27.3265V16.525C27.3265 17.351 27.1515 18.065 26.8015 18.667C26.4515 19.269 25.9685 19.738 25.3525 20.074C24.7505 20.41 24.0575 20.578 23.2735 20.578ZM25.7515 4.387C25.2475 4.387 24.8275 4.219 24.4915 3.883C24.1695 3.533 24.0085 3.113 24.0085 2.623C24.0085 2.119 24.1695 1.699 24.4915 1.363C24.8275 1.027 25.2475 0.859 25.7515 0.859C26.2555 0.859 26.6685 1.027 26.9905 1.363C27.3125 1.699 27.4735 2.119 27.4735 2.623C27.4735 3.113 27.3125 3.533 26.9905 3.883C26.6685 4.219 26.2555 4.387 25.7515 4.387Z" fill="#E8BF38"/>
<path d="M31.6197 16.231C31.0737 16.231 30.6187 16.042 30.2547 15.664C29.8907 15.286 29.7087 14.831 29.7087 14.299C29.7087 13.739 29.8907 13.277 30.2547 12.913C30.6187 12.535 31.0737 12.346 31.6197 12.346C32.1797 12.346 32.6347 12.535 32.9847 12.913C33.3487 13.277 33.5307 13.739 33.5307 14.299C33.5307 14.831 33.3487 15.286 32.9847 15.664C32.6347 16.042 32.1797 16.231 31.6197 16.231Z" fill="black" fill-opacity="0.4"/>
</svg>
