<svg width="28" height="23" viewBox="0 0 28 23" fill="none" xmlns="http://www.w3.org/2000/svg">
<path d="M6.44804 9.18525C6.1719 9.18525 5.94804 9.40911 5.94804 9.68525C5.94804 9.9614 6.1719 10.1853 6.44804 10.1853V9.18525ZM15.2285 12.9754L14.729 12.9974L15.2285 12.9754ZM4.28815 21.6576L4.42299 21.1761L4.28815 21.6576ZM4.56987 7.12628L4.89473 7.50637L4.56987 7.12628ZM28 3.10503L23.047 0.138277L22.9542 5.91103L28 3.10503ZM6.44804 10.1853C7.3166 10.1853 8.31145 10.1015 9.25436 10.0519C10.2171 10.0013 11.1481 9.98413 11.969 10.1007C12.7909 10.2174 13.4488 10.4611 13.9105 10.8881C14.3595 11.3034 14.6827 11.9478 14.729 12.9974L15.728 12.9534C15.6729 11.7034 15.2737 10.7867 14.5894 10.154C13.9179 9.53288 13.0318 9.24155 12.1096 9.11061C11.1863 8.97952 10.173 9.0022 9.20184 9.05327C8.21083 9.1054 7.28212 9.18525 6.44804 9.18525V10.1853ZM14.729 12.9974C14.9691 18.4502 9.97863 22.732 4.42299 21.1761L4.15331 22.1391C10.3929 23.8865 15.9967 19.0561 15.728 12.9534L14.729 12.9974ZM4.42299 21.1761C3.16175 20.8229 2.37829 20.0063 1.93977 18.9076C1.49302 17.7883 1.40491 16.3692 1.59309 14.8703C1.78054 13.3772 2.23741 11.8442 2.8396 10.5222C3.44558 9.19202 4.17936 8.11777 4.89473 7.50637L4.24502 6.74619C3.37505 7.48973 2.56661 8.70931 1.92958 10.1077C1.28877 11.5144 0.801865 13.1448 0.600877 14.7457C0.400615 16.3408 0.479398 17.9464 1.01101 19.2783C1.55084 20.6309 2.55717 21.6921 4.15331 22.1391L4.42299 21.1761ZM4.89473 7.50637C7.23437 5.50674 10.2178 4.47449 13.4669 3.96323C16.718 3.45169 20.1927 3.46758 23.4916 3.53261L23.5113 2.5328C20.2145 2.46782 16.6594 2.4486 13.3115 2.97539C9.96172 3.50248 6.77717 4.58202 4.24502 6.74619L4.89473 7.50637Z" fill="#E8BF38"/>
</svg>
