<svg width="36" height="18" viewBox="0 0 36 18" fill="none" xmlns="http://www.w3.org/2000/svg">
<path d="M16.5656 4.47416L16.8529 3.51633L16.389 3.37714L15.9921 3.65493L16.5656 4.47416ZM0.58081 14.8004C0.484831 15.3443 0.847928 15.863 1.39181 15.9589L10.2549 17.523C10.7987 17.619 11.3175 17.2559 11.4134 16.712C11.5094 16.1681 11.1463 15.6494 10.6024 15.5534L2.72416 14.1632L4.11445 6.28489C4.21043 5.74101 3.84733 5.2223 3.30345 5.12632C2.75957 5.03034 2.24086 5.39344 2.14488 5.93732L0.58081 14.8004ZM35.1321 2.7982C35.5872 2.48532 35.7025 1.86274 35.3896 1.40763C35.0768 0.952526 34.4542 0.837231 33.9991 1.15011L35.1321 2.7982ZM26.5656 7.47414L26.2782 8.43196L26.7372 8.56966L27.1321 8.29818L26.5656 7.47414ZM15.9921 3.65493L0.992132 14.1549L2.13906 15.7934L17.1391 5.29339L15.9921 3.65493ZM33.9991 1.15011L25.999 6.65009L27.1321 8.29818L35.1321 2.7982L33.9991 1.15011ZM26.8529 6.51631L16.8529 3.51633L16.2782 5.43199L26.2782 8.43196L26.8529 6.51631Z" fill="#E8BF38"/>
</svg>
