<svg width="185" height="215" viewBox="0 0 185 215" fill="none" xmlns="http://www.w3.org/2000/svg">
<circle cx="4.04783" cy="44.9762" r="3.33907" transform="rotate(-14 4.04783 44.9762)" fill="black" fill-opacity="0.3"/>
<circle cx="8.62534" cy="63.3355" r="3.33907" transform="rotate(-14 8.62534 63.3355)" fill="black" fill-opacity="0.3"/>
<circle cx="13.2029" cy="81.6947" r="3.33907" transform="rotate(-14 13.2029 81.6947)" fill="black" fill-opacity="0.3"/>
<circle cx="17.7802" cy="100.054" r="3.33907" transform="rotate(-14 17.7802 100.054)" fill="black" fill-opacity="0.3"/>
<circle cx="22.3578" cy="118.413" r="3.33907" transform="rotate(-14 22.3578 118.413)" fill="black" fill-opacity="0.3"/>
<circle cx="26.9352" cy="136.773" r="3.33907" transform="rotate(-14 26.9352 136.773)" fill="black" fill-opacity="0.3"/>
<circle cx="31.5128" cy="155.132" r="3.33907" transform="rotate(-14 31.5128 155.132)" fill="black" fill-opacity="0.3"/>
<circle cx="36.0904" cy="173.491" r="3.33907" transform="rotate(-14 36.0904 173.491)" fill="black" fill-opacity="0.3"/>
<circle cx="40.6679" cy="191.851" r="3.33907" transform="rotate(-14 40.6679 191.851)" fill="black" fill-opacity="0.3"/>
<circle cx="45.2453" cy="210.21" r="3.33907" transform="rotate(-14 45.2453 210.21)" fill="black" fill-opacity="0.3"/>
<circle cx="22.4071" cy="40.3986" r="3.33907" transform="rotate(-14 22.4071 40.3986)" fill="black" fill-opacity="0.3"/>
<circle cx="26.9847" cy="58.758" r="3.33907" transform="rotate(-14 26.9847 58.758)" fill="black" fill-opacity="0.3"/>
<circle cx="31.5622" cy="77.1171" r="3.33907" transform="rotate(-14 31.5622 77.1171)" fill="black" fill-opacity="0.3"/>
<circle cx="36.1397" cy="95.4765" r="3.33907" transform="rotate(-14 36.1397 95.4765)" fill="black" fill-opacity="0.3"/>
<circle cx="40.7171" cy="113.836" r="3.33907" transform="rotate(-14 40.7171 113.836)" fill="black" fill-opacity="0.3"/>
<circle cx="45.2946" cy="132.195" r="3.33907" transform="rotate(-14 45.2946 132.195)" fill="black" fill-opacity="0.3"/>
<circle cx="49.8721" cy="150.555" r="3.33907" transform="rotate(-14 49.8721 150.555)" fill="black" fill-opacity="0.3"/>
<circle cx="54.4497" cy="168.914" r="3.33907" transform="rotate(-14 54.4497 168.914)" fill="black" fill-opacity="0.3"/>
<circle cx="59.0272" cy="187.273" r="3.33907" transform="rotate(-14 59.0272 187.273)" fill="black" fill-opacity="0.3"/>
<circle cx="63.6046" cy="205.633" r="3.33907" transform="rotate(-14 63.6046 205.633)" fill="black" fill-opacity="0.3"/>
<circle cx="40.7665" cy="35.8211" r="3.33907" transform="rotate(-14 40.7665 35.8211)" fill="black" fill-opacity="0.3"/>
<circle cx="45.344" cy="54.1805" r="3.33907" transform="rotate(-14 45.344 54.1805)" fill="black" fill-opacity="0.3"/>
<circle cx="49.9215" cy="72.5396" r="3.33907" transform="rotate(-14 49.9215 72.5396)" fill="black" fill-opacity="0.3"/>
<circle cx="54.499" cy="90.899" r="3.33907" transform="rotate(-14 54.499 90.899)" fill="black" fill-opacity="0.3"/>
<circle cx="59.0765" cy="109.259" r="3.33907" transform="rotate(-14 59.0765 109.259)" fill="black" fill-opacity="0.3"/>
<circle cx="63.6539" cy="127.618" r="3.33907" transform="rotate(-14 63.6539 127.618)" fill="black" fill-opacity="0.3"/>
<circle cx="68.2314" cy="145.977" r="3.33907" transform="rotate(-14 68.2314 145.977)" fill="black" fill-opacity="0.3"/>
<circle cx="72.809" cy="164.336" r="3.33907" transform="rotate(-14 72.809 164.336)" fill="black" fill-opacity="0.3"/>
<circle cx="77.3865" cy="182.696" r="3.33907" transform="rotate(-14 77.3865 182.696)" fill="black" fill-opacity="0.3"/>
<circle cx="81.9641" cy="201.055" r="3.33907" transform="rotate(-14 81.9641 201.055)" fill="black" fill-opacity="0.3"/>
<circle cx="59.1257" cy="31.2436" r="3.33907" transform="rotate(-14 59.1257 31.2436)" fill="black" fill-opacity="0.3"/>
<circle cx="63.7033" cy="49.603" r="3.33907" transform="rotate(-14 63.7033 49.603)" fill="black" fill-opacity="0.3"/>
<circle cx="68.2808" cy="67.9621" r="3.33907" transform="rotate(-14 68.2808 67.9621)" fill="black" fill-opacity="0.3"/>
<circle cx="72.8583" cy="86.3215" r="3.33907" transform="rotate(-14 72.8583 86.3215)" fill="black" fill-opacity="0.3"/>
<circle cx="77.4358" cy="104.681" r="3.33907" transform="rotate(-14 77.4358 104.681)" fill="black" fill-opacity="0.3"/>
<circle cx="82.0132" cy="123.04" r="3.33907" transform="rotate(-14 82.0132 123.04)" fill="black" fill-opacity="0.3"/>
<circle cx="86.5909" cy="141.4" r="3.33907" transform="rotate(-14 86.5909 141.4)" fill="black" fill-opacity="0.3"/>
<circle cx="91.1683" cy="159.759" r="3.33907" transform="rotate(-14 91.1683 159.759)" fill="black" fill-opacity="0.3"/>
<circle cx="95.7458" cy="178.118" r="3.33907" transform="rotate(-14 95.7458 178.118)" fill="black" fill-opacity="0.3"/>
<circle cx="100.323" cy="196.477" r="3.33907" transform="rotate(-14 100.323 196.477)" fill="black" fill-opacity="0.3"/>
<circle cx="77.4851" cy="26.6661" r="3.33907" transform="rotate(-14 77.4851 26.6661)" fill="black" fill-opacity="0.3"/>
<circle cx="82.0626" cy="45.0255" r="3.33907" transform="rotate(-14 82.0626 45.0255)" fill="black" fill-opacity="0.3"/>
<circle cx="86.64" cy="63.3846" r="3.33907" transform="rotate(-14 86.64 63.3846)" fill="black" fill-opacity="0.3"/>
<circle cx="91.2175" cy="81.744" r="3.33907" transform="rotate(-14 91.2175 81.744)" fill="black" fill-opacity="0.3"/>
<circle cx="95.7951" cy="100.104" r="3.33907" transform="rotate(-14 95.7951 100.104)" fill="black" fill-opacity="0.3"/>
<circle cx="100.373" cy="118.463" r="3.33907" transform="rotate(-14 100.373 118.463)" fill="black" fill-opacity="0.3"/>
<circle cx="104.95" cy="136.822" r="3.33907" transform="rotate(-14 104.95 136.822)" fill="black" fill-opacity="0.3"/>
<circle cx="109.528" cy="155.181" r="3.33907" transform="rotate(-14 109.528 155.181)" fill="black" fill-opacity="0.3"/>
<circle cx="114.105" cy="173.541" r="3.33907" transform="rotate(-14 114.105 173.541)" fill="black" fill-opacity="0.3"/>
<circle cx="118.683" cy="191.9" r="3.33907" transform="rotate(-14 118.683 191.9)" fill="black" fill-opacity="0.3"/>
<circle cx="95.8445" cy="22.0888" r="3.33907" transform="rotate(-14 95.8445 22.0888)" fill="black" fill-opacity="0.3"/>
<circle cx="100.422" cy="40.448" r="3.33907" transform="rotate(-14 100.422 40.448)" fill="black" fill-opacity="0.3"/>
<circle cx="104.999" cy="58.8073" r="3.33907" transform="rotate(-14 104.999 58.8073)" fill="black" fill-opacity="0.3"/>
<circle cx="109.577" cy="77.1665" r="3.33907" transform="rotate(-14 109.577 77.1665)" fill="black" fill-opacity="0.3"/>
<circle cx="114.154" cy="95.5258" r="3.33907" transform="rotate(-14 114.154 95.5258)" fill="black" fill-opacity="0.3"/>
<circle cx="118.732" cy="113.885" r="3.33907" transform="rotate(-14 118.732 113.885)" fill="black" fill-opacity="0.3"/>
<circle cx="123.31" cy="132.245" r="3.33907" transform="rotate(-14 123.31 132.245)" fill="black" fill-opacity="0.3"/>
<circle cx="127.887" cy="150.604" r="3.33907" transform="rotate(-14 127.887 150.604)" fill="black" fill-opacity="0.3"/>
<circle cx="132.464" cy="168.963" r="3.33907" transform="rotate(-14 132.464 168.963)" fill="black" fill-opacity="0.3"/>
<circle cx="137.042" cy="187.323" r="3.33907" transform="rotate(-14 137.042 187.323)" fill="black" fill-opacity="0.3"/>
<circle cx="114.204" cy="17.5113" r="3.33907" transform="rotate(-14 114.204 17.5113)" fill="black" fill-opacity="0.3"/>
<circle cx="118.781" cy="35.8704" r="3.33907" transform="rotate(-14 118.781 35.8704)" fill="black" fill-opacity="0.3"/>
<circle cx="123.359" cy="54.2298" r="3.33907" transform="rotate(-14 123.359 54.2298)" fill="black" fill-opacity="0.3"/>
<circle cx="127.936" cy="72.589" r="3.33907" transform="rotate(-14 127.936 72.589)" fill="black" fill-opacity="0.3"/>
<circle cx="132.514" cy="90.9483" r="3.33907" transform="rotate(-14 132.514 90.9483)" fill="black" fill-opacity="0.3"/>
<circle cx="137.091" cy="109.308" r="3.33907" transform="rotate(-14 137.091 109.308)" fill="black" fill-opacity="0.3"/>
<circle cx="141.669" cy="127.667" r="3.33907" transform="rotate(-14 141.669 127.667)" fill="black" fill-opacity="0.3"/>
<circle cx="146.246" cy="146.027" r="3.33907" transform="rotate(-14 146.246 146.027)" fill="black" fill-opacity="0.3"/>
<circle cx="150.824" cy="164.386" r="3.33907" transform="rotate(-14 150.824 164.386)" fill="black" fill-opacity="0.3"/>
<circle cx="155.401" cy="182.745" r="3.33907" transform="rotate(-14 155.401 182.745)" fill="black" fill-opacity="0.3"/>
<circle cx="131.483" cy="13.2031" r="3.33907" transform="rotate(-14 131.483 13.2031)" fill="black" fill-opacity="0.3"/>
<circle cx="136.061" cy="31.5623" r="3.33907" transform="rotate(-14 136.061 31.5623)" fill="black" fill-opacity="0.3"/>
<circle cx="140.638" cy="49.9217" r="3.33907" transform="rotate(-14 140.638 49.9217)" fill="black" fill-opacity="0.3"/>
<circle cx="145.216" cy="68.2808" r="3.33907" transform="rotate(-14 145.216 68.2808)" fill="black" fill-opacity="0.3"/>
<circle cx="149.793" cy="86.6402" r="3.33907" transform="rotate(-14 149.793 86.6402)" fill="black" fill-opacity="0.3"/>
<circle cx="154.371" cy="104.999" r="3.33907" transform="rotate(-14 154.371 104.999)" fill="black" fill-opacity="0.3"/>
<circle cx="158.948" cy="123.359" r="3.33907" transform="rotate(-14 158.948 123.359)" fill="black" fill-opacity="0.3"/>
<circle cx="163.526" cy="141.718" r="3.33907" transform="rotate(-14 163.526 141.718)" fill="black" fill-opacity="0.3"/>
<circle cx="168.103" cy="160.077" r="3.33907" transform="rotate(-14 168.103 160.077)" fill="black" fill-opacity="0.3"/>
<circle cx="172.681" cy="178.437" r="3.33907" transform="rotate(-14 172.681 178.437)" fill="black" fill-opacity="0.3"/>
<circle cx="149.842" cy="8.6252" r="3.33907" transform="rotate(-14 149.842 8.6252)" fill="black" fill-opacity="0.3"/>
<circle cx="154.42" cy="26.9848" r="3.33907" transform="rotate(-14 154.42 26.9848)" fill="black" fill-opacity="0.3"/>
<circle cx="158.998" cy="45.3442" r="3.33907" transform="rotate(-14 158.998 45.3442)" fill="black" fill-opacity="0.3"/>
<circle cx="163.575" cy="63.7033" r="3.33907" transform="rotate(-14 163.575 63.7033)" fill="black" fill-opacity="0.3"/>
<circle cx="168.152" cy="82.0627" r="3.33907" transform="rotate(-14 168.152 82.0627)" fill="black" fill-opacity="0.3"/>
<circle cx="172.73" cy="100.422" r="3.33907" transform="rotate(-14 172.73 100.422)" fill="black" fill-opacity="0.3"/>
<circle cx="177.307" cy="118.781" r="3.33907" transform="rotate(-14 177.307 118.781)" fill="black" fill-opacity="0.3"/>
<circle cx="181.885" cy="137.141" r="3.33907" transform="rotate(-14 181.885 137.141)" fill="black" fill-opacity="0.3"/>
<circle cx="186.462" cy="155.5" r="3.33907" transform="rotate(-14 186.462 155.5)" fill="black" fill-opacity="0.3"/>
<circle cx="168.202" cy="4.04787" r="3.33907" transform="rotate(-14 168.202 4.04787)" fill="black" fill-opacity="0.3"/>
<circle cx="172.779" cy="22.4072" r="3.33907" transform="rotate(-14 172.779 22.4072)" fill="black" fill-opacity="0.3"/>
<circle cx="177.357" cy="40.7667" r="3.33907" transform="rotate(-14 177.357 40.7667)" fill="black" fill-opacity="0.3"/>
<circle cx="181.934" cy="59.1258" r="3.33907" transform="rotate(-14 181.934 59.1258)" fill="black" fill-opacity="0.3"/>
<circle cx="186.512" cy="77.4852" r="3.33907" transform="rotate(-14 186.512 77.4852)" fill="black" fill-opacity="0.3"/>
</svg>
