<svg width="47" height="35" viewBox="0 0 47 35" fill="none" xmlns="http://www.w3.org/2000/svg">
<path d="M39.8456 2.95533C39.8318 2.93009 39.809 2.91064 39.7816 2.90065C36.7366 1.53492 33.5233 0.560692 30.2221 0.00230404C30.1924 -0.00300893 30.1618 0.00092017 30.1346 0.0135365C30.1073 0.0261528 30.0848 0.0468187 30.0702 0.0726144C29.6324 0.84938 29.2349 1.64724 28.8793 2.46316C25.3189 1.93495 21.6973 1.93495 18.1368 2.46316C17.7798 1.64523 17.3769 0.847165 16.9299 0.0726144C16.9145 0.0475873 16.8918 0.0275657 16.8648 0.0150584C16.8378 0.00255114 16.8076 -0.00188563 16.778 0.00230404C13.471 0.558177 10.2521 1.53248 7.20252 2.90065C7.17577 2.91173 7.15336 2.93089 7.13858 2.95533C1.04798 11.8535 -0.622539 20.5251 0.192738 29.0951C0.195046 29.1167 0.201924 29.1376 0.212933 29.1564C0.223942 29.1752 0.23884 29.1916 0.256681 29.2045C3.80445 31.7693 7.77203 33.7268 11.9903 34.9934C12.0206 35.0025 12.0531 35.0022 12.0832 34.9924C12.1133 34.9826 12.1395 34.9638 12.1581 34.9387C13.0632 33.7344 13.8652 32.4593 14.556 31.1263C14.5652 31.108 14.5704 31.088 14.5713 31.0676C14.5723 31.0471 14.5689 31.0268 14.5614 31.0077C14.5539 30.9886 14.5424 30.9713 14.5277 30.9567C14.5131 30.9422 14.4955 30.9308 14.4761 30.9232C13.2088 30.4486 11.982 29.8765 10.8073 29.2123C10.7866 29.1999 10.7692 29.1828 10.7566 29.1624C10.744 29.142 10.7366 29.119 10.7351 29.0953C10.7335 29.0715 10.7378 29.0478 10.7476 29.026C10.7574 29.0042 10.7724 28.985 10.7913 28.9701C11.0391 28.7904 11.2869 28.6029 11.5187 28.4155C11.5391 28.3979 11.5643 28.3864 11.5912 28.3822C11.618 28.3781 11.6456 28.3815 11.6706 28.392C19.3597 31.8216 27.6883 31.8216 35.2896 28.392C35.3139 28.3804 35.341 28.3757 35.3678 28.3785C35.3947 28.3813 35.4202 28.3914 35.4415 28.4076C35.6733 28.5951 35.921 28.7904 36.1688 28.9701C36.1878 28.985 36.2028 29.0042 36.2126 29.026C36.2224 29.0478 36.2267 29.0715 36.2251 29.0953C36.2235 29.119 36.2161 29.142 36.2036 29.1624C36.191 29.1828 36.1736 29.1999 36.1528 29.2123C34.9811 29.8799 33.7539 30.4496 32.4841 30.9154C32.4647 30.923 32.4471 30.9344 32.4324 30.9489C32.4177 30.9635 32.4063 30.9808 32.3988 30.9999C32.3913 31.019 32.3879 31.0393 32.3888 31.0597C32.3897 31.0801 32.395 31.1001 32.4042 31.1185C33.107 32.4449 33.9085 33.7191 34.802 34.9309C34.8207 34.956 34.8469 34.9748 34.877 34.9846C34.9071 34.9944 34.9396 34.9947 34.9699 34.9856C39.2003 33.7246 43.1794 31.7669 46.7354 29.1967C46.7537 29.1841 46.7688 29.1679 46.7799 29.149C46.7909 29.1301 46.7976 29.109 46.7994 29.0873C47.7745 19.1892 45.1529 10.5879 39.8456 2.95533ZM15.707 23.8765C13.389 23.8765 11.4867 21.7985 11.4867 19.2517C11.4867 16.7049 13.3571 14.619 15.707 14.619C18.0809 14.619 19.9672 16.7127 19.9272 19.2439C19.9272 21.7985 18.0569 23.8765 15.707 23.8765ZM31.3251 23.8765C29.0072 23.8765 27.1049 21.7985 27.1049 19.2517C27.1049 16.7049 28.9672 14.619 31.3251 14.619C33.699 14.619 35.5853 16.7127 35.5454 19.2439C35.5454 21.7985 33.691 23.8765 31.3251 23.8765Z" fill="black" fill-opacity="0.4"/>
</svg>
