<svg width="42" height="42" viewBox="0 0 42 42" fill="none" xmlns="http://www.w3.org/2000/svg">
<g clip-path="url(#clip0_157_294)">
<path d="M42 21C42 9.40078 32.5992 0 21 0C9.40078 0 0 9.40078 0 21C0 30.8437 6.78398 39.1125 15.9305 41.3848V27.4148H11.5992V21H15.9305V18.2355C15.9305 11.0906 19.1625 7.77656 26.1844 7.77656C27.5133 7.77656 29.8102 8.03906 30.7535 8.30156V14.1094C30.2613 14.0602 29.4 14.0273 28.3254 14.0273C24.8801 14.0273 23.5512 15.3316 23.5512 18.7195V21H30.409L29.2277 27.4148H23.543V41.8441C33.9445 40.5891 42 31.7379 42 21Z" fill="#E8BF38"/>
</g>
<defs>
<clipPath id="clip0_157_294">
<rect width="42" height="42" fill="white"/>
</clipPath>
</defs>
</svg>
