<svg width="371" height="402" viewBox="0 0 371 402" fill="none" xmlns="http://www.w3.org/2000/svg">
<path d="M202.933 137.688C198.284 140.485 192.87 141.74 187.465 141.27C182.06 140.802 176.943 138.634 172.846 135.078C168.751 131.521 165.885 126.761 164.662 121.476C163.438 116.191 163.919 110.655 166.036 105.662C168.154 100.667 171.797 96.4721 176.446 93.6753C181.095 90.8801 186.509 89.6269 191.914 90.0964C197.319 90.5679 202.436 92.7372 206.531 96.2937C210.627 99.8502 213.491 104.612 214.714 109.897C215.944 115.18 215.466 120.716 213.349 125.711C211.232 130.704 207.586 134.899 202.933 137.688Z" fill="#EBEBEB"/>
<path d="M197.539 112.847C197.52 114.391 197.042 115.895 196.169 117.169C195.294 118.442 194.063 119.428 192.628 120.001C191.194 120.574 189.622 120.71 188.11 120.391C186.598 120.071 185.216 119.311 184.137 118.206C183.057 117.101 182.331 115.701 182.047 114.183C181.764 112.665 181.936 111.096 182.544 109.675C183.151 108.256 184.166 107.047 185.461 106.205C186.755 105.361 188.269 104.921 189.815 104.939C190.842 104.95 191.855 105.163 192.8 105.568C193.744 105.971 194.598 106.557 195.317 107.291C196.034 108.025 196.599 108.895 196.98 109.847C197.362 110.802 197.552 111.821 197.539 112.847Z" fill="white"/>
<path d="M202.968 134.465V137.688C198.88 140.146 194.187 141.415 189.416 141.356C184.647 141.296 179.988 139.91 175.961 137.352L176.005 134.138C176.028 132.365 176.397 130.613 177.096 128.984C177.794 127.355 178.807 125.88 180.075 124.641C181.343 123.403 182.844 122.427 184.491 121.769C186.136 121.11 187.895 120.783 189.668 120.804C191.441 120.826 193.192 121.196 194.821 121.895C196.451 122.593 197.928 123.604 199.165 124.873C200.405 126.141 201.381 127.641 202.039 129.287C202.697 130.934 203.025 132.692 203.004 134.465H202.968Z" fill="white"/>
<path d="M53.1105 130.71C50.4291 132.324 47.3509 133.158 44.2213 133.119C41.092 133.079 38.0354 132.169 35.3952 130.488C32.3071 128.523 29.9441 125.605 28.6643 122.176C27.3844 118.747 27.2578 114.994 28.3032 111.487C29.3488 107.979 31.5095 104.908 34.4581 102.739C37.4065 100.57 40.9819 99.4217 44.642 99.4674C48.3023 99.5131 51.8478 100.751 54.7412 102.993C57.6345 105.235 59.7178 108.359 60.6753 111.891C61.6329 115.424 61.4122 119.172 60.0472 122.568C58.6821 125.964 56.2467 128.822 53.1105 130.71Z" fill="#EBEBEB"/>
<path d="M49.5764 114.432C49.5657 115.445 49.2549 116.432 48.6832 117.268C48.1115 118.104 47.3046 118.751 46.3646 119.129C45.4246 119.506 44.3938 119.596 43.4025 119.388C42.4114 119.179 41.5044 118.681 40.7961 117.957C40.0881 117.233 39.6106 116.315 39.4244 115.32C39.2382 114.324 39.3515 113.296 39.75 112.365C40.1484 111.433 40.8143 110.641 41.6632 110.089C42.5119 109.536 43.5058 109.248 44.5186 109.26C45.1905 109.267 45.8544 109.406 46.4725 109.67C47.0905 109.934 47.6505 110.317 48.1202 110.797C48.59 111.278 48.9604 111.846 49.2103 112.47C49.4601 113.093 49.5845 113.76 49.5764 114.432Z" fill="white"/>
<path d="M53.1371 128.593V130.71C50.4557 132.323 47.3773 133.157 44.2479 133.118C41.1186 133.079 38.062 132.169 35.4218 130.488V128.389C35.4487 126.041 36.4079 123.799 38.0881 122.157C39.7684 120.515 42.0321 119.608 44.3812 119.635C46.7305 119.662 48.9728 120.621 50.6148 122.301C52.2568 123.981 53.164 126.244 53.1371 128.593Z" fill="white"/>
<path d="M128.277 133.128H16.1032V56.3967H128.277V133.128ZM16.9891 132.242H127.391V57.2824H16.9891V132.242Z" fill="#EBEBEB"/>
<path d="M24.8723 61.3386C24.8723 61.7799 24.7413 62.2114 24.4962 62.5785C24.2509 62.9454 23.9023 63.2315 23.4944 63.4005C23.0866 63.5693 22.6377 63.6136 22.2047 63.5274C21.7717 63.4413 21.374 63.2288 21.0618 62.9166C20.7497 62.6044 20.537 62.2069 20.451 61.7738C20.3648 61.3409 20.409 60.8923 20.578 60.4844C20.7468 60.0766 21.0329 59.7282 21.4001 59.4829C21.7671 59.2376 22.1987 59.1067 22.6402 59.1067C23.2322 59.1067 23.7999 59.3419 24.2185 59.7603C24.6372 60.1789 24.8723 60.7465 24.8723 61.3386Z" fill="#A6A6A6"/>
<path d="M33.9869 61.3386C33.9869 61.7799 33.856 62.2114 33.6107 62.5785C33.3653 62.9454 33.0168 63.2315 32.609 63.4005C32.201 63.5693 31.7523 63.6136 31.3193 63.5274C30.8862 63.4413 30.4886 63.2288 30.1764 62.9166C29.8642 62.6044 29.6517 62.2069 29.5655 61.7738C29.4793 61.3409 29.5236 60.8923 29.6925 60.4844C29.8615 60.0766 30.1476 59.7282 30.5146 59.4829C30.8818 59.2376 31.3133 59.1067 31.7547 59.1067C32.3468 59.1067 32.9145 59.3419 33.3332 59.7603C33.7516 60.1789 33.9869 60.7465 33.9869 61.3386Z" fill="#EBEBEB"/>
<path d="M43.1013 61.3386C43.1013 61.7799 42.9703 62.2114 42.7252 62.5785C42.4799 62.9454 42.1313 63.2315 41.7234 63.4005C41.3156 63.5693 40.8667 63.6136 40.4337 63.5274C40.0008 63.4413 39.603 63.2288 39.2908 62.9166C38.9787 62.6044 38.766 62.2069 38.68 61.7738C38.5939 61.3409 38.638 60.8923 38.807 60.4844C38.976 60.0766 39.2621 59.7282 39.6291 59.4829C39.9961 59.2376 40.4277 59.1067 40.8692 59.1067C41.4612 59.1067 42.0289 59.3419 42.4475 59.7603C42.8662 60.1789 43.1013 60.7465 43.1013 61.3386Z" fill="#FFC727"/>
<path d="M127.834 65.2708H16.5461V66.1565H127.834V65.2708Z" fill="#EBEBEB"/>
<path d="M85.0393 153.261L26.5977 161.235L31.6548 198.291L90.0965 190.318L85.0393 153.261Z" fill="#EBEBEB"/>
<path d="M85.0336 153.276C82.9785 155.853 80.8704 158.341 78.8331 160.883C76.7959 163.425 74.6169 165.887 72.5 168.367C70.383 170.847 68.0711 173.521 65.8391 176.071L65.6353 176.319C63.6688 178.57 61.6907 180.822 59.7006 183.077L59.4083 183.396L59.0453 183.165C56.5297 181.528 54.0317 179.889 51.5251 178.232L51.2593 178.065C48.4248 176.195 45.5903 174.317 42.7647 172.405C39.9391 170.492 37.3616 168.756 34.6688 166.905C31.9761 165.054 29.2923 163.176 26.6262 161.238C29.3985 162.832 32.1445 164.524 34.8903 166.171C37.6362 167.818 40.3909 169.536 43.1369 171.255C46.1839 173.148 49.2309 175.077 52.2779 177.038C54.5631 178.489 56.8455 179.965 59.1249 181.465C60.8964 179.436 62.7299 177.409 64.5457 175.407C66.9638 172.75 69.3732 170.041 71.809 167.384C73.988 165.022 76.1788 162.66 78.3814 160.298C80.5959 157.916 82.7837 155.552 85.0336 153.276Z" fill="white"/>
<path d="M52.4462 177.869L52.3841 177.941C52.1184 178.242 51.8438 178.551 51.5693 178.826C50.276 180.261 48.9119 181.652 47.5656 183.015C45.9003 184.689 44.182 186.309 42.4458 187.921C40.7098 189.533 38.956 191.084 37.1312 192.614C35.3066 194.147 33.4996 195.661 31.5952 197.044C33.1542 195.273 34.8017 193.554 36.467 191.89C38.1322 190.224 39.8595 188.585 41.5867 186.983C43.314 185.38 45.1298 183.804 46.9013 182.271C48.3362 181.048 49.7978 179.836 51.3301 178.685C51.6756 178.409 52.0298 178.153 52.3841 177.887L52.4462 177.869Z" fill="white"/>
<path d="M89.7901 189.161C87.5756 188.276 85.3612 187.346 83.2708 186.353C81.1803 185.361 79.0103 184.299 76.9021 183.236C74.794 182.174 72.7125 181.048 70.7019 179.879C69.0277 178.941 67.3625 177.966 65.7415 176.931L64.6962 176.267L64.6255 176.213H64.7141L65.9453 176.7C67.7168 177.409 69.4264 178.188 71.1447 178.986C73.2971 179.978 75.4052 181.031 77.5044 182.102C79.6038 183.174 81.6942 184.291 83.7491 185.46C85.8041 186.629 87.797 187.851 89.7901 189.161Z" fill="white"/>
<path d="M301.367 18H229.035V63.8667H301.367V18Z" fill="#EBEBEB"/>
<path d="M301.367 18C298.443 20.7898 295.468 23.4643 292.51 26.2187C289.552 28.973 286.566 31.5944 283.581 34.2601C280.596 36.9259 277.337 39.7865 274.2 42.5142L273.926 42.7799C271.156 45.1947 268.378 47.6066 265.59 50.0154L265.174 50.3519L264.776 50.0154C261.995 47.6066 259.222 45.1917 256.458 42.7709L256.166 42.5142C253.019 39.7865 249.888 37.0292 246.777 34.2425C243.802 31.5855 240.825 28.9287 237.857 26.2187C234.891 23.5085 231.941 20.7898 229 18C232.109 20.3911 235.2 22.9063 238.23 25.3596C241.259 27.8127 244.359 30.3545 247.397 32.8963C250.793 35.7007 254.18 38.5495 257.557 41.4426C260.09 43.5858 262.624 45.7409 265.157 47.9076C267.672 45.7468 270.205 43.577 272.739 41.4426C276.117 38.5732 279.503 35.7243 282.899 32.8963C285.934 30.3693 288.988 27.863 292.057 25.3773C295.211 22.9063 298.259 20.3911 301.367 18Z" fill="white"/>
<path d="M257.699 42.4875C257.672 42.5134 257.641 42.5371 257.609 42.5584C257.229 42.886 256.858 43.2138 256.477 43.5238C254.661 45.0559 252.8 46.526 250.914 47.9518C248.611 49.7231 246.255 51.397 243.881 53.0708C241.506 54.7447 239.115 56.3387 236.67 57.9064C234.226 59.474 231.764 60.9972 229.212 62.3964C231.401 60.4747 233.642 58.6857 235.988 56.9411C238.336 55.1963 240.657 53.4959 243.013 51.8221C245.369 50.1483 247.795 48.5453 250.24 46.9777C252.181 45.729 254.156 44.4979 256.184 43.3467C256.644 43.081 257.114 42.8153 257.592 42.5584L257.699 42.4875Z" fill="white"/>
<path d="M301.199 62.3877C298.639 60.9883 296.167 59.4561 293.731 57.8975C291.296 56.3387 288.895 54.7003 286.504 53.062C284.112 51.4236 281.783 49.7054 279.479 47.943C277.601 46.526 275.742 45.0647 273.944 43.5148C273.545 43.1872 273.173 42.8594 272.792 42.5318C272.76 42.5105 272.731 42.4867 272.703 42.4609L272.81 42.5141L274.218 43.3111C276.247 44.4625 278.213 45.6935 280.161 46.9422C282.606 48.5097 284.997 50.1394 287.38 51.7866C289.763 53.4339 292.102 55.1432 294.405 56.9055C296.707 58.668 299.003 60.4657 301.199 62.3877Z" fill="white"/>
<path d="M173.132 401.968C243.179 401.968 299.965 397.571 299.965 392.147C299.965 386.723 243.179 382.325 173.132 382.325C103.084 382.325 46.299 386.723 46.299 392.147C46.299 397.571 103.084 401.968 173.132 401.968Z" fill="#EBEBEB"/>
<path opacity="0.1" d="M179.474 156.676L182.379 163.071H248.892L251.788 156.676H179.474Z" fill="black"/>
<path opacity="0.1" d="M207.782 137.077L207.57 135.049L223.798 133.88L223.47 137.077H207.782Z" fill="black"/>
<path opacity="0.1" d="M119.127 118.346L122.032 124.732H188.535L191.44 118.346H119.127Z" fill="black"/>
<path opacity="0.1" d="M147.436 98.7476L147.205 96.56L163.46 95.5061L163.122 98.7476H147.436Z" fill="black"/>
<path d="M307.068 277.821C307.333 273.349 307.967 268.905 308.964 264.536C309.902 260.596 311.232 256.566 313.72 253.298C314.815 251.763 316.202 250.458 317.803 249.461C319.404 248.464 321.187 247.794 323.047 247.488C326.706 247.045 330.134 248.676 332.871 250.97C336.254 253.821 338.849 257.603 341.285 261.26C343.953 265.353 346.378 269.601 348.549 273.978C348.628 274.12 348.407 274.244 348.337 274.102C346.449 270.394 344.277 266.841 341.835 263.474C339.609 260.242 337.105 257.21 334.349 254.415C331.843 251.97 328.654 249.676 325.014 249.562C321.373 249.445 318.061 251.475 315.89 254.263C313.454 257.382 312.215 261.27 311.285 265.059C310.343 269.214 309.733 273.438 309.459 277.689C308.742 286.465 308.574 295.295 308.352 304.09C308.237 309.067 308.175 314.052 308.123 319.029L308.069 326.601C308.158 329.038 308.061 331.478 307.777 333.899C307.688 334.386 306.891 334.342 306.802 333.899C306.507 331.607 306.398 329.293 306.476 326.983C306.439 324.591 306.41 322.2 306.386 319.81C306.339 315.162 306.321 310.513 306.334 305.861C306.315 296.499 306.431 287.139 307.068 277.821Z" fill="#263238"/>
<path d="M319.611 271.205C320.072 268.727 320.913 265.494 322.321 263.571C324.863 260.118 327.636 261.614 325.077 265.441C323.206 268.281 321.997 271.504 321.532 274.873C321.532 274.873 325.803 280.975 330.958 283.977C330.736 281.629 330.072 278.025 330.532 274.545C331.525 267.008 336.086 267.459 334.961 273.421C334.075 278.219 333.685 283.321 333.933 285.527C335.655 286.643 337.505 287.549 339.443 288.228C339.142 287.342 338.832 286.306 338.486 285.03C336.653 278.274 341.143 276.174 341.302 279.973C341.602 283.214 342.195 286.422 343.075 289.556C345.546 290.389 347.601 290.955 348.85 291.389C352.098 292.592 354.999 294.575 357.301 297.163C359.647 295.043 361.597 292.52 363.057 289.716C361.48 288.36 358.992 286.35 355.537 283.905C349.062 279.336 351.313 273.562 356.423 277.149C360.126 279.744 362.995 284.544 364.306 287.005C366.054 282.712 367.046 278.149 367.239 273.518C362.154 268.744 349.567 262.084 353.358 262.084C356.778 262.084 364.413 267.088 367.212 269.018C367.145 267.706 367.003 266.4 366.787 265.103C361.995 261.959 346.414 257.079 348.902 255.671C351.622 254.131 362.49 259.161 365.777 260.747C365.159 258.612 364.187 256.597 362.898 254.786C356.273 245.93 344.297 242.874 339.125 244.557C335.439 245.754 336.466 255.104 335.722 254.786C320.895 248.861 314.163 253.042 319.611 271.205ZM355.927 270.178C356.982 268.912 361.836 272.65 360.435 274.687C359.037 276.724 354.554 271.809 355.91 270.178H355.927ZM330.532 262.208C331.808 263.023 329.921 267.743 327.946 266.317C326.289 265.095 329.229 261.384 330.515 262.208H330.532Z" fill="#FFC727"/>
<path d="M332.49 263.651C333.155 262.332 333.854 260.994 334.615 259.746C335.316 258.49 336.135 257.304 337.06 256.203C336.857 255.947 336.653 255.681 336.431 255.424C336.344 255.318 336.493 255.176 336.583 255.273C336.829 255.557 337.07 255.85 337.309 256.159C337.333 256.171 337.355 256.189 337.374 256.21C337.392 256.232 337.406 256.256 337.414 256.283C338.33 257.382 339.195 258.506 340.011 259.658C341.467 259.992 342.905 260.41 344.315 260.907C345.768 261.392 347.211 261.897 348.619 262.491C348.77 262.553 348.691 262.802 348.549 262.73C347.149 262.119 345.733 261.517 344.28 261.029C342.827 260.543 341.516 260.206 340.125 259.817C340.578 260.454 341.011 261.091 341.444 261.748C344.06 262.574 346.605 263.611 349.054 264.847C351.622 266.069 354.094 267.504 356.557 268.912C356.698 268.991 356.557 269.213 356.423 269.125C354.003 267.711 351.51 266.421 348.957 265.263C346.574 264.148 344.111 263.235 341.71 262.173C347.76 271.605 351.383 282.497 356.238 292.576C356.308 292.726 356.077 292.842 356.015 292.7C354.537 289.158 352.828 285.721 351.215 282.241C349.771 279.114 348.355 275.98 346.91 272.854C346.484 271.968 346.024 271.028 345.599 270.125C345.865 275.165 345.758 280.293 346.591 285.27C346.591 285.286 346.588 285.302 346.582 285.316C346.575 285.332 346.567 285.345 346.554 285.358C346.543 285.369 346.531 285.379 346.515 285.383C346.5 285.39 346.483 285.393 346.467 285.393C346.451 285.393 346.435 285.39 346.419 285.383C346.405 285.379 346.39 285.369 346.379 285.358C346.368 285.345 346.359 285.332 346.352 285.316C346.346 285.302 346.343 285.286 346.343 285.27C345.989 279.885 345.041 274.58 345.076 269.17C345.076 269.17 345.076 269.125 345.076 269.098C344.049 267.034 342.951 265.006 341.772 263.031C339.772 267.743 337.663 272.535 336.732 277.6C336.732 277.751 336.449 277.689 336.485 277.53C337.849 272.454 339.142 267.371 341.561 262.678C340.277 260.54 338.854 258.489 337.299 256.539C336.627 257.788 335.767 258.975 335.006 260.171C334.244 261.367 333.526 262.518 332.836 263.713C331.345 266.255 330.08 268.923 329.053 271.684C328.991 271.834 328.752 271.755 328.814 271.613C329.965 268.966 331.135 266.264 332.49 263.651Z" fill="#263238"/>
<path d="M284.783 275.129C288.662 271.232 293.171 266.131 299.167 266.14C304.961 266.14 309.22 270.807 311.665 275.617C314.225 280.647 315.146 286.34 315.872 291.877C316.73 298.509 317.249 305.181 317.432 311.865C317.539 315.576 317.521 319.295 317.432 323.006C317.421 326.77 317.125 330.525 316.546 334.244C316.44 334.839 315.474 334.864 315.439 334.244C315.262 331.118 315.385 327.974 315.439 324.847C315.492 321.723 315.439 318.649 315.297 315.611C315.066 309.411 314.616 303.212 313.88 297.013C313.243 291.601 312.738 286.049 311.116 280.823C309.663 276.112 306.926 270.727 302.152 268.655C295.634 265.839 289.265 270.993 285.004 275.351C284.862 275.43 284.658 275.244 284.783 275.129Z" fill="#263238"/>
<path d="M264.985 283.826C264.985 284.624 265.057 285.402 265.11 286.173C266.977 284.773 269.162 283.861 271.469 283.517C276.979 282.932 276.625 287.111 272.949 287.288C270.358 287.322 267.795 287.834 265.393 288.803C266.279 296.074 268.289 301.919 268.59 301.998C273.477 301.745 278.339 301.154 283.144 300.227C281.77 297.305 278.653 293.426 280.248 293.143C281.842 292.859 283.569 296.277 284.455 299.988C288.069 299.299 291.623 298.324 295.084 297.075C292.657 294.976 288.883 292.363 290.345 291.256C291.806 290.149 294.774 293.815 296.545 296.491C298.17 295.828 299.707 294.971 301.125 293.939C297.856 289.139 289.902 288.166 290.938 284.703C291.975 281.239 299.424 286.039 302.764 292.461C306.687 288.387 307.839 282.629 307.423 277.706C304.003 277.308 297.431 278.035 297.91 275.58C298.388 273.127 303.135 273.588 307.024 275.023C306.667 273.073 305.888 271.226 304.739 269.612C301.142 264.989 290.141 270.869 290.141 270.869C290.141 270.869 291.32 259.817 287.129 257.912C284.711 256.815 280.442 256.823 276.165 259.338C278.564 259.542 281.479 260.303 282.631 261.996C284.126 264.111 281.745 265.272 280.275 264.289C279.22 263.598 277.253 261.411 273.702 261.118C272.184 262.408 270.849 263.898 269.734 265.546C269.326 266.123 268.953 266.725 268.573 267.379C270.604 266.463 272.812 266.008 275.039 266.048C277.266 266.088 279.456 266.621 281.452 267.61C286.218 269.975 283.551 274.926 279.449 273.003C275.349 271.082 271.478 269.187 267.095 270.276C265.553 274.167 264.821 278.332 264.941 282.515C267.075 280.96 269.478 279.81 272.028 279.124C276.767 277.883 278.228 280.709 272.993 281.239C270.175 281.545 267.45 282.424 264.985 283.826ZM270.752 276.219C270.424 274.677 273.782 274.244 274.339 275.483C274.809 276.545 271.071 277.751 270.752 276.219ZM299.503 284.721C299.823 283.88 302.073 284.835 301.869 285.88C301.585 287.271 299.194 285.552 299.503 284.721ZM283.631 290.106C285.27 289.449 287.83 293.524 286.04 294.454C284.251 295.384 282.285 290.646 283.631 290.106Z" fill="#FFC727"/>
<path d="M269.229 301.193C271.7 297.066 274.145 292.922 276.74 288.865C277.944 286.979 279.211 285.129 280.522 283.313L279.937 283.171L278.954 282.985C278.193 282.853 277.431 282.746 276.66 282.666C275.889 282.587 275.217 282.55 274.491 282.542C273.716 282.499 272.942 282.54 272.178 282.666C272.162 282.666 272.146 282.66 272.135 282.647C272.122 282.636 272.116 282.62 272.116 282.604C272.116 282.587 272.122 282.572 272.135 282.56C272.146 282.548 272.162 282.542 272.178 282.542C272.949 282.542 273.737 282.47 274.508 282.462C275.278 282.453 276.013 282.462 276.757 282.515C277.46 282.553 278.161 282.626 278.857 282.736C279.247 282.79 279.628 282.861 280.009 282.932C280.244 282.969 280.477 283.02 280.708 283.082C282.046 281.241 283.437 279.443 284.87 277.671C280.6 275.598 276.055 274.145 271.372 273.358C271.292 273.358 271.327 273.225 271.372 273.234C276.133 273.895 280.759 275.298 285.084 277.396L287.467 274.5C288.353 273.429 289.318 272.374 290.124 271.242C290.176 271.162 290.283 271.242 290.231 271.312C289.116 272.532 288.069 273.812 287.094 275.147C288.862 276.373 290.543 277.719 292.126 279.177C293.767 280.636 295.368 282.141 296.926 283.694C296.988 283.746 296.926 283.835 296.838 283.781C295.296 282.249 293.702 280.788 292.037 279.398C290.372 278.008 288.609 276.741 286.935 275.368C286.554 275.881 286.173 276.386 285.783 276.883C285.589 277.13 285.402 277.388 285.208 277.644L285.163 277.697C284.517 278.53 283.879 279.371 283.241 280.212C283.991 281.295 284.631 282.45 285.154 283.658C285.703 284.818 286.191 286.022 286.634 287.201C287.518 289.724 288.206 292.312 288.689 294.941C288.689 295.011 288.591 295.046 288.574 294.941C288.047 292.35 287.293 289.81 286.323 287.35C285.845 286.094 285.296 284.863 284.738 283.631C284.181 282.4 283.596 281.443 283.118 280.311C282.569 281.045 282.009 281.789 281.469 282.532C281.31 282.746 281.16 282.967 281.009 283.189C281.009 283.233 281.009 283.295 280.956 283.303C279.255 285.668 277.643 288.094 276.076 290.549C276.168 290.716 276.24 290.894 276.287 291.079C276.386 291.38 276.483 291.681 276.571 291.964C276.748 292.571 276.893 293.186 277.006 293.807C277.103 294.382 277.192 294.976 277.245 295.578C277.259 296.247 277.31 296.916 277.395 297.58C277.395 297.678 277.253 297.685 277.272 297.58C277.315 296.956 277.27 296.33 277.138 295.72C277.05 295.083 276.926 294.444 276.784 293.815C276.643 293.188 276.491 292.683 276.324 292.124C276.244 291.85 276.155 291.566 276.058 291.292C275.961 291.017 275.934 290.991 275.881 290.84C275.145 291.992 274.419 293.143 273.702 294.312C272.284 296.623 270.876 298.934 269.45 301.247C269.443 301.275 269.425 301.301 269.4 301.317C269.372 301.333 269.342 301.338 269.312 301.331C269.283 301.323 269.258 301.306 269.242 301.279C269.226 301.253 269.221 301.223 269.229 301.193Z" fill="#263238"/>
<path d="M307.325 332.908C307.387 330.57 307.76 328.205 308.016 325.884C308.272 323.564 308.531 321.208 308.777 318.87C309.265 314.363 309.531 309.756 310.549 305.338C311.334 301.494 313.249 297.972 316.049 295.225C317.504 293.772 319.41 292.863 321.453 292.646C323.506 292.59 325.521 293.213 327.184 294.419C329.075 295.817 330.706 297.537 332.003 299.501C333.403 301.443 334.661 303.481 335.767 305.603C335.767 305.684 335.679 305.736 335.635 305.657C333.55 302.113 330.786 299.017 327.503 296.543C326.04 295.342 324.256 294.6 322.375 294.409C321.456 294.393 320.543 294.56 319.689 294.901C318.837 295.241 318.06 295.749 317.405 296.394C314.678 298.767 313.091 302.256 312.153 305.684C311.036 309.739 310.683 314.017 310.123 318.179C309.787 320.651 309.478 323.13 309.15 325.61C308.822 328.09 308.618 330.596 308.096 333.023C308.059 333.101 307.997 333.166 307.919 333.206C307.842 333.247 307.755 333.263 307.669 333.251C307.581 333.236 307.501 333.196 307.441 333.134C307.379 333.074 307.337 332.994 307.325 332.908Z" fill="#263238"/>
<path d="M318.84 314.734C319.562 315.713 320.417 316.588 321.383 317.33C321.002 315.054 320.497 310.988 321.684 308.836C323.455 305.48 325.599 307.154 324.527 310.067C323.46 312.698 322.877 315.5 322.808 318.338C325.244 319.862 327.852 321.093 330.577 322.006C330.289 320.692 330.203 319.341 330.319 318.002C330.682 314.415 333.428 314.46 332.712 318.215C332.446 319.657 332.321 321.122 332.339 322.591C336.302 323.812 340.353 324.726 344.457 325.327C346.55 322.608 348.238 319.601 349.47 316.4C346.546 315.673 340.613 315.514 340.762 313.415C340.931 310.607 346.653 312.768 350.01 314.805C350.774 312.362 351.117 309.807 351.02 307.251C348.391 306.52 345.693 306.074 342.969 305.923C336.954 305.4 337.247 301.99 341.605 302.07C344.82 302.132 348.885 304.098 350.816 305.125C349.559 296.942 343.322 291.708 338.319 291.504C329.913 291.168 332.941 301.627 332.941 301.627C332.941 301.627 327.237 297.623 321.86 297.73C316.484 297.837 313.091 306.737 318.84 314.734ZM341.295 299.608C341.108 298.429 344.837 298.147 345.059 299.66C345.28 301.352 341.481 300.804 341.295 299.608ZM347.335 311.883C347.255 311.112 348.877 310.997 349.24 311.945C349.487 312.627 347.397 312.627 347.335 311.883ZM327.175 312.627C328.442 312.803 329.169 317.338 326.98 317.25C325.288 317.151 326.067 312.45 327.175 312.627Z" fill="#FFC727"/>
<path d="M328.893 317.631C329.107 317.064 329.292 316.497 329.47 315.92C329.311 316.497 329.159 317.081 329.053 317.693C329.049 317.703 329.043 317.712 329.035 317.72C329.027 317.728 329.018 317.734 329.008 317.739C328.997 317.744 328.986 317.747 328.975 317.747C328.963 317.747 328.952 317.746 328.943 317.741C328.932 317.738 328.922 317.731 328.914 317.723C328.906 317.715 328.9 317.706 328.895 317.696C328.89 317.685 328.889 317.674 328.889 317.663C328.887 317.652 328.89 317.641 328.893 317.631Z" fill="#263238"/>
<path d="M331.117 310.351C331.507 309.19 331.95 308.04 332.401 306.896C332.64 306.294 332.898 305.684 333.162 305.125C333.35 304.593 333.599 304.085 333.906 303.61C333.65 303.136 333.422 302.645 333.225 302.14C333.225 302.097 333.269 302.053 333.304 302.097C333.927 302.892 334.475 303.743 334.943 304.638C335.182 305.028 335.404 305.436 335.625 305.834C336.103 305.875 336.576 305.95 337.043 306.055C337.548 306.144 338.053 306.25 338.548 306.366C339.045 306.481 339.549 306.587 340.046 306.711C340.541 306.834 341.038 306.993 341.543 307.065C341.658 307.065 341.605 307.269 341.498 307.224C340.985 307.044 340.458 306.907 339.921 306.817C339.443 306.711 338.956 306.622 338.469 306.56C337.981 306.498 337.494 306.428 336.998 306.374L335.891 306.286C336.086 306.64 336.299 306.985 336.493 307.339C336.519 307.4 336.549 307.46 336.583 307.517C336.989 307.511 337.393 307.559 337.787 307.659C338.22 307.739 338.672 307.818 339.088 307.916C339.974 308.11 340.86 308.314 341.702 308.553C343.526 309.067 345.315 309.642 347.114 310.227C347.211 310.227 347.114 310.413 347.051 310.378C345.266 309.781 343.451 309.279 341.613 308.871C340.727 308.677 339.894 308.483 339.036 308.304L337.734 308.03C337.395 307.976 337.06 307.898 336.732 307.799C337.618 309.51 338.504 311.254 339.327 313.025C341.1 316.878 342.543 320.855 344.041 324.813C344.041 324.91 343.924 324.972 343.889 324.875C342.445 320.942 340.77 317.098 338.876 313.361C338.54 312.679 338.195 312.007 337.857 311.316C337.857 311.458 337.796 311.599 337.769 311.741C337.68 312.202 337.6 312.671 337.521 313.14C337.362 314.079 337.202 315.017 337.06 315.957C336.661 317.881 336.434 319.837 336.387 321.802C336.387 321.925 336.202 321.917 336.219 321.802C336.369 320.872 336.369 319.897 336.431 318.959C336.493 318.02 336.565 316.984 336.68 316.01C336.794 315.035 336.909 314.124 337.07 313.184C337.15 312.716 337.229 312.246 337.317 311.776C337.339 311.424 337.425 311.079 337.575 310.759C337.087 309.774 336.6 308.784 336.095 307.799C335.59 306.817 335.155 305.949 334.677 305.038C334.473 304.647 334.252 304.257 334.04 303.859C333.886 304.343 333.699 304.816 333.483 305.276L332.836 306.871C332.348 308.04 331.906 309.226 331.453 310.413C330.816 312.095 330.117 313.813 329.593 315.567C330.107 313.796 330.54 312.042 331.117 310.351Z" fill="#263238"/>
<path d="M329.47 315.92C329.47 315.779 329.55 315.646 329.594 315.514C329.55 315.646 329.513 315.779 329.47 315.92Z" fill="#263238"/>
<path d="M293.268 328.355L293.861 340.869L295.376 373.124H328.664L330.187 340.869L330.771 328.355H293.268Z" fill="#37474F"/>
<path d="M293.268 328.355L293.861 340.869H330.187L330.771 328.355H293.268Z" fill="#263238"/>
<path d="M290.895 333.411H333.137V323.29H290.895V333.411Z" fill="#37474F"/>
<path d="M325.97 373.124H320.124V378.42H325.97V373.124Z" fill="#37474F"/>
<path d="M325.97 373.124H320.124V375.771H325.97V373.124Z" fill="#263238"/>
<path d="M303.916 373.124H298.078V378.42H303.916V373.124Z" fill="#37474F"/>
<path d="M303.916 373.124H298.078V375.771H303.916V373.124Z" fill="#263238"/>
<path d="M0 378.552L46.361 378.34L92.722 378.261L185.452 378.109L278.183 378.261L324.545 378.34L370.906 378.552L324.545 378.774L278.183 378.845L185.452 378.995L92.722 378.845L46.361 378.774L0 378.552Z" fill="#263238"/>
<path d="M185.656 263.111C184.683 263.111 183.663 263.111 182.645 263.049V262.385C183.673 262.429 184.708 262.447 185.691 262.447H186.171V263.111H185.631H185.656ZM190.644 262.952L190.599 262.288C191.778 262.208 192.955 262.101 194.142 261.959L194.221 262.624C193.027 262.757 191.83 262.872 190.644 262.952ZM178.242 262.765C177.091 262.66 175.896 262.536 174.7 262.385L174.779 261.721C175.966 261.872 177.145 262.004 178.322 262.101L178.242 262.765ZM198.615 261.934L198.483 261.287C199.642 261.056 200.794 260.8 201.919 260.507L202.087 261.154C200.928 261.447 199.759 261.713 198.589 261.934H198.615ZM170.271 261.721C169.11 261.517 167.933 261.295 166.781 261.056L166.913 260.41C168.065 260.649 169.234 260.87 170.386 261.066L170.271 261.721ZM162.423 260.064C161.263 259.781 160.111 259.472 158.986 259.179L159.163 258.542C160.279 258.86 161.43 259.171 162.582 259.427L162.423 260.064ZM206.294 259.852L206.073 259.223C207.19 258.833 208.287 258.4 209.351 257.939L209.616 258.542C208.571 259.011 207.456 259.489 206.322 259.852H206.294ZM154.734 257.833C152.617 257.134 151.386 256.629 151.368 256.629L151.625 256.009C151.625 256.009 152.848 256.504 154.947 257.204L154.734 257.833ZM213.611 256.567L213.283 255.982C214.302 255.415 215.312 254.795 216.286 254.149L216.649 254.706C215.693 255.362 214.683 255.947 213.638 256.567H213.611ZM220.255 252.094L219.847 251.572C220.786 250.846 221.708 250.102 222.584 249.348L223.017 249.853C222.159 250.632 221.228 251.368 220.281 252.094H220.255ZM226.296 246.851L225.835 246.373C226.667 245.55 227.492 244.699 228.279 243.839L228.766 244.292C227.97 245.16 227.172 246.018 226.323 246.851H226.296ZM231.654 240.899L231.132 240.493C231.866 239.607 232.575 238.615 233.239 237.667L233.789 238.048C233.134 239.013 232.398 240.006 231.681 240.891L231.654 240.899ZM236.207 234.32L235.64 233.974C236.252 232.964 236.827 231.929 237.367 230.902L237.951 231.211C237.438 232.247 236.827 233.292 236.234 234.32H236.207ZM239.866 227.191L239.262 226.925C239.715 225.87 240.148 224.763 240.565 223.656L241.195 223.887C240.804 225.012 240.369 226.119 239.892 227.191H239.866ZM242.568 219.654L241.929 219.468C242.257 218.351 242.549 217.2 242.815 216.058L243.461 216.209C243.222 217.36 242.921 218.52 242.593 219.636L242.568 219.654ZM244.285 211.834L243.63 211.727C243.807 210.575 243.949 209.398 244.064 208.237L244.72 208.299C244.64 209.478 244.489 210.665 244.312 211.834H244.285ZM244.994 203.862H244.33C244.33 203.349 244.33 202.835 244.33 202.322C244.33 201.658 244.33 200.994 244.33 200.338H244.994C244.994 201.002 244.994 201.666 244.994 202.34C245.038 202.809 245.029 203.332 245.021 203.854L244.994 203.862ZM248.333 203.093C247.855 203.093 247.385 203.093 246.907 203.093V202.429C248.073 202.494 249.241 202.494 250.407 202.429L250.45 203.093C249.803 203.056 249.077 203.083 248.342 203.083L248.333 203.093ZM242.469 202.561C241.295 202.348 240.134 202.074 238.988 201.738L239.175 201.099C240.296 201.429 241.435 201.698 242.585 201.905L242.469 202.561ZM254.915 202.41L254.781 201.763C255.926 201.535 257.056 201.239 258.166 200.877L258.368 201.507C257.245 201.871 256.1 202.169 254.942 202.402L254.915 202.41ZM234.826 200.151C233.738 199.661 232.679 199.108 231.654 198.496L231.99 197.929C232.996 198.523 234.034 199.062 235.1 199.541L234.826 200.151ZM262.523 199.735L262.231 199.143C263.273 198.609 264.285 198.017 265.261 197.37L265.624 197.92C264.622 198.59 263.585 199.202 262.515 199.753L262.523 199.735ZM227.978 195.954C227.393 195.485 226.809 194.98 226.251 194.457C225.932 194.156 225.622 193.855 225.365 193.572L225.835 193.102C226.127 193.403 226.428 193.696 226.721 193.987C227.269 194.502 227.836 194.989 228.413 195.457L227.978 195.954ZM244.046 195.9C243.914 194.723 243.745 193.554 243.551 192.42L244.205 192.306C244.409 193.457 244.578 194.644 244.702 195.848L244.046 195.9ZM269.184 195.219L268.742 194.723C269.619 193.949 270.454 193.127 271.239 192.261L271.727 192.713C270.924 193.6 270.072 194.443 269.175 195.236L269.184 195.219ZM222.514 190.057C221.85 189.06 221.303 187.989 220.883 186.868L221.504 186.647C221.902 187.73 222.418 188.767 223.044 189.736L222.514 190.057ZM274.516 189.169L273.967 188.789C274.471 188.082 274.951 187.328 275.402 186.575C275.553 186.328 275.703 186.08 275.845 185.823L276.421 186.15C276.27 186.408 276.128 186.664 275.978 186.913C275.509 187.754 275.013 188.505 274.508 189.232L274.516 189.169ZM242.628 188.082C242.31 186.913 241.956 185.787 241.566 184.734L242.195 184.503C242.585 185.575 242.948 186.717 243.267 187.903L242.628 188.082ZM220.821 182.439H220.156C220.198 181.22 220.462 180.021 220.937 178.896L221.547 179.154C221.112 180.198 220.865 181.309 220.821 182.439ZM278.397 182.262L277.794 182.005C278.237 180.961 278.68 179.854 279.061 178.729L279.69 178.941C279.282 180.048 278.847 181.164 278.387 182.217L278.397 182.262ZM239.75 180.846C239.203 179.823 238.563 178.853 237.837 177.949L238.351 177.524C239.103 178.462 239.767 179.467 240.334 180.526L239.75 180.846ZM224.099 175.752L223.691 175.24C224.649 174.467 225.751 173.895 226.933 173.556L227.11 174.195C226.014 174.496 224.988 175.01 224.089 175.708L224.099 175.752ZM234.55 175.205C233.553 174.641 232.47 174.243 231.344 174.026L231.468 173.371C232.664 173.607 233.816 174.031 234.879 174.628L234.55 175.205ZM280.982 174.681L280.335 174.513C280.619 173.459 280.894 172.335 281.178 171.086L281.825 171.228C281.531 172.449 281.258 173.583 280.974 174.638L280.982 174.681ZM282.755 166.887L282.099 166.755L282.78 163.283L283.427 163.407L282.755 166.887ZM284.33 159.085L283.684 158.935C283.967 157.66 284.251 156.526 284.569 155.481L285.208 155.658C284.862 156.65 284.579 157.775 284.295 159.041L284.33 159.085ZM286.545 151.478L285.925 151.248C286.322 150.105 286.785 148.987 287.316 147.9L287.91 148.201C287.384 149.255 286.917 150.337 286.509 151.442L286.545 151.478ZM290.239 144.561L289.699 144.162C290.406 143.202 291.178 142.29 292.01 141.435L292.48 141.895C291.663 142.717 290.903 143.593 290.204 144.517L290.239 144.561ZM295.774 139.044L295.376 138.503C296.341 137.803 297.343 137.156 298.379 136.564L298.707 137.148C297.679 137.719 296.688 138.352 295.739 139.044H295.774ZM302.64 135.227L302.374 134.615C303.304 134.226 304.287 133.854 305.306 133.509L305.518 134.137C304.481 134.43 303.516 134.793 302.605 135.182L302.64 135.227Z" fill="#263238"/>
<path d="M303.446 119.949L296.669 138.565L310.904 127.451L365.307 107.728L303.446 119.949Z" fill="#FFC727"/>
<path opacity="0.1" d="M303.446 119.949L296.669 138.565L310.904 127.451L365.307 107.728L303.446 119.949Z" fill="black"/>
<path d="M312.728 131.79L296.669 138.565L310.904 127.451L312.728 131.79Z" fill="#263238"/>
<path d="M310.904 127.451L365.307 107.728L320.683 151.265L310.904 127.451Z" fill="#FFC727"/>
<path d="M303.446 119.949L280.84 105.354L365.307 107.728L303.446 119.949Z" fill="#FFC727"/>
<path d="M37.9019 378.41L185.452 379.049C221.318 350.895 225.02 309.172 199.43 283.888C183.956 268.585 164.291 271.667 145.593 269.23H145.54C139.021 268.345 132.626 266.867 126.549 263.66C107.266 253.493 96.4334 229.502 80.1795 209.319C78.16 206.794 76.0431 204.332 73.8285 201.959C60.4889 187.718 33.9692 187.257 20.0538 207.272C-15.2529 258.134 0.90351 333.881 37.9019 378.41Z" fill="#FFC727"/>
<path opacity="0.1" d="M34.6245 262.013C38.4865 322.546 108.409 345.139 152.068 327.009C190.041 311.236 177.613 275.254 145.593 269.23H145.54C139.021 268.345 132.626 266.866 126.549 263.66C107.266 253.493 96.4332 229.502 80.1795 209.319C55.9893 196.76 31.7902 217.696 34.6245 262.013Z" fill="black"/>
<path d="M173.538 387.904C171.262 387.073 119.835 345.98 118.87 343.172C118.498 342.109 124.043 334.316 131.014 324.989C132.519 322.989 134.087 320.925 135.69 318.843C146.08 305.302 157.427 291.186 157.427 291.186L191.91 318.569L169.226 345.483L164.248 351.39C164.248 351.39 176.896 375.93 177.631 379.119C178.367 382.308 175.816 388.79 173.538 387.904Z" fill="#D3766A"/>
<path d="M173.538 387.905C171.262 387.019 119.844 345.98 118.87 343.172C118.56 342.286 122.174 336.973 127.293 330.003C134.769 338.938 160.838 365.543 167.958 369.103C172.476 371.361 171.582 366.924 169.891 362.514C173.362 369.448 177.233 377.393 177.631 379.111C178.367 382.343 175.816 388.79 173.538 387.905Z" fill="#263238"/>
<path d="M226.729 265.946C224.373 283.853 180.227 335.555 175.125 341.49L173.938 342.836L137.444 314.778L137.861 314.238L170.023 272.135C170.023 272.135 116.877 303.133 90.2419 289.078C78.2751 282.754 69.4175 271.516 69.4175 271.516L104.14 253.007C104.14 253.007 113.75 256.114 119.888 255.221C141.058 252.121 188.492 234.116 199.749 234.568C214.285 235.16 228.9 249.508 226.729 265.946Z" fill="#37474F"/>
<path d="M181.573 256.487C180.377 257.833 179.268 259.252 178.252 260.738C177.118 262.235 175.957 263.705 174.824 265.165V265.21C175.028 264.767 175.222 264.324 175.434 263.899C176.153 262.412 176.728 260.879 177.57 259.471C177.575 259.454 177.573 259.436 177.567 259.419C177.562 259.403 177.55 259.389 177.534 259.379C177.519 259.37 177.502 259.366 177.483 259.368C177.465 259.371 177.449 259.379 177.436 259.392C176.551 260.8 175.558 262.138 174.779 263.616C174.426 264.315 174.098 265.024 173.787 265.742C173.62 266.131 173.441 266.53 173.292 266.929C173.209 267.115 173.137 267.308 173.078 267.504C172.573 268.195 172.068 268.886 171.582 269.593C170.501 271.162 169.545 272.817 168.446 274.376C168.384 274.456 168.517 274.535 168.58 274.456C169.687 272.995 170.936 271.63 172.06 270.178C173.185 268.727 174.302 267.185 175.372 265.653C176.444 264.121 177.446 262.651 178.499 261.153C179.646 259.682 180.702 258.14 181.661 256.539C181.688 256.504 181.618 256.442 181.573 256.487Z" fill="#263238"/>
<path d="M63.6511 204.837C63.164 215.518 60.7902 228.262 65.3164 238.376C68.8595 246.294 76.3441 251.659 84.0681 255.061C101.075 262.581 124.875 263.563 136.789 246.682C141.545 239.943 142.36 225.897 134.468 220.761C130.42 218.104 125.611 217.52 121.022 216.279C118.166 215.615 115.496 214.314 113.212 212.474C110.929 210.633 109.09 208.301 107.833 205.652C102.368 194.696 103.457 186.682 102.421 174.832C102.398 173.655 102.129 172.495 101.632 171.427C101.135 170.36 100.42 169.407 99.5335 168.633C97.5869 166.717 95.1557 165.366 92.5006 164.726C90.2359 163.74 87.761 163.332 85.2993 163.54C80.0556 164.089 75.0156 168.924 70.9499 171.936C66.8842 174.947 64.9532 178.135 64.6343 183.334C64.2004 190.48 63.979 197.663 63.6511 204.837Z" fill="#263238"/>
<path d="M62.3314 209.894C63.412 200.151 64.6698 190.41 65.8744 180.667C65.8744 180.615 65.9719 180.615 65.963 180.667C65.2102 188.709 64.5636 196.76 63.7043 204.792C62.8185 212.674 61.4544 220.734 61.3039 228.643C60.9673 246.435 79.2672 253.671 94.396 252.803C95.087 252.803 95.0692 253.865 94.396 253.883C81.1096 254.228 65.2102 249.684 61.1887 235.222C58.9565 227.288 61.4455 217.865 62.3314 209.894Z" fill="#263238"/>
<path d="M101.562 173.894C101.562 173.707 101.845 173.715 101.854 173.894C102.297 183.635 101.854 195.148 107.47 203.641C110.215 207.839 114.168 211.106 118.808 213.011C122.484 214.508 126.381 214.64 130.216 215.393C145.274 218.343 145.39 238.623 134.468 246.532C134.238 246.701 133.945 246.311 134.167 246.134C141.855 240.013 144.389 228.882 138.126 220.716C133.095 214.162 123.44 216.288 116.584 212.746C102.377 205.377 101.305 188.099 101.562 173.894Z" fill="#263238"/>
<path d="M86.1849 216.386C92.6864 225.72 114.893 251.368 130.305 254.875C138.8 256.815 179.827 262.553 185.452 257.435C192.042 251.438 188.997 228.855 183.753 228.651C167.764 228.022 138.188 231.148 130.801 229.537C127.462 228.793 109.746 217.368 90.8263 208.229C83.6695 204.757 81.9865 210.364 86.1849 216.386Z" fill="#D3766A"/>
<path d="M102.058 238.757L108.258 215.916C108.258 215.916 97.8505 210.142 91.6413 207.759C83.4215 204.606 80.3212 206.874 85.3612 216.456C88.7448 222.842 102.058 238.757 102.058 238.757Z" fill="#EBEBEB"/>
<path d="M100.526 235.852C101.199 232.469 101.916 229.094 102.784 225.756C103.218 224.091 103.67 222.425 104.166 220.778C104.662 219.132 105.309 217.52 105.76 215.863C105.76 215.774 105.938 215.819 105.902 215.863C105.362 217.493 105.016 219.211 104.574 220.868C104.131 222.522 103.688 224.188 103.227 225.853C102.341 229.183 101.456 232.513 100.658 235.852C100.641 235.994 100.508 235.949 100.526 235.852Z" fill="#263238"/>
<path d="M107.293 219.512L102.058 238.765C102.058 238.765 88.7714 222.823 85.3702 216.456C83.82 213.508 83.0317 211.249 82.9431 209.637L107.293 219.512Z" fill="#263238"/>
<path d="M52.7652 279.602C54.8112 280.266 112.855 263.466 112.855 263.466L106 243.317C106 243.317 109.392 236.834 107.771 230.601C105.672 222.275 90.2507 208.583 89.0461 207.777C84.2275 204.58 79.6658 204.58 75.6179 206.75C58.8503 215.669 52.7652 279.602 52.7652 279.602Z" fill="#EBEBEB"/>
<path d="M97.0534 215.03C98.5503 216.801 100.154 218.431 101.695 220.132C100.977 218.865 100.26 217.59 99.4981 216.341C100.627 217.805 101.612 219.374 102.439 221.027C103.598 222.315 104.666 223.682 105.636 225.118C106.839 226.823 107.738 228.723 108.294 230.733C108.775 232.765 108.835 234.875 108.471 236.932C108.028 239.3 107.372 241.624 106.513 243.876C106.407 244.177 105.982 243.981 106.062 243.689C107.151 239.757 108.391 235.603 107.514 231.494C106.637 227.385 104.104 224.002 101.633 220.769C100.179 218.795 98.6019 216.913 96.9116 215.137C96.8763 215.057 96.9825 214.96 97.0534 215.03Z" fill="#263238"/>
<path d="M87.3808 241.864C89.8771 241.383 92.4054 241.089 94.9453 240.979C96.2031 240.979 97.4609 240.979 98.7187 241.041C99.3476 241.041 99.9765 241.041 100.605 241.041C101.263 241.062 101.92 241.003 102.563 240.864C102.616 240.864 102.643 240.936 102.563 240.953C101.983 241.148 101.391 241.304 100.791 241.421C100.205 241.514 99.6131 241.568 99.0197 241.582C97.7355 241.582 96.4598 241.582 95.1756 241.635C92.598 241.687 90.0116 241.742 87.4429 241.988C87.2835 242.086 87.2656 241.883 87.3808 241.864Z" fill="#263238"/>
<path d="M81.9689 245.709C83.9147 244.938 85.9017 244.275 87.9211 243.724C88.9398 243.45 89.9583 243.247 90.986 243.06L92.4739 242.821C93.0143 242.742 93.5723 242.732 94.1126 242.645C94.1746 242.645 94.2012 242.724 94.1126 242.732C93.5989 242.831 93.1028 243.016 92.6068 243.14L91.0833 243.521C90.0735 243.779 89.0637 244.052 88.0452 244.301C86.0167 244.796 83.9972 245.311 81.9865 245.876C81.9679 245.873 81.951 245.863 81.9383 245.849C81.9255 245.836 81.9176 245.817 81.9157 245.8C81.9136 245.781 81.9177 245.761 81.9273 245.746C81.9368 245.728 81.9513 245.715 81.9689 245.709Z" fill="#263238"/>
<path d="M79.2583 207.884C79.4886 208.938 84.4047 215.854 89.2055 215.659C90.7644 215.607 90.8529 207.068 90.8529 207.068L91.0036 206.439L93.1118 197.628L81.331 189.915C81.331 189.915 79.1609 207.431 79.2583 207.884Z" fill="#D3766A"/>
<path d="M93.1118 197.619L91.0036 206.476C88.6301 205.544 86.4784 204.127 84.6872 202.312C82.896 200.5 81.5051 198.329 80.6046 195.945C80.9678 192.907 81.2778 190.383 81.3221 190.012C81.324 189.994 81.324 189.975 81.3221 189.958L82.8192 190.843L93.1118 197.619Z" fill="#263238"/>
<path d="M104.529 181.394C108.453 196.805 99.6663 200.877 96.3447 201.765C93.3242 202.526 82.9608 204.748 77.4691 189.835C71.9773 174.921 77.9031 168.225 84.7057 166.109C91.5084 163.992 100.614 165.994 104.529 181.394Z" fill="#D3766A"/>
<path d="M101.571 179.481C101.199 179.481 100.844 179.481 100.473 179.481C100.083 179.524 99.6907 179.436 99.3563 179.234C99.2646 179.148 99.2036 179.035 99.1827 178.912C99.1618 178.788 99.1825 178.662 99.2412 178.551C99.386 178.35 99.5824 178.191 99.81 178.09C100.037 177.99 100.288 177.953 100.534 177.985C101.048 177.966 101.55 178.14 101.943 178.471C102.019 178.554 102.071 178.654 102.093 178.764C102.115 178.872 102.107 178.987 102.068 179.091C102.029 179.196 101.962 179.288 101.875 179.357C101.787 179.425 101.682 179.468 101.571 179.481Z" fill="#263238"/>
<path d="M91.2074 182.722C91.5706 182.607 91.8806 182.448 92.2259 182.306C92.6023 182.206 92.9373 181.989 93.1827 181.687C93.2389 181.575 93.257 181.448 93.2347 181.325C93.2124 181.201 93.1505 181.089 93.0586 181.005C92.851 180.866 92.61 180.785 92.3608 180.771C92.1117 180.758 91.8632 180.811 91.6413 180.925C91.1556 181.088 90.7481 181.426 90.4987 181.873C90.4453 181.978 90.424 182.096 90.437 182.212C90.4502 182.33 90.4976 182.44 90.5729 182.531C90.6483 182.622 90.7486 182.689 90.8614 182.722C90.9742 182.755 91.0944 182.755 91.2074 182.722Z" fill="#263238"/>
<path d="M93.8469 184.662C93.8469 184.662 93.776 184.724 93.7848 184.769C94.0417 185.823 94.148 187.072 93.2623 187.62C93.2623 187.62 93.2623 187.691 93.2623 187.674C94.4226 187.276 94.2189 185.619 93.8469 184.662Z" fill="#263238"/>
<path d="M92.6777 183.749C90.9062 183.971 91.5084 187.416 93.1205 187.214C94.7326 187.01 94.1303 183.565 92.6777 183.749Z" fill="#263238"/>
<path d="M92.0311 184.042C91.7565 184.281 91.5174 184.679 91.1453 184.777C90.7733 184.875 90.3569 184.574 90.0203 184.273C90.0203 184.273 89.9673 184.273 89.9673 184.326C90.0735 184.99 90.4367 185.619 91.1629 185.602C91.8893 185.583 92.1905 184.928 92.2436 184.237C92.2702 184.104 92.1373 183.945 92.0311 184.042Z" fill="#263238"/>
<path d="M99.9765 183.326C99.9765 183.326 100.065 183.369 100.074 183.413C100.207 184.485 100.543 185.689 101.562 185.893V185.955C100.357 185.928 99.9322 184.326 99.9765 183.326Z" fill="#263238"/>
<path d="M100.756 182.015C102.457 181.615 103.13 185.043 101.553 185.415C99.9765 185.786 99.3297 182.351 100.756 182.015Z" fill="#263238"/>
<path d="M101.518 182.102C101.819 182.227 102.155 182.51 102.483 182.466C102.811 182.421 103.068 181.988 103.236 181.58C103.236 181.58 103.289 181.58 103.298 181.58C103.44 182.227 103.36 182.953 102.758 183.201C102.155 183.448 101.668 182.953 101.385 182.316C101.305 182.254 101.394 182.05 101.518 182.102Z" fill="#263238"/>
<path d="M95.2729 194.139C95.5565 194.368 95.8399 194.688 96.2384 194.688C96.6392 194.644 97.0258 194.513 97.3723 194.307C97.3723 194.307 97.443 194.307 97.4253 194.36C97.2898 194.586 97.0956 194.771 96.8632 194.897C96.6308 195.021 96.369 195.08 96.1056 195.069C95.8878 195.023 95.6879 194.916 95.5305 194.758C95.3731 194.601 95.2651 194.4 95.2199 194.183C95.149 194.129 95.2286 194.104 95.2729 194.139Z" fill="#263238"/>
<path d="M99.2058 189.25C99.4334 190.013 99.6226 190.787 99.7727 191.569C99.7727 191.641 99.6043 191.703 99.3563 191.756C98.7271 191.969 98.051 192.006 97.4025 191.861C96.754 191.716 96.1581 191.394 95.6804 190.932C95.6673 190.918 95.6595 190.901 95.6587 190.881C95.6578 190.862 95.6638 190.843 95.6756 190.829C95.6874 190.813 95.7043 190.803 95.7231 190.8C95.7417 190.795 95.7613 190.799 95.7779 190.808C96.835 191.326 98.0324 191.485 99.1881 191.26C99.1881 191.047 98.3022 188.604 98.4351 188.604C99.0293 188.575 99.6246 188.623 100.207 188.746C99.3209 185.45 97.9657 182.324 97.1596 179.003C97.1575 178.981 97.1626 178.958 97.1741 178.939C97.1856 178.92 97.2029 178.904 97.2236 178.895C97.2442 178.887 97.2673 178.885 97.2891 178.89C97.3111 178.895 97.3309 178.906 97.3457 178.923C98.9315 182.225 100.181 185.68 101.075 189.231C101.163 189.674 99.5334 189.338 99.2058 189.25Z" fill="#263238"/>
<path d="M99.2767 191.464C98.9715 192.164 98.4928 192.772 97.886 193.236C97.5489 193.479 97.1423 193.61 96.7257 193.607C95.8399 193.607 95.6008 192.818 95.5918 192.111C95.591 191.735 95.6326 191.361 95.7159 190.995C96.8227 191.525 98.07 191.689 99.2767 191.464Z" fill="#263238"/>
<path d="M97.886 193.226C97.549 193.471 97.1423 193.602 96.7257 193.599C95.8399 193.599 95.6008 192.81 95.5919 192.102C96.0449 192.006 96.517 192.065 96.9328 192.269C97.3487 192.473 97.6842 192.809 97.886 193.226Z" fill="#FF9CBD"/>
<path d="M78.5674 190.95C80.2327 190.401 83.3772 184.592 81.3311 176.417C81.3311 176.417 82.6597 183.883 82.394 185.097C82.1282 186.309 84.1656 181.837 82.5978 175.222C85.0581 176.147 87.6381 176.716 90.2596 176.914C93.59 176.914 95.4856 176.417 95.6451 176.133C95.8045 175.85 90.8619 175.628 89.2498 174.54C89.2498 174.54 98.5149 176.16 102.395 175.426C102.846 175.346 100.951 166.171 94.0507 163.912C87.1506 161.654 78.9483 168.278 77.0971 171.369C77.0971 171.369 74.2626 172.573 72.2343 177.772C70.2058 182.971 76.7871 191.544 78.5674 190.95Z" fill="#263238"/>
<path d="M80.215 190.358C80.215 190.358 75.9899 186.025 74.0146 187.612C72.0393 189.196 75.7329 195.865 78.4965 196.405C78.8463 196.504 79.2127 196.531 79.5731 196.482C79.9334 196.434 80.2798 196.313 80.5911 196.125C80.9025 195.937 81.1721 195.687 81.3831 195.392C81.5942 195.096 81.7422 194.76 81.8182 194.405L80.215 190.358Z" fill="#D3766A"/>
<path d="M75.0863 189.525C75.042 189.525 75.042 189.587 75.0863 189.595C77.035 190.03 78.2751 191.57 79.2406 193.218C79.1009 193.054 78.9276 192.923 78.7328 192.834C78.5378 192.745 78.3258 192.699 78.1112 192.699C77.8968 192.699 77.6847 192.745 77.4898 192.834C77.2948 192.923 77.1216 193.054 76.9819 193.218C76.9376 193.218 76.9819 193.323 77.0528 193.306C77.3566 193.15 77.7018 193.092 78.0401 193.14C78.3785 193.189 78.6929 193.344 78.9394 193.581C79.3524 193.959 79.7236 194.381 80.0466 194.838C80.1618 194.989 80.4364 194.838 80.3479 194.671C79.9757 192.288 77.6285 189.321 75.0863 189.525Z" fill="#263238"/>
<path d="M67.327 220.947C62.659 247.418 67.1765 267.247 71.6674 269.709C83.7758 276.316 112.855 262.907 121.058 260.242C124.335 259.17 109.277 233.805 105.876 235.382C97.9037 239.066 86.7342 245.319 86.2824 245.266C85.3967 245.177 84.3338 238.419 79.71 218.696C75.9632 202.809 69.2403 210.125 67.327 220.947Z" fill="#D3766A"/>
<path d="M147.489 222.833C148.321 226.163 139.942 227.509 139.942 227.509C141.335 228.009 142.51 228.981 143.264 230.255C144.486 232.556 141.404 235.471 141.404 235.471C142.74 236.288 143.798 237.489 144.442 238.916C145.39 241.237 142.67 244.628 142.67 244.628C143.483 246.056 143.753 247.729 143.432 249.34C142.405 253.609 135.859 255.291 132.015 257.134C127.896 259.108 121.075 259.835 117.984 261.225L104.582 236.675C104.582 236.675 117.532 222.965 124.955 220.84C129.056 219.636 146.222 217.749 147.489 222.833Z" fill="#D3766A"/>
<path d="M139.854 227.437C135.195 227.235 130.491 228.146 125.965 229.076C125.949 229.083 125.936 229.092 125.926 229.105C125.916 229.119 125.911 229.135 125.911 229.151C125.911 229.169 125.916 229.185 125.926 229.197C125.936 229.212 125.949 229.221 125.965 229.228C130.456 228.253 135.318 228.457 139.836 227.659C139.861 227.654 139.883 227.643 139.9 227.624C139.917 227.605 139.927 227.581 139.929 227.555C139.931 227.53 139.925 227.506 139.911 227.484C139.898 227.463 139.877 227.447 139.854 227.437Z" fill="#263238"/>
<path d="M141.164 235.17C140.102 235.224 139.051 235.418 138.038 235.745C136.948 236.028 135.868 236.329 134.778 236.63C132.617 237.269 130.465 237.951 128.339 238.695C128.241 238.695 128.268 238.881 128.339 238.854C130.491 238.225 132.661 237.632 134.849 237.083C135.938 236.807 137.037 236.551 138.126 236.294C139.18 236.113 140.211 235.815 141.2 235.409C141.215 235.391 141.226 235.371 141.232 235.348C141.239 235.328 141.24 235.304 141.237 235.281C141.234 235.258 141.225 235.237 141.213 235.218C141.2 235.199 141.184 235.181 141.164 235.17Z" fill="#263238"/>
<path d="M142.617 244.655C141.655 244.715 140.711 244.943 139.827 245.328L136.877 246.214C134.911 246.816 132.945 247.408 130.96 247.94C130.863 247.94 130.89 248.127 130.96 248.1C132.98 247.568 135.008 247.072 137.028 246.523C138.011 246.258 139.003 245.983 139.986 245.699C140.925 245.542 141.826 245.21 142.644 244.726C142.647 244.72 142.648 244.712 142.649 244.706C142.649 244.698 142.648 244.691 142.645 244.685C142.643 244.678 142.639 244.672 142.634 244.667C142.629 244.661 142.624 244.658 142.617 244.655Z" fill="#263238"/>
<path d="M86.2471 245.266C89.418 243.441 92.6334 241.724 95.8575 239.951L100.738 237.419L103.192 236.188C104.026 235.753 104.887 235.372 105.769 235.046L105.61 235.135C107.771 233.036 109.941 230.954 112.235 228.997C113.369 228.014 114.521 227.039 115.716 226.127C116.895 225.184 118.151 224.343 119.472 223.612C118.227 224.442 117.044 225.359 115.929 226.358C114.795 227.332 113.67 228.323 112.572 229.35C110.393 231.407 108.205 233.461 106.097 235.551L106.044 235.595L105.938 235.638C105.185 235.914 104.317 236.365 103.511 236.737L101.039 237.941L96.1411 240.394C92.8637 242.068 89.5952 243.707 86.2471 245.266Z" fill="#263238"/>
<path d="M62.8274 243.973L83.9884 233.345C83.9884 233.345 81.331 221.744 78.966 215.527C75.8304 207.307 72.0482 206.546 68.3368 216.66C65.8035 223.435 62.8274 243.973 62.8274 243.973Z" fill="#EBEBEB"/>
<path d="M63.97 240.891C66.9374 239.12 69.9312 237.419 72.996 235.842C74.5283 235.054 76.0784 234.284 77.6285 233.541C79.1786 232.797 80.8173 232.22 82.3585 231.459C82.4383 231.459 82.5003 231.556 82.4117 231.591C80.8439 232.265 79.3381 233.168 77.8057 233.939C76.2734 234.71 74.7233 235.479 73.1909 236.267C70.1262 237.835 67.0525 239.394 64.0232 241.033C63.9434 241.068 63.8904 240.936 63.97 240.891Z" fill="#263238"/>
<path d="M65.3607 242.662C64.5457 243.157 63.722 243.618 62.907 244.087L62.6149 244.256L62.6592 243.911C62.9779 240.978 63.3943 238.075 63.9081 235.178C64.4218 232.282 65.0152 229.395 65.8035 226.561C65.6264 228.022 65.4316 229.474 65.2101 230.927C64.9887 232.379 64.785 233.832 64.5457 235.285C64.0852 238.18 63.5625 241.077 62.9958 243.963L62.7478 243.778C63.6158 243.441 64.475 243.052 65.3607 242.662Z" fill="#263238"/>
<path d="M64.6432 229.511C64.6831 230.19 64.6831 230.87 64.6432 231.548C64.6227 232.227 64.5666 232.904 64.475 233.576C64.3625 232.22 64.4041 230.857 64.5989 229.511H64.6432Z" fill="#263238"/>
<path d="M81.4107 234.691C82.2258 234.197 83.0655 233.745 83.9263 233.337C83.5809 231.972 83.2178 230.626 82.8899 229.263C82.7217 228.581 82.5712 227.899 82.4294 227.216C82.2876 226.534 82.0485 225.604 81.9068 224.94C81.9068 224.835 82.0219 224.798 82.0485 224.897C82.3232 225.783 82.4914 226.393 82.7217 227.129C82.9521 227.863 83.1115 228.457 83.2886 229.121C83.6518 230.529 84.1034 232.017 84.4047 233.442C83.4503 233.953 82.4619 234.398 81.4462 234.772C81.436 234.774 81.4254 234.772 81.4161 234.769C81.4067 234.764 81.3992 234.756 81.3951 234.746C81.3908 234.737 81.39 234.726 81.3929 234.716C81.3959 234.707 81.4021 234.697 81.4107 234.691Z" fill="#263238"/>
<path d="M83.1026 225.835C83.2443 226.67 83.2443 227.523 83.1026 228.36C82.9492 227.525 82.9492 226.67 83.1026 225.835Z" fill="#263238"/>
<path d="M166.311 258.949H104.715V261.713H166.311V258.949Z" fill="#C7C7C7"/>
<path d="M117.895 258.949L115.787 261.713H166.311V258.949H117.895Z" fill="#A6A6A6"/>
<path d="M120.535 261.703H180.563L185.559 220.947H125.531L120.535 261.703Z" fill="#C7C7C7"/>
<path d="M149.393 241.324C149.378 241.804 149.459 242.28 149.633 242.726C149.807 243.172 150.069 243.578 150.405 243.92C150.74 244.263 151.141 244.532 151.584 244.715C152.027 244.898 152.502 244.989 152.981 244.983C153.955 244.978 154.89 244.592 155.585 243.909C156.28 243.226 156.68 242.299 156.701 241.324C156.715 240.851 156.634 240.378 156.462 239.937C156.291 239.494 156.032 239.091 155.701 238.75C155.371 238.411 154.976 238.14 154.539 237.956C154.102 237.771 153.632 237.675 153.158 237.675C152.176 237.666 151.231 238.045 150.526 238.726C149.821 239.41 149.414 240.343 149.393 241.324Z" fill="white"/>
<path d="M185.071 224.887C187.33 228.377 192.92 232.459 193.691 235.453C193.908 236.185 193.884 236.967 193.619 237.683C193.356 238.4 192.869 239.013 192.229 239.429C192.229 239.429 195.462 240.545 195.709 243.379C195.843 244.831 193.619 246.319 193.619 246.319C193.619 246.319 196.179 247.321 196.276 249.863C196.331 251.881 194.097 253.069 194.097 253.069C194.097 253.069 196.1 255.176 195.497 257.248C194.266 261.454 177.083 263.723 173.593 257.743C171.963 254.963 176.197 254.636 176.197 254.636C176.197 254.636 169.996 253.634 169.438 250.102C168.881 246.567 174.399 246.48 174.399 246.48C174.399 246.48 168.411 245.46 168.197 241.742C167.976 237.871 173.513 238.73 173.513 238.73C173.513 238.73 169.349 236.64 169.846 233.752C170.652 228.997 180.474 234.054 184.116 232.663L185.071 224.887Z" fill="#D3766A"/>
<path d="M193.744 253.29C193.755 253.29 193.766 253.293 193.775 253.303C193.783 253.311 193.788 253.322 193.788 253.333C193.788 253.346 193.783 253.357 193.775 253.365C193.766 253.373 193.755 253.378 193.744 253.378C188.065 255.606 181.843 256.054 175.904 254.662C175.718 254.609 175.71 254.29 175.904 254.298C181.868 254.834 187.878 254.493 193.744 253.29Z" fill="#263238"/>
<path d="M193.709 246.346C193.779 246.346 193.796 246.435 193.709 246.461C188.057 248.622 180.536 249.119 174.16 246.657C173.938 246.568 173.832 246.276 174.088 246.356C178.481 247.692 188.234 247.55 193.709 246.346Z" fill="#263238"/>
<path d="M173.053 238.384C179.252 240.545 185.541 240.501 191.98 239.528C192.06 239.528 192.069 239.633 191.98 239.668C188.96 240.998 184.788 241.192 181.529 241.068C178.504 241.012 175.547 240.163 172.954 238.605C172.893 238.543 172.936 238.339 173.053 238.384Z" fill="#263238"/>
<path d="M306.847 341.365C306.006 343.641 264.746 394.928 261.938 395.884C260.876 396.257 253.081 390.685 243.79 383.681C241.797 382.166 239.742 380.599 237.66 378.987C224.152 368.555 210.068 357.165 210.068 357.165L237.528 322.785L264.366 345.545L270.257 350.539C270.257 350.539 294.836 337.973 298.033 337.256C301.232 336.538 307.688 339.097 306.847 341.365Z" fill="#D3766A"/>
<path d="M306.856 341.373C305.971 343.641 264.747 394.928 261.938 395.893C261.009 396.222 254.915 391.996 247.2 386.248C255.074 380.519 284.96 353.604 288.972 346.316C291.08 342.48 287.997 342.507 284.225 343.57C290.425 340.532 296.58 337.592 298.078 337.247C301.267 336.538 307.688 339.097 306.856 341.373Z" fill="#263238"/>
<path d="M262.966 340.356L234.346 378.969L137.799 311.963L128.454 305.542C128.454 305.542 125.796 307.313 121.846 309.51C116.336 312.555 108.258 316.417 101.11 317.48C89.1169 319.251 69.0986 319.064 58.992 305.55C50.4797 294.178 55.1035 279.336 55.1035 279.336L68.2659 273.659C68.2659 273.659 99.4183 247.709 119.64 246.931C128.206 246.585 140.686 253.129 152.245 259.87C163.804 266.61 262.966 340.356 262.966 340.356Z" fill="#37474F"/>
<path d="M128.454 305.542C128.454 305.542 125.796 307.313 121.846 309.51C114.831 301.113 99.9765 285.855 99.5247 285.313L128.454 305.542Z" fill="#263238"/>
<path d="M79.6834 264.936C77.8233 266.228 76.0164 267.593 74.1829 268.929C72.3493 270.267 70.5069 271.463 68.7886 272.888C67.0702 274.314 65.3873 275.891 63.7397 277.45C62.9513 278.202 62.1631 278.963 61.3924 279.743C60.5819 280.494 59.8326 281.309 59.1515 282.179C59.0895 282.258 59.2134 282.355 59.2843 282.311C60.1598 281.687 60.994 281.006 61.7821 280.274C62.6679 279.54 63.5538 278.796 64.3863 278.06C66.0604 276.634 67.77 275.254 69.4351 273.827C71.1004 272.401 72.6328 270.861 74.2803 269.399C75.9279 267.938 77.8942 266.424 79.719 264.971C79.7543 264.971 79.719 264.909 79.6834 264.936Z" fill="#263238"/>
<path d="M256.251 338.973C254.392 340.975 252.709 343.137 250.937 345.253C249.166 347.37 247.474 349.512 245.755 351.648C242.327 355.942 238.864 360.203 235.49 364.543C233.639 366.924 231.806 369.324 230.087 371.796C230.007 371.911 230.184 372.035 230.273 371.938C233.966 367.871 237.359 363.541 240.769 359.264C244.18 354.986 247.616 350.708 250.999 346.325C252.842 343.951 254.746 341.587 256.438 339.098C256.482 339 256.313 338.886 256.251 338.973Z" fill="#263238"/>
<path d="M176.986 339.373C172.184 335.582 167.197 332.004 162.219 328.454C157.241 324.902 152.307 321.368 147.276 317.95C145.832 316.967 144.371 316.002 142.918 315.035C141.466 314.07 139.951 313.176 138.534 312.174C138.445 312.122 138.374 312.254 138.454 312.316C139.765 313.256 140.996 314.301 142.28 315.275C143.565 316.249 144.725 317.144 145.957 318.056C148.375 319.827 150.81 321.599 153.246 323.37C158.183 326.912 163.159 330.425 168.172 333.909C171.023 335.856 173.859 337.823 176.772 339.682C176.949 339.771 177.153 339.497 176.986 339.373Z" fill="#263238"/>
<path d="M207.871 299.528C203.443 295.852 198.677 292.541 194.018 289.139C189.36 285.739 184.629 282.223 179.899 278.813C175.17 275.403 170.528 272.03 165.833 268.646C161.289 265.361 156.763 262.021 151.962 259.108C149.305 257.522 146.647 256.044 143.875 254.681C141.19 253.305 138.393 252.161 135.513 251.261C135.493 251.253 135.471 251.253 135.451 251.261C135.431 251.269 135.415 251.285 135.407 251.306C135.399 251.326 135.399 251.349 135.407 251.368C135.415 251.389 135.431 251.404 135.451 251.412C137.825 252.731 140.305 253.838 142.706 255.114C145.106 256.39 147.4 257.7 149.694 259.091C154.46 261.986 158.96 265.29 163.477 268.513C172.866 275.262 182.238 282.045 191.698 288.706C197.012 292.425 202.167 296.357 207.641 299.785C207.836 299.926 208.031 299.66 207.871 299.528Z" fill="#263238"/>
<path d="M194.908 206.331C197.377 191.272 187.168 177.061 172.106 174.593C157.045 172.124 142.833 182.332 140.364 197.391C137.895 212.45 148.103 226.66 163.165 229.129C178.227 231.597 192.439 221.391 194.908 206.331Z" fill="#FFC727"/>
<path d="M183.725 219.698H151.519V192.455L167.622 182.236L183.725 192.455V219.698Z" fill="#A6A6A6"/>
<path d="M181.909 219.423H153.344V183.635H174.558L181.909 190.632V219.423Z" fill="white"/>
<path d="M174.558 183.635L181.909 190.632H174.558V183.635Z" fill="#EBEBEB"/>
<path d="M156.134 190.738H172.016V189.799H156.134V190.738Z" fill="#DBDBDB"/>
<path d="M156.134 193.111H172.016V192.172H156.134V193.111Z" fill="#DBDBDB"/>
<path d="M156.134 195.484H172.016V194.546H156.134V195.484Z" fill="#DBDBDB"/>
<path d="M156.125 197.867H179.404V196.927H156.125V197.867Z" fill="#DBDBDB"/>
<path d="M156.125 200.24H179.404V199.302H156.125V200.24Z" fill="#DBDBDB"/>
<path d="M156.125 202.623H179.404V201.683H156.125V202.623Z" fill="#DBDBDB"/>
<path d="M156.125 204.996H179.404V204.058H156.125V204.996Z" fill="#DBDBDB"/>
<path d="M156.125 207.369H179.404V206.431H156.125V207.369Z" fill="#DBDBDB"/>
<path d="M156.125 209.752H179.404V208.814H156.125V209.752Z" fill="#DBDBDB"/>
<path d="M156.125 212.125H179.404V211.187H156.125V212.125Z" fill="#DBDBDB"/>
<path d="M156.125 214.508H179.404V213.57H156.125V214.508Z" fill="#DBDBDB"/>
<path d="M156.125 216.881H179.404V215.943H156.125V216.881Z" fill="#DBDBDB"/>
<path d="M183.725 199.266V219.689H151.528V199.266C152.91 200.046 154.265 200.869 155.638 201.675C157.011 202.481 158.366 203.305 159.713 204.138C161.225 205.058 162.733 205.992 164.239 206.936L167.622 209.053L170.998 206.936H170.953H171.006L175.523 204.146C176.879 203.314 178.243 202.499 179.606 201.683C180.971 200.869 182.344 200.054 183.725 199.266Z" fill="#EBEBEB"/>
<path d="M183.725 199.266C182.432 200.153 181.068 201.038 179.792 201.924C178.516 202.809 177.135 203.695 175.816 204.58C174.496 205.466 173.035 206.396 171.644 207.29L171.52 207.379L167.809 209.744L167.622 209.849L167.445 209.744L163.743 207.369L163.61 207.29C162.211 206.399 160.817 205.495 159.43 204.58C158.109 203.695 156.772 202.809 155.461 201.924C154.15 201.038 152.803 200.153 151.528 199.266C152.91 200.046 154.265 200.869 155.638 201.675C157.011 202.481 158.366 203.305 159.713 204.138C161.225 205.058 162.733 205.992 164.239 206.936L167.622 209.053L170.998 206.936L175.514 204.146C176.869 203.314 178.235 202.499 179.598 201.683C180.962 200.869 182.344 200.054 183.725 199.266Z" fill="#DBDBDB"/>
<path d="M164.283 206.918L163.778 207.352C162.972 208.033 162.139 208.69 161.298 209.319C160.271 210.107 159.225 210.851 158.171 211.595C157.117 212.338 156.045 213.055 154.956 213.746C153.866 214.438 152.777 215.127 151.634 215.748C152.617 214.861 153.627 214.1 154.655 213.321C155.682 212.542 156.736 211.789 157.781 211.045C158.827 210.301 159.908 209.583 160.997 208.884C161.883 208.326 162.768 207.786 163.654 207.272C163.858 207.148 164.07 207.033 164.283 206.918Z" fill="#DBDBDB"/>
<path d="M183.681 215.774C182.539 215.155 181.44 214.473 180.36 213.774C179.28 213.073 178.207 212.356 177.135 211.62C176.063 210.886 175.036 210.133 174.008 209.344C173.175 208.717 172.344 208.07 171.546 207.387L171.033 206.944H170.988H171.041L171.67 207.307C172.556 207.822 173.441 208.362 174.327 208.919C175.409 209.62 176.481 210.346 177.534 211.08C178.588 211.816 179.643 212.568 180.661 213.356C181.68 214.145 182.671 214.924 183.681 215.774Z" fill="#DBDBDB"/>
<path d="M174.225 197.426C175.088 193.785 172.836 190.135 169.194 189.271C165.553 188.41 161.902 190.662 161.039 194.303C160.175 197.944 162.428 201.594 166.069 202.457C169.711 203.319 173.363 201.067 174.225 197.426Z" fill="#FFC727"/>
<path d="M164.194 196.424C165.163 197.23 166.079 198.098 166.94 199.019L166.321 199.063C166.657 198.469 167.02 197.894 167.391 197.291C167.764 196.689 168.137 196.149 168.535 195.599C169.314 194.475 170.169 193.403 171.095 192.393C170.553 193.653 169.922 194.873 169.207 196.042C168.871 196.626 168.49 197.203 168.127 197.815C167.764 198.425 167.374 198.947 166.968 199.506L166.657 199.939L166.346 199.549C165.563 198.555 164.844 197.51 164.194 196.424Z" fill="white"/>
</svg>
