<svg width="40" height="45" viewBox="0 0 40 45" fill="none" xmlns="http://www.w3.org/2000/svg">
<g clip-path="url(#clip0_157_284)">
<path d="M20.0089 12.3926C14.3304 12.3926 9.75001 16.9014 9.75001 22.4912C9.75001 28.0811 14.3304 32.5898 20.0089 32.5898C25.6875 32.5898 30.2679 28.0811 30.2679 22.4912C30.2679 16.9014 25.6875 12.3926 20.0089 12.3926ZM20.0089 29.0566C16.3393 29.0566 13.3393 26.1123 13.3393 22.4912C13.3393 18.8701 16.3304 15.9258 20.0089 15.9258C23.6875 15.9258 26.6786 18.8701 26.6786 22.4912C26.6786 26.1123 23.6786 29.0566 20.0089 29.0566ZM33.0804 11.9795C33.0804 13.2891 32.0089 14.335 30.6875 14.335C29.3572 14.335 28.2947 13.2803 28.2947 11.9795C28.2947 10.6787 29.3661 9.62402 30.6875 9.62402C32.0089 9.62402 33.0804 10.6787 33.0804 11.9795ZM39.875 14.3701C39.7232 11.2148 38.9911 8.41992 36.6429 6.11719C34.3036 3.81445 31.4643 3.09375 28.2589 2.93555C24.9554 2.75098 15.0536 2.75098 11.75 2.93555C8.55358 3.08496 5.7143 3.80566 3.36608 6.1084C1.01787 8.41113 0.294656 11.2061 0.133942 14.3613C-0.0535583 17.6133 -0.0535583 27.3603 0.133942 30.6123C0.285727 33.7676 1.01787 36.5625 3.36608 38.8652C5.7143 41.168 8.54466 41.8887 11.75 42.0469C15.0536 42.2314 24.9554 42.2314 28.2589 42.0469C31.4643 41.8975 34.3036 41.1768 36.6429 38.8652C38.9822 36.5625 39.7143 33.7676 39.875 30.6123C40.0625 27.3603 40.0625 17.6221 39.875 14.3701ZM35.6072 34.1016C34.9107 35.8242 33.5625 37.1514 31.8036 37.8457C29.1697 38.874 22.9197 38.6367 20.0089 38.6367C17.0982 38.6367 10.8393 38.8652 8.2143 37.8457C6.4643 37.1602 5.11608 35.833 4.41073 34.1016C3.36608 31.5088 3.60716 25.3564 3.60716 22.4912C3.60716 19.626 3.37501 13.4648 4.41073 10.8809C5.10716 9.1582 6.45537 7.83105 8.2143 7.13672C10.8482 6.1084 17.0982 6.3457 20.0089 6.3457C22.9197 6.3457 29.1786 6.11719 31.8036 7.13672C33.5536 7.82227 34.9018 9.14941 35.6072 10.8809C36.6518 13.4736 36.4107 19.626 36.4107 22.4912C36.4107 25.3564 36.6518 31.5176 35.6072 34.1016Z" fill="black" fill-opacity="0.5"/>
</g>
<defs>
<clipPath id="clip0_157_284">
<rect width="40" height="45" fill="white"/>
</clipPath>
</defs>
</svg>
