<svg width="77" height="17" viewBox="0 0 77 17" fill="none" xmlns="http://www.w3.org/2000/svg">
<path d="M9.395 16L3.389 8.272L9.206 1.174H13.28L6.728 8.881V7.537L13.49 16H9.395ZM0.428 16V1.174H3.725V16H0.428ZM18.3218 16.21C17.3838 16.21 16.5438 15.979 15.8018 15.517C15.0738 15.055 14.4928 14.425 14.0588 13.627C13.6388 12.829 13.4288 11.919 13.4288 10.897C13.4288 9.875 13.6388 8.965 14.0588 8.167C14.4928 7.369 15.0738 6.739 15.8018 6.277C16.5438 5.815 17.3838 5.584 18.3218 5.584C19.0078 5.584 19.6238 5.717 20.1698 5.983C20.7298 6.249 21.1848 6.62 21.5348 7.096C21.8848 7.558 22.0808 8.09 22.1228 8.692V13.102C22.0808 13.704 21.8848 14.243 21.5348 14.719C21.1988 15.181 20.7508 15.545 20.1908 15.811C19.6308 16.077 19.0078 16.21 18.3218 16.21ZM18.9728 13.312C19.6588 13.312 20.2118 13.088 20.6318 12.64C21.0518 12.178 21.2618 11.597 21.2618 10.897C21.2618 10.421 21.1638 10.001 20.9678 9.637C20.7858 9.273 20.5198 8.993 20.1698 8.797C19.8338 8.587 19.4418 8.482 18.9938 8.482C18.5458 8.482 18.1468 8.587 17.7968 8.797C17.4608 8.993 17.1878 9.273 16.9778 9.637C16.7818 10.001 16.6838 10.421 16.6838 10.897C16.6838 11.359 16.7818 11.772 16.9778 12.136C17.1738 12.5 17.4468 12.787 17.7968 12.997C18.1468 13.207 18.5388 13.312 18.9728 13.312ZM21.1358 16V13.249L21.6188 10.771L21.1358 8.293V5.794H24.2858V16H21.1358ZM26.5481 16V5.794H29.7611V16H26.5481ZM29.7611 10.393L28.4171 9.343C28.6831 8.153 29.1311 7.229 29.7611 6.571C30.3911 5.913 31.2661 5.584 32.3861 5.584C32.8761 5.584 33.3031 5.661 33.6671 5.815C34.0451 5.955 34.3741 6.179 34.6541 6.487L32.7431 8.902C32.6031 8.748 32.4281 8.629 32.2181 8.545C32.0081 8.461 31.7701 8.419 31.5041 8.419C30.9721 8.419 30.5451 8.587 30.2231 8.923C29.9151 9.245 29.7611 9.735 29.7611 10.393ZM37.0615 16V1.573H40.2745V16H37.0615ZM34.7515 8.524V5.794H42.5845V8.524H34.7515ZM50.7412 16V10.183C50.7412 9.651 50.5732 9.224 50.2372 8.902C49.9152 8.566 49.5022 8.398 48.9982 8.398C48.6482 8.398 48.3402 8.475 48.0742 8.629C47.8082 8.769 47.5982 8.979 47.4442 9.259C47.2902 9.525 47.2132 9.833 47.2132 10.183L45.9742 9.574C45.9742 8.776 46.1422 8.076 46.4782 7.474C46.8142 6.872 47.2832 6.41 47.8852 6.088C48.4872 5.752 49.1802 5.584 49.9642 5.584C50.7622 5.584 51.4622 5.752 52.0642 6.088C52.6662 6.41 53.1282 6.865 53.4502 7.453C53.7862 8.027 53.9542 8.699 53.9542 9.469V16H50.7412ZM44.0002 16V0.754H47.2132V16H44.0002ZM56.0178 16V5.794H59.2308V16H56.0178ZM57.6348 4.387C57.1308 4.387 56.7108 4.219 56.3748 3.883C56.0528 3.533 55.8918 3.113 55.8918 2.623C55.8918 2.119 56.0528 1.699 56.3748 1.363C56.7108 1.027 57.1308 0.859 57.6348 0.859C58.1388 0.859 58.5518 1.027 58.8738 1.363C59.1958 1.699 59.3568 2.119 59.3568 2.623C59.3568 3.113 59.1958 3.533 58.8738 3.883C58.5518 4.219 58.1388 4.387 57.6348 4.387ZM68.0244 16L64.4544 10.708L68.0034 5.794H71.5944L67.3104 11.317L67.4154 9.994L71.8044 16H68.0244ZM61.4934 16V0.754H64.7064V16H61.4934Z" fill="white"/>
<path d="M74.6451 16.231C74.0991 16.231 73.6441 16.042 73.2801 15.664C72.9161 15.286 72.7341 14.831 72.7341 14.299C72.7341 13.739 72.9161 13.277 73.2801 12.913C73.6441 12.535 74.0991 12.346 74.6451 12.346C75.2051 12.346 75.6601 12.535 76.0101 12.913C76.3741 13.277 76.5561 13.739 76.5561 14.299C76.5561 14.831 76.3741 15.286 76.0101 15.664C75.6601 16.042 75.2051 16.231 74.6451 16.231Z" fill="#E8BF38"/>
</svg>
