<svg width="100" height="135" viewBox="0 0 100 135" fill="none" xmlns="http://www.w3.org/2000/svg">
<path d="M3.58885 2C14.1704 9.58019 26.8058 17.817 35.8222 27.426C42.2824 34.3109 50.5579 46.0154 51.6909 56.0528C52.7104 65.0844 48.2574 73.3056 40.691 78.0526C32.0139 83.4966 12.8929 87.2234 4.35524 78.9994C-0.979079 73.861 3.84157 68.2127 8.02939 65.0466C16.1385 58.9158 24.3214 57.2699 34.1993 61.6429C49.0149 68.2021 57.9993 81.6772 66.5904 94.5074C74.5739 106.43 80.1676 118.695 86.3587 131.429" stroke="#FFC727" stroke-width="3" stroke-linecap="round"/>
<path d="M66.3024 116.655C70.5044 119.273 74.2026 122.297 77.93 125.567C80.3907 127.726 82.7226 130.03 85.2 132.17C86.4514 133.25 86.2338 133.365 86.908 131.983C91.2242 123.141 94.6472 113.787 98.2291 104.633" stroke="#FFC727" stroke-width="3" stroke-linecap="round"/>
</svg>
