<svg width="95" height="79" viewBox="0 0 95 79" fill="none" xmlns="http://www.w3.org/2000/svg">
<path fill-rule="evenodd" clip-rule="evenodd" d="M37.9676 28.2594C43.534 32.4102 52.4558 27.9537 55.9657 35.1774C56.8934 37.0919 57.0944 39.7143 56.2595 41.7978C55.9193 42.6344 55.4245 43.3825 54.7442 43.9536C54.4427 44.203 54.1102 44.4283 53.7391 44.6213C49.1623 46.9863 44.3844 43.6801 41.8564 39.6822C39.5293 35.9979 38.5165 31.4047 37.9676 28.2594ZM77.3191 0H5.6128C2.52808 0 0 2.63046 0 5.84011V68.4081C0 71.6177 2.52808 74.2482 5.6128 74.2482H61.5553L56.7079 69.9526H5.50457C5.07162 69.9526 4.6928 69.7837 4.40675 69.478C4.1207 69.1803 3.95061 68.7781 3.95061 68.3357V16.3539H3.92742H78.7571V40.2211L82.9319 43.7445V5.84011C82.9319 2.63046 80.4038 0 77.3191 0ZM10.955 6.56409C9.42425 6.56409 8.17954 7.85921 8.17954 9.45197C8.17954 11.0447 9.42425 12.3318 10.955 12.3318C12.4858 12.3318 13.7305 11.0367 13.7305 9.45197C13.7305 7.85921 12.4858 6.56409 10.955 6.56409ZM29.7494 6.56409C28.2186 6.56409 26.9739 7.85921 26.9739 9.45197C26.9739 11.0447 28.2109 12.3318 29.7494 12.3318C31.2802 12.3318 32.5249 11.0367 32.5249 9.45197C32.5249 7.85921 31.2802 6.56409 29.7494 6.56409ZM20.3561 6.56409C18.8253 6.56409 17.5806 7.85921 17.5806 9.45197C17.5806 11.0447 18.8253 12.3318 20.3561 12.3318C21.8868 12.3318 23.1316 11.0367 23.1316 9.45197C23.1238 7.85921 21.8868 6.56409 20.3561 6.56409ZM66.2017 59.9617C69.3019 57.3875 71.7063 54.4192 73.3453 51.0165L93.2916 72.9048C94.7992 74.3849 95.6496 75.6479 94.3894 77.9164C93.7632 78.584 93.0983 78.946 92.3948 78.9943C91.699 79.0426 90.9645 78.7851 90.1992 78.206L66.2017 59.9617ZM55.6796 47.2598C57.0249 46.5117 58.8649 44.6615 59.3055 42.6424L71.7913 49.7696C69.99 53.5021 67.6938 56.6957 64.5472 58.9642C61.2615 54.379 59.4215 51.6118 55.6796 47.2598Z" fill="white"/>
</svg>
