<svg width="95" height="79" viewBox="0 0 95 79" fill="none" xmlns="http://www.w3.org/2000/svg">
<g clip-path="url(#clip0_16_300)">
<path fill-rule="evenodd" clip-rule="evenodd" d="M2.58219 0H92.4178C93.8403 0 95 1.1629 95 2.5894V62.2697C95 63.6962 93.8403 64.8591 92.4178 64.8591H2.58219C1.15967 64.8591 0 63.6962 0 62.2697V2.5894C0 1.1629 1.15967 0 2.58219 0ZM63.1632 52.509L50.7471 44.9657V40.1822L63.1632 32.6389V38.3216L55.6177 42.5856L63.1632 46.8496V52.509ZM70.8712 52.509L83.2874 44.9657V40.1822L70.8712 32.6389V38.3216L78.4167 42.5856L70.8712 46.8496V52.509ZM29.873 34.0964L32.8341 37.0657C33.6149 37.8487 33.6149 39.1279 32.8341 39.9031L30.4529 42.291C31.11 43.5237 31.6125 44.8494 31.9295 46.2449H35.0142C36.1121 46.2449 37.0166 47.1519 37.0166 48.2528V52.447C37.0166 53.5479 36.1121 54.455 35.0142 54.455H31.6435C31.342 55.4473 30.9554 56.3931 30.4761 57.2924H88.8538C90.1062 57.2924 91.1344 56.2613 91.1344 55.0054V6.34946C91.1344 5.09352 90.1139 4.06241 88.8538 4.06241H6.15397C4.8938 4.06241 3.86556 5.09352 3.87329 6.34946V33.1815C4.65413 32.5691 5.80607 32.6156 6.51733 33.3444L8.89852 35.7322C10.1278 35.0732 11.4498 34.5693 12.8414 34.2514V31.1581C12.8414 30.0572 13.7459 29.1579 14.8438 29.1579H19.0263C20.1241 29.1579 21.0286 30.065 21.0286 31.1658V34.5383C22.3893 34.9569 23.6804 35.5461 24.8556 36.2904L27.0357 34.0964C27.8243 33.3133 29.0922 33.3133 29.873 34.0964ZM16.4054 40.5466C21.508 40.5466 25.6441 44.6943 25.6441 49.8188C25.6441 52.8889 24.1597 55.6101 21.8636 57.2924H10.9473C8.65112 55.6101 7.16675 52.8889 7.16675 49.8188C7.16675 44.6943 11.3029 40.5466 16.4054 40.5466ZM10.553 18.8003H16.4827C16.9389 18.8003 17.31 19.1879 17.31 19.6298V21.3199C17.31 21.7696 16.9234 22.1495 16.4827 22.1495H10.553C10.1046 22.1495 9.72575 21.7773 9.72575 21.3199V19.6298C9.71802 19.1724 10.0891 18.8003 10.553 18.8003ZM20.3715 10.1715H43.3175C43.7736 10.1715 44.1447 10.5514 44.1447 11.0011V12.6912C44.1447 13.1486 43.7659 13.5207 43.3175 13.5207H20.3715C19.9154 13.5207 19.5443 13.1486 19.5443 12.6912V11.0011C19.5443 10.5437 19.9154 10.1715 20.3715 10.1715ZM10.553 10.1715H16.4827C16.9389 10.1715 17.31 10.5437 17.31 11.0011V12.6912C17.31 13.1486 16.9389 13.5207 16.4827 13.5207H10.553C10.0968 13.5207 9.72575 13.1486 9.72575 12.6912V11.0011C9.71802 10.5437 10.0891 10.1715 10.553 10.1715ZM29.6566 18.8003H67.7323C68.1885 18.8003 68.5596 19.1879 68.5596 19.6298V21.3199C68.5596 21.7618 68.173 22.1495 67.7323 22.1495H29.6566C29.2082 22.1495 28.8293 21.7773 28.8293 21.3199V19.6298C28.8293 19.1724 29.2004 18.8003 29.6566 18.8003ZM20.2633 18.8003H26.193C26.6492 18.8003 27.0203 19.1879 27.0203 19.6298V21.3199C27.0203 21.7696 26.6337 22.1495 26.193 22.1495H20.2633C19.8149 22.1495 19.436 21.7773 19.436 21.3199V19.6298C19.4283 19.1724 19.8071 18.8003 20.2633 18.8003ZM35.7874 68.4331H59.2126C59.2745 72.4955 60.9444 76.1315 65.4671 79H29.5329C33.151 76.3718 35.8028 73.1777 35.7874 68.4331Z" fill="white"/>
</g>
<defs>
<clipPath id="clip0_16_300">
<rect width="95" height="79" fill="white"/>
</clipPath>
</defs>
</svg>
