<svg width="95" height="79" viewBox="0 0 95 79" fill="none" xmlns="http://www.w3.org/2000/svg">
<g clip-path="url(#clip0_16_294)">
<path fill-rule="evenodd" clip-rule="evenodd" d="M6.43229 0H88.5677C92.1086 0 95 3.0935 95 6.88179V72.1182C95 75.8982 92.1086 79 88.5677 79H6.43229C2.89144 79 0 75.9065 0 72.1182V6.88179C0 3.0935 2.89144 0 6.43229 0ZM9.74121 21.853H84.5553V58.0238H9.74121V21.853ZM46.9743 24.4833C39.2122 24.4833 32.9191 31.2162 32.9191 39.5207C32.9191 47.8251 39.2122 54.5581 46.9743 54.5581C54.7363 54.5581 61.0295 47.8251 61.0295 39.5207C61.0295 31.2162 54.7363 24.4833 46.9743 24.4833ZM36.429 39.5207C36.429 43.8714 38.8566 47.6266 42.3743 49.405L37.3413 35.0541C36.7615 36.4189 36.429 37.9326 36.429 39.5207ZM56.2594 34.136C56.3057 34.4834 56.3289 34.8639 56.3289 35.2692C56.3289 36.3858 56.1279 37.6348 55.5249 39.2064L52.301 48.9087C55.4321 47.0063 57.5427 43.4661 57.5427 39.4132C57.5505 37.5025 57.0866 35.6993 56.2594 34.136ZM54.0946 38.9665C54.0946 37.61 53.6308 36.667 53.2288 35.9392C52.6953 35.0293 52.1928 34.2683 52.1928 33.3585C52.1928 32.3494 52.9272 31.4064 53.9632 31.4064C54.0096 31.4064 54.056 31.4147 54.1024 31.4147C52.2237 29.6198 49.7266 28.528 46.982 28.528C43.302 28.528 40.0549 30.4966 38.1763 33.4826C38.4237 33.4908 38.6556 33.4991 38.8566 33.4991C39.9622 33.4991 41.663 33.3585 41.663 33.3585C42.2274 33.3254 42.297 34.1939 41.7326 34.2683C41.7326 34.2683 41.1605 34.3345 40.5265 34.3759L44.3689 46.2784L46.6728 39.0658L45.026 34.3759C44.4617 34.3428 43.9205 34.2683 43.9205 34.2683C43.3484 34.2353 43.418 33.3254 43.9901 33.3585C43.9901 33.3585 45.7296 33.4991 46.7655 33.4991C47.8711 33.4991 49.5719 33.3585 49.5719 33.3585C50.1363 33.3254 50.2059 34.1939 49.6415 34.2683C49.6415 34.2683 49.0694 34.3345 48.4355 34.3759L52.2469 46.1874L53.2983 42.5315C53.739 41.0013 54.0869 39.9094 54.0946 38.9665ZM47.1598 40.4802L43.9978 50.0584C44.9642 50.3562 45.9692 50.5051 46.9743 50.5051C48.2035 50.5051 49.3787 50.2817 50.4765 49.8847C50.4456 49.8351 50.4224 49.7855 50.3992 49.7358L47.1598 40.4802ZM51.698 70.0917C50.3219 70.0917 49.2086 68.7931 49.2086 67.1967C49.2086 65.5921 50.3219 64.3017 51.698 64.3017H82.3519C83.728 64.3017 84.8413 65.6003 84.8413 67.1967C84.8413 68.7931 83.728 70.0917 82.3519 70.0917H51.698ZM11.5658 70.0917C10.2051 70.0917 9.09953 68.7931 9.09953 67.1967C9.09953 65.5921 10.2051 64.3017 11.5658 64.3017H39.9854C41.346 64.3017 42.4516 65.6003 42.4516 67.1967C42.4516 68.7931 41.346 70.0917 39.9854 70.0917H11.5658ZM91.204 16.6255H4.08976V72.7882C4.08976 73.8469 4.87834 74.6906 5.86792 74.6906H89.3949C90.3845 74.6906 91.1731 73.8387 91.1731 72.7882V16.6255H91.204ZM82.4447 5.97194C84.1996 5.97194 85.6222 7.49387 85.6222 9.37148C85.6222 11.2491 84.1996 12.771 82.4447 12.771C80.6897 12.771 79.2672 11.2491 79.2672 9.37148C79.2672 7.49387 80.6974 5.97194 82.4447 5.97194ZM60.9212 5.97194C62.6762 5.97194 64.0987 7.49387 64.0987 9.37148C64.0987 11.2491 62.6762 12.771 60.9212 12.771C59.1663 12.771 57.7437 11.2491 57.7437 9.37148C57.7437 7.49387 59.1663 5.97194 60.9212 5.97194ZM71.6829 5.97194C73.4379 5.97194 74.8604 7.49387 74.8604 9.37148C74.8604 11.2491 73.4379 12.771 71.6829 12.771C69.928 12.771 68.5055 11.2491 68.5055 9.37148C68.5055 7.49387 69.928 5.97194 71.6829 5.97194Z" fill="white"/>
</g>
<defs>
<clipPath id="clip0_16_294">
<rect width="95" height="79" fill="white"/>
</clipPath>
</defs>
</svg>
