<svg width="111" height="125" viewBox="0 0 111 125" fill="none" xmlns="http://www.w3.org/2000/svg">
<rect width="111" height="124.232" rx="13" fill="#D9D9D9"/>
<rect x="26.4636" y="21.3179" width="58.808" height="58.8079" rx="29.404" fill="#1073BB"/>
<mask id="mask0_145_82" style="mask-type:luminance" maskUnits="userSpaceOnUse" x="26" y="21" width="60" height="60">
<rect x="26.4636" y="21.3179" width="58.808" height="58.8079" rx="29.404" fill="white"/>
</mask>
<g mask="url(#mask0_145_82)">
<path d="M50.4502 37.924L52.266 38.4869C52.1407 39.0156 51.9435 39.4572 51.6748 39.8121C51.406 40.1671 51.0721 40.435 50.6735 40.6155C50.2748 40.7963 49.7672 40.8866 49.151 40.8866C48.4034 40.8866 47.7927 40.7784 47.3189 40.5626C46.8449 40.3464 46.4362 39.9664 46.0921 39.4222C45.7483 38.8784 45.5762 38.1822 45.5762 37.3341C45.5762 36.203 45.8772 35.3337 46.4797 34.7258C47.0819 34.1182 47.9344 33.8145 49.0362 33.8145C49.8993 33.8145 50.5775 33.9918 51.0708 34.3467C51.564 34.7015 51.9307 35.2463 52.1705 35.9812L50.2591 36.3947C50.1944 36.1876 50.1269 36.0362 50.056 35.9408C49.9385 35.7796 49.7951 35.6554 49.6253 35.5689C49.4556 35.4823 49.2661 35.4392 49.057 35.4392C48.5823 35.4392 48.2183 35.6277 47.9655 36.0049C47.7743 36.285 47.6788 36.7243 47.6788 37.3237C47.6788 38.0654 47.7975 38.5737 48.0358 38.8491C48.2736 39.1245 48.6075 39.2619 49.0377 39.2619C49.4557 39.2619 49.7717 39.1476 49.985 38.9193C50.1985 38.6909 50.3537 38.359 50.4502 37.924Z" fill="white"/>
<path d="M52.8394 38.5261L54.9418 38.402C54.9828 38.7248 55.066 38.9702 55.1913 39.1386C55.3954 39.412 55.6869 39.549 56.0663 39.549C56.3492 39.549 56.5668 39.4774 56.7196 39.3347C56.8723 39.1919 56.9488 39.0262 56.9488 38.8382C56.9488 38.6601 56.8812 38.5003 56.7456 38.3591C56.6092 38.2177 56.2594 38.084 55.6957 37.9588C54.7731 37.7487 54.115 37.4717 53.7219 37.127C53.3246 36.7825 53.1261 36.3438 53.1261 35.8112C53.1261 35.4597 53.2284 35.1286 53.4322 34.8171C53.6364 34.5055 53.9433 34.2604 54.3527 34.0821C54.7624 33.9041 55.3244 33.8151 56.0382 33.8151C56.9132 33.8151 57.5804 33.9799 58.0397 34.3099C58.4993 34.6401 58.7727 35.1654 58.8605 35.8862L56.7579 36.0131C56.7122 35.6797 56.6162 35.4368 56.4705 35.2852C56.3247 35.1331 56.1232 35.0573 55.8663 35.0573C55.6552 35.0573 55.4961 35.1098 55.3893 35.2149C55.2822 35.3202 55.2287 35.4477 55.2287 35.5979C55.2287 35.7075 55.2536 35.8065 55.3034 35.895C55.3512 35.9858 55.561 36.0701 55.9333 36.1489C56.8533 36.3492 57.5125 36.5512 57.9107 36.7561C58.3088 36.9606 58.5983 37.2145 58.7797 37.5177C58.9607 37.8209 59.0512 38.1601 59.0512 38.5352C59.0512 38.9754 58.9299 39.3811 58.6868 39.753C58.444 40.1248 58.1046 40.407 57.6687 40.5991C57.2326 40.7914 56.6829 40.8872 56.0198 40.8872C54.8552 40.8872 54.0485 40.6649 53.6001 40.2204C53.1517 39.7757 52.8982 39.211 52.8394 38.5261Z" fill="white"/>
<path d="M59.7205 38.5261L61.8228 38.402C61.8636 38.7248 61.9467 38.9702 62.0721 39.1386C62.2762 39.412 62.5679 39.549 62.9469 39.549C63.2297 39.549 63.4477 39.4774 63.6006 39.3347C63.7532 39.1919 63.83 39.0262 63.83 38.8382C63.83 38.6601 63.762 38.5003 63.6268 38.3591C63.4903 38.2177 63.1401 38.084 62.577 37.9588C61.6539 37.7487 60.9959 37.4717 60.6025 37.127C60.2054 36.7825 60.0068 36.3438 60.0068 35.8112C60.0068 35.4597 60.1089 35.1286 60.3131 34.8171C60.5169 34.5055 60.8242 34.2604 61.2338 34.0821C61.6432 33.9041 62.2051 33.8151 62.9189 33.8151C63.7939 33.8151 64.4612 33.9799 64.9206 34.3099C65.38 34.6401 65.6534 35.1654 65.7413 35.8862L63.6387 36.0131C63.5929 35.6797 63.497 35.4368 63.3512 35.2852C63.2053 35.1331 63.0043 35.0573 62.7471 35.0573C62.5363 35.0573 62.377 35.1098 62.27 35.2149C62.1632 35.3202 62.1095 35.4477 62.1095 35.5979C62.1095 35.7075 62.1344 35.8065 62.1839 35.895C62.2319 35.9858 62.4421 36.0701 62.8145 36.1489C63.7344 36.3492 64.3933 36.5512 64.7916 36.7561C65.1896 36.9606 65.479 37.2145 65.6606 37.5177C65.8416 37.8209 65.9322 38.1601 65.9322 38.5352C65.9322 38.9754 65.8107 39.3811 65.5679 39.753C65.3248 40.1248 64.9854 40.407 64.5494 40.5991C64.1134 40.7914 63.5637 40.8872 62.9006 40.8872C61.7358 40.8872 60.9297 40.6649 60.4808 40.2204C60.0324 39.7757 59.7792 39.211 59.7205 38.5261Z" fill="white"/>
<path d="M48.123 45.5762L47.3826 49.2571H62.4514L61.9811 51.6348H46.9022L46.1718 55.3158H61.2407L60.4003 59.5143L54.3266 61.5139L49.0636 59.5143L49.4238 57.6936H45.7217L44.8411 62.1109L53.5462 65.4239L63.5822 62.1109L64.913 55.465L65.1831 54.1321L66.894 45.5762H48.123Z" fill="white"/>
</g>
<path d="M47.1006 99.1367C46.4593 99.1367 45.8613 99.0197 45.3066 98.7857C44.7606 98.5517 44.284 98.2224 43.8766 97.7977C43.4693 97.373 43.153 96.8834 42.9276 96.3287C42.711 95.7654 42.6026 95.163 42.6026 94.5217C42.6026 93.8804 42.711 93.2824 42.9276 92.7277C43.153 92.1644 43.465 91.6747 43.8636 91.2587C44.271 90.8427 44.7476 90.5177 45.2936 90.2837C45.8396 90.0497 46.429 89.9327 47.0616 89.9327C47.7463 89.9327 48.3573 90.054 48.8946 90.2967C49.4406 90.5394 49.9173 90.873 50.3246 91.2977L49.6746 91.9477C49.3626 91.601 48.9856 91.3324 48.5436 91.1417C48.1016 90.9424 47.6076 90.8427 47.0616 90.8427C46.559 90.8427 46.0953 90.9337 45.6706 91.1157C45.2546 91.2977 44.8863 91.5577 44.5656 91.8957C44.2536 92.225 44.011 92.615 43.8376 93.0657C43.673 93.5077 43.5906 93.993 43.5906 94.5217C43.5906 95.0504 43.6773 95.54 43.8506 95.9907C44.024 96.4414 44.2666 96.8357 44.5786 97.1737C44.8906 97.503 45.259 97.7587 45.6836 97.9407C46.1083 98.1227 46.572 98.2137 47.0746 98.2137C47.6466 98.2137 48.1536 98.114 48.5956 97.9147C49.0463 97.7154 49.4276 97.4424 49.7396 97.0957L50.3896 97.7587C49.991 98.1834 49.5143 98.5214 48.9596 98.7727C48.405 99.0154 47.7853 99.1367 47.1006 99.1367ZM53.7093 99.1367C53.38 99.1367 53.0636 99.0934 52.7603 99.0067C52.457 98.9114 52.1796 98.7814 51.9283 98.6167C51.6856 98.452 51.4733 98.257 51.2913 98.0317L51.8763 97.4337C52.119 97.7284 52.392 97.9494 52.6953 98.0967C53.0073 98.2354 53.354 98.3047 53.7353 98.3047C54.1426 98.3047 54.459 98.2267 54.6843 98.0707C54.9183 97.9147 55.0353 97.698 55.0353 97.4207C55.0353 97.1607 54.953 96.957 54.7883 96.8097C54.6236 96.6624 54.4113 96.5454 54.1513 96.4587C53.9 96.372 53.6313 96.2897 53.3453 96.2117C53.0593 96.125 52.7863 96.021 52.5263 95.8997C52.2663 95.7697 52.054 95.592 51.8893 95.3667C51.7333 95.1414 51.6553 94.8467 51.6553 94.4827C51.6553 94.136 51.7376 93.837 51.9023 93.5857C52.0756 93.3257 52.3183 93.1264 52.6303 92.9877C52.951 92.8404 53.328 92.7667 53.7613 92.7667C54.2206 92.7667 54.6366 92.849 55.0093 93.0137C55.382 93.1784 55.681 93.421 55.9063 93.7417L55.3213 94.3267C55.1393 94.0927 54.9096 93.915 54.6323 93.7937C54.3636 93.6637 54.0603 93.5987 53.7223 93.5987C53.3323 93.5987 53.0333 93.6767 52.8253 93.8327C52.626 93.98 52.5263 94.175 52.5263 94.4177C52.5263 94.6517 52.6086 94.838 52.7733 94.9767C52.938 95.1067 53.146 95.215 53.3973 95.3017C53.6573 95.3797 53.9303 95.462 54.2163 95.5487C54.5023 95.6267 54.7753 95.735 55.0353 95.8737C55.2953 96.0037 55.5033 96.1857 55.6593 96.4197C55.824 96.645 55.9063 96.9527 55.9063 97.3427C55.9063 97.8887 55.707 98.3264 55.3083 98.6557C54.9183 98.9764 54.3853 99.1367 53.7093 99.1367ZM59.2191 99.1367C58.8897 99.1367 58.5734 99.0934 58.2701 99.0067C57.9667 98.9114 57.6894 98.7814 57.4381 98.6167C57.1954 98.452 56.9831 98.257 56.8011 98.0317L57.3861 97.4337C57.6287 97.7284 57.9017 97.9494 58.2051 98.0967C58.5171 98.2354 58.8637 98.3047 59.2451 98.3047C59.6524 98.3047 59.9687 98.2267 60.1941 98.0707C60.4281 97.9147 60.5451 97.698 60.5451 97.4207C60.5451 97.1607 60.4627 96.957 60.2981 96.8097C60.1334 96.6624 59.9211 96.5454 59.6611 96.4587C59.4097 96.372 59.1411 96.2897 58.8551 96.2117C58.5691 96.125 58.2961 96.021 58.0361 95.8997C57.7761 95.7697 57.5637 95.592 57.3991 95.3667C57.2431 95.1414 57.1651 94.8467 57.1651 94.4827C57.1651 94.136 57.2474 93.837 57.4121 93.5857C57.5854 93.3257 57.8281 93.1264 58.1401 92.9877C58.4607 92.8404 58.8377 92.7667 59.2711 92.7667C59.7304 92.7667 60.1464 92.849 60.5191 93.0137C60.8917 93.1784 61.1907 93.421 61.4161 93.7417L60.8311 94.3267C60.6491 94.0927 60.4194 93.915 60.1421 93.7937C59.8734 93.6637 59.5701 93.5987 59.2321 93.5987C58.8421 93.5987 58.5431 93.6767 58.3351 93.8327C58.1357 93.98 58.0361 94.175 58.0361 94.4177C58.0361 94.6517 58.1184 94.838 58.2831 94.9767C58.4477 95.1067 58.6557 95.215 58.9071 95.3017C59.1671 95.3797 59.4401 95.462 59.7261 95.5487C60.0121 95.6267 60.2851 95.735 60.5451 95.8737C60.8051 96.0037 61.0131 96.1857 61.1691 96.4197C61.3337 96.645 61.4161 96.9527 61.4161 97.3427C61.4161 97.8887 61.2167 98.3264 60.8181 98.6557C60.4281 98.9764 59.8951 99.1367 59.2191 99.1367ZM65.1578 99.1367C64.5858 99.1367 64.0615 99.024 63.5848 98.7987C63.1168 98.5734 62.7225 98.2484 62.4018 97.8237L63.0388 97.1867C63.2555 97.516 63.5502 97.776 63.9228 97.9667C64.2955 98.1487 64.7028 98.2397 65.1448 98.2397C65.5782 98.2397 65.9508 98.1574 66.2628 97.9927C66.5835 97.828 66.8305 97.5984 67.0038 97.3037C67.1858 97.0004 67.2768 96.6494 67.2768 96.2507C67.2768 95.8434 67.1858 95.4924 67.0038 95.1977C66.8305 94.903 66.5792 94.6734 66.2498 94.5087C65.9292 94.344 65.5435 94.2617 65.0928 94.2617C64.9455 94.2617 64.7938 94.2704 64.6378 94.2877C64.4905 94.305 64.3432 94.3354 64.1958 94.3787L64.5598 93.8457C64.7072 93.7677 64.8675 93.707 65.0408 93.6637C65.2142 93.6204 65.4048 93.5987 65.6128 93.5987C66.1068 93.5987 66.5532 93.7157 66.9518 93.9497C67.3505 94.175 67.6625 94.4914 67.8878 94.8987C68.1218 95.2974 68.2388 95.761 68.2388 96.2897C68.2388 96.853 68.1088 97.347 67.8488 97.7717C67.5888 98.1964 67.2248 98.53 66.7568 98.7727C66.2975 99.0154 65.7645 99.1367 65.1578 99.1367ZM64.1958 94.3787V93.7937L67.0298 90.6087L68.1348 90.6477L65.2488 93.8717L64.1958 94.3787ZM62.7918 90.9077V90.0627H68.1348V90.6477L67.3158 90.9077H62.7918Z" fill="black"/>
</svg>
