<svg width="111" height="125" viewBox="0 0 111 125" fill="none" xmlns="http://www.w3.org/2000/svg">
<rect width="111" height="124.232" rx="13" fill="#D9D9D9"/>
<rect x="26.4636" y="21.3179" width="58.808" height="58.8079" rx="29.404" fill="#EBEBEB"/>
<mask id="mask0_145_179" style="mask-type:luminance" maskUnits="userSpaceOnUse" x="26" y="21" width="60" height="60">
<rect x="26.4636" y="21.3179" width="58.808" height="58.8079" rx="29.404" fill="white"/>
</mask>
<g mask="url(#mask0_145_179)">
</g>
<path d="M57.4602 45.1474H51.0893C48.0106 45.1474 45.5148 42.6516 45.5148 39.5729C45.5148 36.4942 48.0106 33.9984 51.0893 33.9984H57.4602V45.1474Z" fill="url(#paint0_linear_145_179)"/>
<path d="M56.6638 56.2965H51.0893C48.0106 56.2965 45.5148 53.8007 45.5148 50.722C45.5148 47.6432 48.0106 45.1475 51.0893 45.1475H56.6638V56.2965Z" fill="url(#paint1_linear_145_179)"/>
<path d="M51.0893 67.4455C48.0106 67.4455 45.5148 64.9497 45.5148 61.871C45.5148 58.7923 48.0106 56.2965 51.0893 56.2965H56.6638V61.871C56.6638 64.9497 54.1681 67.4455 51.0893 67.4455Z" fill="url(#paint2_linear_145_179)"/>
<path d="M62.2383 45.1474H56.6638V33.9984H62.2383C65.317 33.9984 67.8128 36.4942 67.8128 39.5729C67.8128 42.6516 65.317 45.1474 62.2383 45.1474Z" fill="url(#paint3_linear_145_179)"/>
<path d="M62.2383 56.2965C65.317 56.2965 67.8128 53.8007 67.8128 50.722C67.8128 47.6433 65.317 45.1475 62.2383 45.1475C59.1596 45.1475 56.6638 47.6433 56.6638 50.722C56.6638 53.8007 59.1596 56.2965 62.2383 56.2965Z" fill="url(#paint4_linear_145_179)"/>
<path d="M37.8989 99.0067V90.0627H38.8479V99.0067H37.8989ZM38.5229 94.9637V94.0927H43.3199V94.9637H38.5229ZM38.5229 90.9337V90.0627H43.5409V90.9337H38.5229ZM45.0539 99.0067V92.8967H45.9769V99.0067H45.0539ZM45.5089 91.5707C45.3355 91.5707 45.1882 91.51 45.0669 91.3887C44.9455 91.2587 44.8849 91.107 44.8849 90.9337C44.8849 90.7517 44.9455 90.6 45.0669 90.4787C45.1882 90.3574 45.3355 90.2967 45.5089 90.2967C45.6995 90.2967 45.8512 90.3574 45.9639 90.4787C46.0852 90.6 46.1459 90.7517 46.1459 90.9337C46.1459 91.107 46.0852 91.2587 45.9639 91.3887C45.8512 91.51 45.6995 91.5707 45.5089 91.5707ZM50.3434 101.711C49.7281 101.711 49.1778 101.594 48.6924 101.36C48.2158 101.134 47.8301 100.814 47.5354 100.398L48.1334 99.7997C48.3761 100.129 48.6838 100.385 49.0564 100.567C49.4291 100.749 49.8668 100.84 50.3694 100.84C51.0628 100.84 51.6131 100.653 52.0204 100.281C52.4364 99.908 52.6444 99.401 52.6444 98.7597V97.2387L52.8264 95.8477L52.6444 94.4697V92.8967H53.5544V98.7597C53.5544 99.349 53.4201 99.8647 53.1514 100.307C52.8828 100.749 52.5058 101.091 52.0204 101.334C51.5438 101.585 50.9848 101.711 50.3434 101.711ZM50.4084 98.9417C49.8451 98.9417 49.3381 98.8074 48.8874 98.5387C48.4368 98.27 48.0814 97.9017 47.8214 97.4337C47.5614 96.9657 47.4314 96.437 47.4314 95.8477C47.4314 95.2584 47.5571 94.734 47.8084 94.2747C48.0684 93.8067 48.4238 93.4384 48.8744 93.1697C49.3251 92.901 49.8321 92.7667 50.3954 92.7667C50.8721 92.7667 51.2968 92.8577 51.6694 93.0397C52.0508 93.2217 52.3541 93.4817 52.5794 93.8197C52.8134 94.149 52.9564 94.539 53.0084 94.9897V96.7187C52.9564 97.1607 52.8134 97.5507 52.5794 97.8887C52.3454 98.218 52.0421 98.478 51.6694 98.6687C51.2968 98.8507 50.8764 98.9417 50.4084 98.9417ZM50.5774 98.0707C51.0021 98.0707 51.3704 97.9797 51.6824 97.7977C52.0031 97.6157 52.2501 97.36 52.4234 97.0307C52.6054 96.6927 52.6964 96.2984 52.6964 95.8477C52.6964 95.4057 52.6054 95.02 52.4234 94.6907C52.2501 94.3614 52.0031 94.1014 51.6824 93.9107C51.3618 93.72 50.9891 93.6247 50.5644 93.6247C50.1398 93.6247 49.7584 93.72 49.4204 93.9107C49.0911 94.1014 48.8311 94.3614 48.6404 94.6907C48.4584 95.02 48.3674 95.4057 48.3674 95.8477C48.3674 96.281 48.4628 96.6667 48.6534 97.0047C48.8441 97.3427 49.1041 97.607 49.4334 97.7977C49.7628 97.9797 50.1441 98.0707 50.5774 98.0707ZM55.3878 99.0067V92.8967H56.2978V99.0067H55.3878ZM59.5868 99.0067V95.2627C59.5868 94.76 59.4352 94.3614 59.1318 94.0667C58.8285 93.7634 58.4472 93.6117 57.9878 93.6117C57.6758 93.6117 57.3898 93.681 57.1298 93.8197C56.8785 93.9497 56.6748 94.136 56.5188 94.3787C56.3715 94.6214 56.2978 94.9117 56.2978 95.2497L55.8818 95.0807C55.8818 94.6127 55.9858 94.2054 56.1938 93.8587C56.4018 93.512 56.6792 93.2434 57.0258 93.0527C57.3812 92.862 57.7798 92.7667 58.2218 92.7667C58.6552 92.7667 59.0408 92.862 59.3788 93.0527C59.7255 93.2434 59.9985 93.512 60.1978 93.8587C60.4058 94.2054 60.5098 94.617 60.5098 95.0937V99.0067H59.5868ZM63.7988 99.0067V95.2627C63.7988 94.76 63.6472 94.3614 63.3438 94.0667C63.0405 93.7634 62.6548 93.6117 62.1868 93.6117C61.8835 93.6117 61.6018 93.681 61.3418 93.8197C61.0905 93.9497 60.8868 94.136 60.7308 94.3787C60.5835 94.6214 60.5098 94.9117 60.5098 95.2497L59.9638 95.0807C59.9898 94.6127 60.1112 94.2054 60.3278 93.8587C60.5532 93.512 60.8435 93.2434 61.1988 93.0527C61.5628 92.862 61.9615 92.7667 62.3948 92.7667C62.8282 92.7667 63.2182 92.862 63.5648 93.0527C63.9202 93.2434 64.1975 93.512 64.3968 93.8587C64.6048 94.2054 64.7088 94.617 64.7088 95.0937V99.0067H63.7988ZM69.0721 99.1367C68.4914 99.1367 67.9714 98.998 67.5121 98.7207C67.0527 98.4347 66.6887 98.0534 66.4201 97.5767C66.1601 97.1 66.0301 96.5627 66.0301 95.9647C66.0301 95.358 66.1601 94.8164 66.4201 94.3397C66.6887 93.8544 67.0527 93.473 67.5121 93.1957C67.9714 92.9097 68.4871 92.7667 69.0591 92.7667C69.5271 92.7667 69.9431 92.862 70.3071 93.0527C70.6797 93.2347 70.9787 93.4947 71.2041 93.8327C71.4381 94.162 71.5811 94.5477 71.6331 94.9897V96.9007C71.5811 97.3427 71.4381 97.7327 71.2041 98.0707C70.9787 98.4087 70.6797 98.673 70.3071 98.8637C69.9431 99.0457 69.5314 99.1367 69.0721 99.1367ZM69.2151 98.2657C69.8477 98.2657 70.3547 98.0534 70.7361 97.6287C71.1261 97.204 71.3211 96.645 71.3211 95.9517C71.3211 95.4924 71.2301 95.0894 71.0481 94.7427C70.8747 94.3874 70.6277 94.1144 70.3071 93.9237C69.9951 93.7244 69.6267 93.6247 69.2021 93.6247C68.7687 93.6247 68.3831 93.7244 68.0451 93.9237C67.7157 94.123 67.4514 94.4004 67.2521 94.7557C67.0614 95.1024 66.9661 95.501 66.9661 95.9517C66.9661 96.4024 67.0614 96.801 67.2521 97.1477C67.4514 97.4944 67.7201 97.7674 68.0581 97.9667C68.3961 98.166 68.7817 98.2657 69.2151 98.2657ZM71.2691 99.0067V97.3687L71.4511 95.8607L71.2691 94.3917V92.8967H72.1791V99.0067H71.2691Z" fill="black"/>
<defs>
<linearGradient id="paint0_linear_145_179" x1="49.7427" y1="32.4861" x2="55.0894" y2="47.1749" gradientUnits="userSpaceOnUse">
<stop stop-color="#F44F5A"/>
<stop offset="0.443" stop-color="#EE3D4A"/>
<stop offset="1" stop-color="#E52030"/>
</linearGradient>
<linearGradient id="paint1_linear_145_179" x1="49.2099" y1="43.2649" x2="54.5248" y2="57.8661" gradientUnits="userSpaceOnUse">
<stop stop-color="#AE4CD5"/>
<stop offset="1" stop-color="#9331BF"/>
</linearGradient>
<linearGradient id="paint2_linear_145_179" x1="48.549" y1="52.599" x2="54.1322" y2="67.9369" gradientUnits="userSpaceOnUse">
<stop stop-color="#33C481"/>
<stop offset="1" stop-color="#21A366"/>
</linearGradient>
<linearGradient id="paint3_linear_145_179" x1="58.6531" y1="32.0171" x2="63.9258" y2="46.5028" gradientUnits="userSpaceOnUse">
<stop stop-color="#F09CA2"/>
<stop offset="1" stop-color="#EB6773"/>
</linearGradient>
<linearGradient id="paint4_linear_145_179" x1="59.6215" y1="43.5324" x2="64.5135" y2="56.9734" gradientUnits="userSpaceOnUse">
<stop stop-color="#32BDEF"/>
<stop offset="1" stop-color="#1EA2E4"/>
</linearGradient>
</defs>
</svg>
