<svg width="80" height="80" viewBox="0 0 80 80" fill="none" xmlns="http://www.w3.org/2000/svg">
<rect width="80" height="80" rx="40" fill="#EBEBEB"/>
<mask id="mask0_19_167" style="mask-type:luminance" maskUnits="userSpaceOnUse" x="0" y="0" width="80" height="80">
<rect width="80" height="80" rx="40" fill="white"/>
</mask>
<g mask="url(#mask0_19_167)">
</g>
<path d="M18.5063 59.0438L18.8728 58.5328L36.1659 25.7276L36.2026 25.3804L28.5803 11.0629C28.4407 10.8011 28.2224 10.5898 27.9561 10.4589C27.6899 10.328 27.3892 10.2841 27.0967 10.3334C26.8041 10.3828 26.5345 10.5229 26.3259 10.7339C26.1174 10.9449 25.9805 11.2161 25.9345 11.5093L18.5063 59.0438Z" fill="#FFC24A"/>
<path d="M18.7219 58.6556L18.9979 58.1166L36.112 25.6521L28.5091 11.2785C28.3837 11.0286 28.1807 10.8259 27.9305 10.701C27.6803 10.5761 27.3964 10.5357 27.1212 10.5857C26.8461 10.6357 26.5946 10.7735 26.4043 10.9785C26.2141 11.1835 26.0954 11.4446 26.066 11.7227L18.7219 58.6556Z" fill="#FFA712"/>
<path d="M41.7593 36.2091L47.4345 30.3872L41.7571 19.5607C41.6322 19.3277 41.4463 19.1329 41.2195 18.9971C40.9926 18.8614 40.7331 18.7897 40.4687 18.7897C40.2044 18.7897 39.9449 18.8614 39.718 18.9971C39.4912 19.1329 39.3053 19.3277 39.1804 19.5607L36.1465 25.3437V25.8375L41.7593 36.2091Z" fill="#F4BD62"/>
<path d="M41.6579 35.9718L47.1758 30.3225L41.6579 19.8C41.5676 19.5722 41.4133 19.3754 41.2137 19.2333C41.0141 19.0913 40.7776 19.01 40.5328 18.9993C40.2881 18.9885 40.0454 19.0489 39.8341 19.173C39.6228 19.297 39.452 19.4796 39.3421 19.6986L36.2932 25.583L36.2026 25.8827L41.6579 35.9718Z" fill="#FFA50E"/>
<path d="M18.5106 59.0459L18.6766 58.8777L19.2782 58.6341L41.4013 36.5929L41.6816 35.8296L36.1638 25.3114L18.5106 59.0459Z" fill="#F6820C"/>
<path d="M42.4665 70.1613L62.4938 58.9941L56.7711 23.7804C56.73 23.5321 56.6214 23.3 56.4571 23.1095C56.2928 22.9189 56.0792 22.7773 55.8397 22.7002C55.6002 22.6232 55.3441 22.6136 55.0994 22.6725C54.8548 22.7314 54.6312 22.8566 54.4531 23.0343L18.5063 59.0437L38.4149 70.1592C39.0338 70.5045 39.7308 70.6859 40.4396 70.6859C41.1484 70.6859 41.8454 70.5045 42.4643 70.1592" fill="#FDE068"/>
<path d="M62.3105 58.9014L56.6352 23.9529C56.6252 23.7154 56.545 23.4863 56.4047 23.2945C56.2644 23.1027 56.0703 22.9568 55.8471 22.8753C55.6239 22.7938 55.3815 22.7804 55.1506 22.8367C54.9197 22.893 54.7107 23.0166 54.5501 23.1917L18.7219 58.9768L38.4106 69.9737C39.0246 70.3163 39.716 70.4961 40.4191 70.4961C41.1222 70.4961 41.8137 70.3163 42.4277 69.9737L62.3105 58.9014Z" fill="#FCCA3F"/>
<path d="M42.4665 69.825C41.8476 70.1704 41.1506 70.3517 40.4418 70.3517C39.733 70.3517 39.036 70.1704 38.4171 69.825L18.6701 58.8755L18.5063 59.0437L38.4149 70.1592C39.0338 70.5046 39.7308 70.6859 40.4396 70.6859C41.1484 70.6859 41.8454 70.5046 42.4643 70.1592L62.4938 58.9941L62.4442 58.6923L42.4665 69.825Z" fill="#EEAB37"/>
</svg>
