<svg width="111" height="125" viewBox="0 0 111 125" fill="none" xmlns="http://www.w3.org/2000/svg">
<rect width="111" height="124.232" rx="13" fill="#D9D9D9"/>
<rect x="25.7285" y="22.0529" width="58.8079" height="58.808" rx="29.404" fill="#EBEBEB"/>
<mask id="mask0_145_149" style="mask-type:luminance" maskUnits="userSpaceOnUse" x="25" y="22" width="60" height="59">
<rect x="25.7285" y="22.0529" width="58.8079" height="58.808" rx="29.404" fill="white"/>
</mask>
<g mask="url(#mask0_145_149)">
</g>
<path d="M39.3326 65.4558L39.602 65.0802L52.3142 40.9651L52.3412 40.7099L46.738 30.1851C46.6354 29.9927 46.4749 29.8373 46.2792 29.7411C46.0835 29.6449 45.8624 29.6126 45.6474 29.6489C45.4323 29.6852 45.2341 29.7882 45.0808 29.9433C44.9275 30.0984 44.8269 30.2978 44.7931 30.5132L39.3326 65.4558Z" fill="#FFC24A"/>
<path d="M39.4911 65.1705L39.694 64.7742L52.2746 40.9096L46.6857 30.3436C46.5935 30.1599 46.4443 30.0109 46.2604 29.9191C46.0764 29.8273 45.8677 29.7975 45.6654 29.8343C45.4632 29.8711 45.2783 29.9724 45.1385 30.1231C44.9986 30.2738 44.9114 30.4657 44.8898 30.6701L39.4911 65.1705Z" fill="#FFA712"/>
<path d="M56.4258 48.67L60.5977 44.3903L56.4242 36.4318C56.3324 36.2605 56.1958 36.1173 56.029 36.0175C55.8623 35.9177 55.6715 35.865 55.4772 35.865C55.2828 35.865 55.0921 35.9177 54.9253 36.0175C54.7585 36.1173 54.622 36.2605 54.5301 36.4318L52.2999 40.6829V41.0459L56.4258 48.67Z" fill="#F4BD62"/>
<path d="M56.3513 48.4957L60.4075 44.3429L56.3513 36.6078C56.2849 36.4404 56.1715 36.2957 56.0248 36.1913C55.878 36.0868 55.7042 36.0271 55.5243 36.0192C55.3443 36.0113 55.166 36.0557 55.0106 36.1469C54.8553 36.2381 54.7297 36.3723 54.649 36.5333L52.4077 40.8589L52.3411 41.0792L56.3513 48.4957Z" fill="#FFA50E"/>
<path d="M39.3358 65.4574L39.4578 65.3338L39.9 65.1547L56.1627 48.9522L56.3688 48.3911L52.3126 40.6592L39.3358 65.4574Z" fill="#F6820C"/>
<path d="M56.9457 73.6284L71.6678 65.4194L67.461 39.5338C67.4309 39.3513 67.351 39.1807 67.2302 39.0406C67.1094 38.9006 66.9524 38.7965 66.7764 38.7398C66.6003 38.6831 66.412 38.6761 66.2322 38.7194C66.0524 38.7627 65.888 38.8548 65.7571 38.9854L39.3326 65.4559L53.9674 73.6268C54.4224 73.8807 54.9348 74.014 55.4558 74.014C55.9768 74.014 56.4892 73.8807 56.9442 73.6268" fill="#FDE068"/>
<path d="M71.533 65.3512L67.3612 39.6606C67.3538 39.4861 67.2948 39.3176 67.1917 39.1766C67.0886 39.0356 66.9459 38.9284 66.7818 38.8685C66.6177 38.8086 66.4395 38.7987 66.2698 38.8401C66.1001 38.8815 65.9465 38.9723 65.8284 39.1011L39.4911 65.4067L53.9643 73.4905C54.4156 73.7423 54.9239 73.8745 55.4407 73.8745C55.9576 73.8745 56.4658 73.7423 56.9172 73.4905L71.533 65.3512Z" fill="#FCCA3F"/>
<path d="M56.9457 73.381C56.4908 73.6349 55.9784 73.7682 55.4574 73.7682C54.9363 73.7682 54.424 73.6349 53.969 73.381L39.453 65.3321L39.3326 65.4558L53.9674 73.6267C54.4224 73.8806 54.9348 74.0139 55.4558 74.0139C55.9768 74.0139 56.4892 73.8806 56.9442 73.6267L71.6678 65.4193L71.6313 65.1974L56.9457 73.381Z" fill="#EEAB37"/>
<path d="M30.5481 99.7417V90.7977H31.4971V99.7417H30.5481ZM31.1721 95.6987V94.8277H35.9691V95.6987H31.1721ZM31.1721 91.6687V90.7977H36.1901V91.6687H31.1721ZM37.703 99.7417V93.6317H38.626V99.7417H37.703ZM38.158 92.3057C37.9847 92.3057 37.8374 92.245 37.716 92.1237C37.5947 91.9937 37.534 91.842 37.534 91.6687C37.534 91.4867 37.5947 91.335 37.716 91.2137C37.8374 91.0924 37.9847 91.0317 38.158 91.0317C38.3487 91.0317 38.5004 91.0924 38.613 91.2137C38.7344 91.335 38.795 91.4867 38.795 91.6687C38.795 91.842 38.7344 91.9937 38.613 92.1237C38.5004 92.245 38.3487 92.3057 38.158 92.3057ZM40.4706 99.7417V93.6317H41.3806V99.7417H40.4706ZM41.3806 96.1797L41.0036 96.0107C41.0036 95.2394 41.1899 94.6284 41.5626 94.1777C41.9439 93.727 42.4639 93.5017 43.1226 93.5017C43.4259 93.5017 43.7033 93.558 43.9546 93.6707C44.2059 93.7747 44.4399 93.9437 44.6566 94.1777L44.0586 94.8147C43.9113 94.65 43.7466 94.533 43.5646 94.4637C43.3913 94.3944 43.1919 94.3597 42.9666 94.3597C42.4986 94.3597 42.1173 94.5157 41.8226 94.8277C41.5279 95.131 41.3806 95.5817 41.3806 96.1797ZM48.2301 99.8717C47.6148 99.8717 47.0644 99.733 46.5791 99.4557C46.0938 99.1784 45.7081 98.797 45.4221 98.3117C45.1448 97.8264 45.0061 97.2804 45.0061 96.6737C45.0061 96.0757 45.1448 95.5384 45.4221 95.0617C45.6994 94.5764 46.0764 94.195 46.5531 93.9177C47.0298 93.6404 47.5628 93.5017 48.1521 93.5017C48.7068 93.5017 49.1964 93.6274 49.6211 93.8787C50.0544 94.13 50.3924 94.481 50.6351 94.9317C50.8864 95.3737 51.0121 95.885 51.0121 96.4657C51.0121 96.535 51.0078 96.6174 50.9991 96.7127C50.9904 96.7994 50.9731 96.9034 50.9471 97.0247H45.6561V96.2447H50.4531L50.1281 96.5307C50.1368 96.08 50.0588 95.6944 49.8941 95.3737C49.7381 95.0444 49.5084 94.793 49.2051 94.6197C48.9104 94.4377 48.5508 94.3467 48.1261 94.3467C47.6841 94.3467 47.2984 94.442 46.9691 94.6327C46.6398 94.8234 46.3798 95.092 46.1891 95.4387C46.0071 95.7767 45.9161 96.1797 45.9161 96.6477C45.9161 97.1157 46.0114 97.5274 46.2021 97.8827C46.4014 98.238 46.6744 98.5154 47.0211 98.7147C47.3764 98.914 47.7838 99.0137 48.2431 99.0137C48.6158 99.0137 48.9581 98.9487 49.2701 98.8187C49.5821 98.68 49.8464 98.4764 50.0631 98.2077L50.6481 98.8057C50.3621 99.1437 50.0068 99.408 49.5821 99.5987C49.1661 99.7807 48.7154 99.8717 48.2301 99.8717ZM55.5632 99.8717C55.0952 99.8717 54.6749 99.7764 54.3022 99.5857C53.9295 99.395 53.6219 99.135 53.3792 98.8057C53.1452 98.4677 53.0022 98.0777 52.9502 97.6357V95.7247C53.0022 95.274 53.1495 94.884 53.3922 94.5547C53.6349 94.2167 53.9425 93.9567 54.3152 93.7747C54.6965 93.5927 55.1125 93.5017 55.5632 93.5017C56.1265 93.5017 56.6335 93.6447 57.0842 93.9307C57.5349 94.208 57.8902 94.5894 58.1502 95.0747C58.4189 95.5514 58.5532 96.093 58.5532 96.6997C58.5532 97.2977 58.4232 97.835 58.1632 98.3117C57.9032 98.7884 57.5435 99.1697 57.0842 99.4557C56.6335 99.733 56.1265 99.8717 55.5632 99.8717ZM55.4072 99.0007C55.8405 99.0007 56.2219 98.9054 56.5512 98.7147C56.8805 98.5154 57.1362 98.2424 57.3182 97.8957C57.5089 97.5404 57.6042 97.1374 57.6042 96.6867C57.6042 96.2274 57.5089 95.8244 57.3182 95.4777C57.1362 95.131 56.8805 94.858 56.5512 94.6587C56.2219 94.4594 55.8449 94.3597 55.4202 94.3597C54.9955 94.3597 54.6185 94.4594 54.2892 94.6587C53.9685 94.858 53.7172 95.131 53.5352 95.4777C53.3532 95.8244 53.2622 96.2274 53.2622 96.6867C53.2622 97.1374 53.3532 97.5404 53.5352 97.8957C53.7172 98.2424 53.9685 98.5154 54.2892 98.7147C54.6099 98.9054 54.9825 99.0007 55.4072 99.0007ZM52.4042 99.7417V90.5377H53.3142V95.1267L53.1322 96.5957L53.3142 98.1037V99.7417H52.4042ZM62.6607 99.8717C62.08 99.8717 61.56 99.733 61.1007 99.4557C60.6414 99.1697 60.2774 98.7884 60.0087 98.3117C59.7487 97.835 59.6187 97.2977 59.6187 96.6997C59.6187 96.093 59.7487 95.5514 60.0087 95.0747C60.2774 94.5894 60.6414 94.208 61.1007 93.9307C61.56 93.6447 62.0757 93.5017 62.6477 93.5017C63.1157 93.5017 63.5317 93.597 63.8957 93.7877C64.2684 93.9697 64.5674 94.2297 64.7927 94.5677C65.0267 94.897 65.1697 95.2827 65.2217 95.7247V97.6357C65.1697 98.0777 65.0267 98.4677 64.7927 98.8057C64.5674 99.1437 64.2684 99.408 63.8957 99.5987C63.5317 99.7807 63.12 99.8717 62.6607 99.8717ZM62.8037 99.0007C63.4364 99.0007 63.9434 98.7884 64.3247 98.3637C64.7147 97.939 64.9097 97.38 64.9097 96.6867C64.9097 96.2274 64.8187 95.8244 64.6367 95.4777C64.4634 95.1224 64.2164 94.8494 63.8957 94.6587C63.5837 94.4594 63.2154 94.3597 62.7907 94.3597C62.3574 94.3597 61.9717 94.4594 61.6337 94.6587C61.3044 94.858 61.04 95.1354 60.8407 95.4907C60.65 95.8374 60.5547 96.236 60.5547 96.6867C60.5547 97.1374 60.65 97.536 60.8407 97.8827C61.04 98.2294 61.3087 98.5024 61.6467 98.7017C61.9847 98.901 62.3704 99.0007 62.8037 99.0007ZM64.8577 99.7417V98.1037L65.0397 96.5957L64.8577 95.1267V93.6317H65.7677V99.7417H64.8577ZM69.4852 99.8717C69.1559 99.8717 68.8395 99.8284 68.5362 99.7417C68.2329 99.6464 67.9555 99.5164 67.7042 99.3517C67.4615 99.187 67.2492 98.992 67.0672 98.7667L67.6522 98.1687C67.8949 98.4634 68.1679 98.6844 68.4712 98.8317C68.7832 98.9704 69.1299 99.0397 69.5112 99.0397C69.9185 99.0397 70.2349 98.9617 70.4602 98.8057C70.6942 98.6497 70.8112 98.433 70.8112 98.1557C70.8112 97.8957 70.7289 97.692 70.5642 97.5447C70.3995 97.3974 70.1872 97.2804 69.9272 97.1937C69.6759 97.107 69.4072 97.0247 69.1212 96.9467C68.8352 96.86 68.5622 96.756 68.3022 96.6347C68.0422 96.5047 67.8299 96.327 67.6652 96.1017C67.5092 95.8764 67.4312 95.5817 67.4312 95.2177C67.4312 94.871 67.5135 94.572 67.6782 94.3207C67.8515 94.0607 68.0942 93.8614 68.4062 93.7227C68.7269 93.5754 69.1039 93.5017 69.5372 93.5017C69.9965 93.5017 70.4125 93.584 70.7852 93.7487C71.1579 93.9134 71.4569 94.156 71.6822 94.4767L71.0972 95.0617C70.9152 94.8277 70.6855 94.65 70.4082 94.5287C70.1395 94.3987 69.8362 94.3337 69.4982 94.3337C69.1082 94.3337 68.8092 94.4117 68.6012 94.5677C68.4019 94.715 68.3022 94.91 68.3022 95.1527C68.3022 95.3867 68.3845 95.573 68.5492 95.7117C68.7139 95.8417 68.9219 95.95 69.1732 96.0367C69.4332 96.1147 69.7062 96.197 69.9922 96.2837C70.2782 96.3617 70.5512 96.47 70.8112 96.6087C71.0712 96.7387 71.2792 96.9207 71.4352 97.1547C71.5999 97.38 71.6822 97.6877 71.6822 98.0777C71.6822 98.6237 71.4829 99.0614 71.0842 99.3907C70.6942 99.7114 70.1612 99.8717 69.4852 99.8717ZM75.944 99.8717C75.3286 99.8717 74.7783 99.733 74.293 99.4557C73.8076 99.1784 73.422 98.797 73.136 98.3117C72.8586 97.8264 72.72 97.2804 72.72 96.6737C72.72 96.0757 72.8586 95.5384 73.136 95.0617C73.4133 94.5764 73.7903 94.195 74.267 93.9177C74.7436 93.6404 75.2766 93.5017 75.866 93.5017C76.4206 93.5017 76.9103 93.6274 77.335 93.8787C77.7683 94.13 78.1063 94.481 78.349 94.9317C78.6003 95.3737 78.726 95.885 78.726 96.4657C78.726 96.535 78.7216 96.6174 78.713 96.7127C78.7043 96.7994 78.687 96.9034 78.661 97.0247H73.37V96.2447H78.167L77.842 96.5307C77.8506 96.08 77.7726 95.6944 77.608 95.3737C77.452 95.0444 77.2223 94.793 76.919 94.6197C76.6243 94.4377 76.2646 94.3467 75.84 94.3467C75.398 94.3467 75.0123 94.442 74.683 94.6327C74.3536 94.8234 74.0936 95.092 73.903 95.4387C73.721 95.7767 73.63 96.1797 73.63 96.6477C73.63 97.1157 73.7253 97.5274 73.916 97.8827C74.1153 98.238 74.3883 98.5154 74.735 98.7147C75.0903 98.914 75.4976 99.0137 75.957 99.0137C76.3296 99.0137 76.672 98.9487 76.984 98.8187C77.296 98.68 77.5603 98.4764 77.777 98.2077L78.362 98.8057C78.076 99.1437 77.7206 99.408 77.296 99.5987C76.88 99.7807 76.4293 99.8717 75.944 99.8717Z" fill="black"/>
</svg>
