<svg width="87" height="87" viewBox="0 0 87 87" fill="none" xmlns="http://www.w3.org/2000/svg">
<rect x="4" y="5" width="80" height="80" rx="40" fill="white"/>
<mask id="mask0_19_168" style="mask-type:luminance" maskUnits="userSpaceOnUse" x="4" y="5" width="80" height="80">
<rect x="4" y="5" width="80" height="80" rx="40" fill="white"/>
</mask>
<g mask="url(#mask0_19_168)">
</g>
<path fill-rule="evenodd" clip-rule="evenodd" d="M44.2421 1.81252C23.7811 1.79171 6.33028 16.6248 3.05422 36.8216C-0.22182 57.0187 11.6457 76.6075 31.0641 83.0553C33.1623 83.4391 33.9044 82.1341 33.9044 81.0336C33.9044 79.9334 33.9044 77.4256 33.9044 73.9456C22.2618 76.4791 19.8053 68.3417 19.8053 68.3417C19.0329 65.8198 17.392 63.6532 15.1738 62.2264C11.4123 59.6675 15.4809 59.6675 15.4809 59.6675C18.1526 60.0448 20.5022 61.6301 21.8523 63.9664C22.9959 66.0399 24.918 67.5722 27.194 68.2254C29.47 68.8782 31.9123 68.598 33.9812 67.4464C34.1418 65.3413 35.0493 63.3628 36.54 61.8682C27.277 60.8191 17.5535 57.2366 17.5535 41.3975C17.4899 37.2599 19.02 33.2562 21.8268 30.2154C20.5767 26.6178 20.7228 22.682 22.2362 19.1869C22.2362 19.1869 25.7418 18.061 33.6997 23.4601C40.5333 21.5839 47.746 21.5839 54.5798 23.4601C62.5378 18.061 66.0178 19.1869 66.0178 19.1869C67.5522 22.645 67.7346 26.5526 66.5293 30.1387C69.3361 33.1794 70.8662 37.1831 70.8028 41.3206C70.8028 57.3391 61.0537 60.8445 51.765 61.7914C53.7801 63.817 54.8165 66.618 54.6052 69.4677C54.6052 75.0462 54.6052 79.5495 54.6052 80.9056C54.6052 82.2617 55.3472 83.3112 57.4711 82.9016C76.659 76.287 88.2938 56.8139 85.0258 36.7825C81.7579 16.7515 64.5373 1.98572 44.2421 1.81252Z" fill="#758CA3"/>
</svg>
