<svg width="111" height="125" viewBox="0 0 111 125" fill="none" xmlns="http://www.w3.org/2000/svg">
<rect x="1" y="1" width="109" height="122.232" rx="12" stroke="white" stroke-opacity="0.48" stroke-width="2"/>
<rect x="26.4636" y="24.9933" width="58.808" height="58.8079" rx="29.404" fill="white"/>
<mask id="mask0_222_43" style="mask-type:luminance" maskUnits="userSpaceOnUse" x="26" y="24" width="60" height="60">
<rect x="26.4636" y="24.9933" width="58.808" height="58.8079" rx="29.404" fill="white"/>
</mask>
<g mask="url(#mask0_222_43)">
</g>
<path fill-rule="evenodd" clip-rule="evenodd" d="M56.0455 22.6503C41.0047 22.635 28.1766 33.5388 25.7683 48.3855C23.3601 63.2323 32.0839 77.632 46.3584 82.3718C47.9008 82.654 48.4463 81.6947 48.4463 80.8856C48.4463 80.0769 48.4463 78.2334 48.4463 75.6753C39.8878 77.5377 38.0821 71.5559 38.0821 71.5559C37.5143 69.702 36.308 68.1093 34.6775 67.0605C31.9124 65.1794 34.9032 65.1794 34.9032 65.1794C36.8671 65.4568 38.5943 66.6221 39.5868 68.3395C40.4274 69.8638 41.8404 70.9902 43.5135 71.4703C45.1866 71.9503 46.9819 71.7443 48.5027 70.8977C48.6208 69.3503 49.2879 67.8959 50.3837 66.7972C43.5745 66.026 36.4268 63.3925 36.4268 51.7492C36.38 48.7076 37.5047 45.7645 39.568 43.5293C38.6491 40.8846 38.7565 37.9914 39.869 35.4222C39.869 35.4222 42.4459 34.5946 48.2958 38.5634C53.3192 37.1842 58.6212 37.1842 63.6448 38.5634C69.4947 34.5946 72.0528 35.4222 72.0528 35.4222C73.1808 37.9642 73.3148 40.8367 72.4288 43.4728C74.4921 45.7081 75.6169 48.6511 75.5703 51.6927C75.5703 63.4679 68.4037 66.0447 61.5756 66.7407C63.0569 68.2298 63.8188 70.2888 63.6634 72.3835C63.6634 76.4843 63.6634 79.7947 63.6634 80.7916C63.6634 81.7885 64.2089 82.5599 65.7702 82.2588C79.8751 77.3964 88.4279 63.0818 86.0256 48.3567C83.6234 33.6319 70.9645 22.7776 56.0455 22.6503Z" fill="#758CA3"/>
<path d="M51.4983 104.269C50.8656 104.269 50.2763 104.152 49.7303 103.918C49.1843 103.684 48.7076 103.359 48.3003 102.943C47.8929 102.527 47.5766 102.042 47.3513 101.487C47.1259 100.924 47.0133 100.317 47.0133 99.6673C47.0133 99.0173 47.1259 98.415 47.3513 97.8603C47.5853 97.3057 47.9059 96.8203 48.3133 96.4043C48.7206 95.9797 49.2016 95.6503 49.7563 95.4163C50.3109 95.1823 50.9133 95.0653 51.5633 95.0653C52.2826 95.0653 52.9413 95.2083 53.5393 95.4943C54.1459 95.7803 54.6443 96.1833 55.0343 96.7033L54.3713 97.3663C54.0593 96.9243 53.6606 96.5863 53.1753 96.3523C52.6899 96.1097 52.1526 95.9883 51.5633 95.9883C50.8613 95.9883 50.2416 96.1487 49.7043 96.4693C49.1669 96.7813 48.7466 97.2147 48.4433 97.7693C48.1486 98.324 48.0013 98.961 48.0013 99.6803C48.0013 100.391 48.1486 101.024 48.4433 101.578C48.7466 102.133 49.1583 102.571 49.6783 102.891C50.2069 103.203 50.8049 103.359 51.4723 103.359C52.1396 103.359 52.7159 103.225 53.2013 102.956C53.6953 102.688 54.0723 102.298 54.3323 101.786C54.6009 101.275 54.7396 100.66 54.7483 99.9403L55.2943 100.343H51.3813V99.4723H55.7363V99.6153C55.7363 100.621 55.5543 101.47 55.1903 102.163C54.8349 102.857 54.3409 103.381 53.7083 103.736C53.0756 104.092 52.3389 104.269 51.4983 104.269ZM57.289 104.152V98.0423H58.212V104.152H57.289ZM57.744 96.7163C57.5706 96.7163 57.4233 96.6557 57.302 96.5343C57.1806 96.4043 57.12 96.2527 57.12 96.0793C57.12 95.8973 57.1806 95.7457 57.302 95.6243C57.4233 95.503 57.5706 95.4423 57.744 95.4423C57.9346 95.4423 58.0863 95.503 58.199 95.6243C58.3203 95.7457 58.381 95.8973 58.381 96.0793C58.381 96.2527 58.3203 96.4043 58.199 96.5343C58.0863 96.6557 57.9346 96.7163 57.744 96.7163ZM61.0055 104.152V95.4683H61.9155V104.152H61.0055ZM59.4585 98.8613V98.0423H63.4495V98.8613H59.4585Z" fill="white"/>
</svg>
