<svg width="111" height="125" viewBox="0 0 111 125" fill="none" xmlns="http://www.w3.org/2000/svg">
<rect width="111" height="124.232" rx="13" fill="#D9D9D9"/>
<rect x="25.7285" y="21.3179" width="58.808" height="58.8079" rx="29.404" fill="#E44E25"/>
<mask id="mask0_145_67" style="mask-type:luminance" maskUnits="userSpaceOnUse" x="25" y="21" width="60" height="60">
<rect x="25.7285" y="21.3179" width="58.808" height="58.8079" rx="29.404" fill="white"/>
</mask>
<g mask="url(#mask0_145_67)">
<path d="M43.3708 35.2847H45.0396V37.136H46.9356V35.2847H48.6041V40.6166H46.9356V38.4691H45.0396V40.6166H43.3708V35.2847Z" fill="white"/>
<path d="M49.2866 35.2847H54.4437V36.5435H52.6994V40.6166H51.0309V36.5435H49.2866V35.2847Z" fill="white"/>
<path d="M55.1265 35.2847H57.3258L58.1636 38.5409L58.993 35.2847H61.1939V40.6166H59.8286V36.5739L58.7987 40.6166H57.532L56.4917 36.5739V40.6166H55.1265V35.2847Z" fill="white"/>
<path d="M62.2556 35.2847H63.9239V39.2837H66.5787V40.6166H62.2556V35.2847Z" fill="white"/>
<path d="M55.388 56.2642H55.3755H47.2876L46.3979 46.5244L46.3113 45.5762H55.3755H55.388H64.443L64.3566 46.5244L64.1916 48.3162L64.1189 49.1106H64.1074H55.388H55.3755H50.2673L50.5981 52.7299H55.3755H55.388H62.814H63.7895L63.7011 53.6791L62.8506 62.9839L62.7962 63.5812L55.3881 65.5859V65.5865L55.3712 65.5911L47.9565 63.5812L47.4495 58.0316H49.1241H51.0831L51.3409 60.8504L55.3722 61.9133L55.3755 61.9125V61.912L59.4125 60.8483L59.8329 56.2642H55.388Z" fill="white"/>
</g>
<path d="M38.634 99.0067V90.0627H39.583V99.0067H38.634ZM44.497 99.0067V90.0627H45.446V99.0067H44.497ZM39.258 94.8207V93.9497H44.757V94.8207H39.258ZM48.4645 99.0067V90.3227H49.3745V99.0067H48.4645ZM46.9175 93.7157V92.8967H50.9085V93.7157H46.9175ZM52.162 99.0067V92.8967H53.072V99.0067H52.162ZM56.361 99.0067V95.2627C56.361 94.76 56.2093 94.3614 55.906 94.0667C55.6027 93.7634 55.2213 93.6117 54.762 93.6117C54.45 93.6117 54.164 93.681 53.904 93.8197C53.6527 93.9497 53.449 94.136 53.293 94.3787C53.1457 94.6214 53.072 94.9117 53.072 95.2497L52.656 95.0807C52.656 94.6127 52.76 94.2054 52.968 93.8587C53.176 93.512 53.4533 93.2434 53.8 93.0527C54.1553 92.862 54.554 92.7667 54.996 92.7667C55.4293 92.7667 55.815 92.862 56.153 93.0527C56.4997 93.2434 56.7727 93.512 56.972 93.8587C57.18 94.2054 57.284 94.617 57.284 95.0937V99.0067H56.361ZM60.573 99.0067V95.2627C60.573 94.76 60.4213 94.3614 60.118 94.0667C59.8147 93.7634 59.429 93.6117 58.961 93.6117C58.6577 93.6117 58.376 93.681 58.116 93.8197C57.8647 93.9497 57.661 94.136 57.505 94.3787C57.3577 94.6214 57.284 94.9117 57.284 95.2497L56.738 95.0807C56.764 94.6127 56.8853 94.2054 57.102 93.8587C57.3273 93.512 57.6177 93.2434 57.973 93.0527C58.337 92.862 58.7357 92.7667 59.169 92.7667C59.6023 92.7667 59.9923 92.862 60.339 93.0527C60.6943 93.2434 60.9717 93.512 61.171 93.8587C61.379 94.2054 61.483 94.617 61.483 95.0937V99.0067H60.573ZM63.1942 99.0067V89.8027H64.1042V99.0067H63.1942ZM68.2501 99.1367C67.6608 99.1367 67.1321 99.024 66.6641 98.7987C66.1961 98.5734 65.8018 98.2484 65.4811 97.8237L66.1181 97.1867C66.3348 97.516 66.6251 97.776 66.9891 97.9667C67.3618 98.1487 67.7778 98.2397 68.2371 98.2397C68.6705 98.2397 69.0518 98.1574 69.3811 97.9927C69.7105 97.8194 69.9661 97.581 70.1481 97.2777C70.3388 96.9657 70.4341 96.6017 70.4341 96.1857C70.4341 95.761 70.3431 95.397 70.1611 95.0937C69.9791 94.7817 69.7321 94.5434 69.4201 94.3787C69.1081 94.214 68.7571 94.1317 68.3671 94.1317C67.9945 94.1317 67.6521 94.1837 67.3401 94.2877C67.0368 94.383 66.7595 94.539 66.5081 94.7557L66.4821 94.1317C66.6381 93.9584 66.8158 93.8154 67.0151 93.7027C67.2145 93.59 67.4355 93.5034 67.6781 93.4427C67.9295 93.382 68.2068 93.3517 68.5101 93.3517C69.1081 93.3517 69.6238 93.4817 70.0571 93.7417C70.4905 93.993 70.8198 94.3354 71.0451 94.7687C71.2791 95.202 71.3961 95.6917 71.3961 96.2377C71.3961 96.801 71.2618 97.2994 70.9931 97.7327C70.7245 98.166 70.3518 98.5084 69.8751 98.7597C69.4071 99.011 68.8655 99.1367 68.2501 99.1367ZM66.5081 94.7557L66.0011 94.2357L66.3911 90.0627H67.2621L66.8331 94.3267L66.5081 94.7557ZM66.6251 90.9077L66.3911 90.0627H70.9931V90.9077H66.6251Z" fill="black"/>
</svg>
