<svg width="80" height="80" viewBox="0 0 80 80" fill="none" xmlns="http://www.w3.org/2000/svg">
<rect width="80" height="80" rx="40" fill="#E44E25"/>
<mask id="mask0_18_482" style="mask-type:luminance" maskUnits="userSpaceOnUse" x="0" y="0" width="80" height="80">
<rect width="80" height="80" rx="40" fill="white"/>
</mask>
<g mask="url(#mask0_18_482)">
<path d="M24 19H26.2701V21.5184H28.8493V19H31.1191V26.2534H28.8493V23.332H26.2701V26.2534H24V19Z" fill="white"/>
<path d="M32.0475 19H39.0632V20.7125H36.6903V26.2534H34.4205V20.7125H32.0475V19Z" fill="white"/>
<path d="M39.992 19H42.9838L44.1235 23.4296L45.2518 19H48.2458V26.2534H46.3885V20.7538L44.9875 26.2534H43.2643L41.8491 20.7538V26.2534H39.992V19Z" fill="white"/>
<path d="M49.6901 19H51.9595V24.4401H55.571V26.2534H49.6901V19Z" fill="white"/>
<path d="M40.3476 47.5396H40.3306H29.3281L28.1179 34.2899L28 33H40.3306H40.3476H52.6657L52.5481 34.2899L52.3237 36.7274L52.2248 37.8081H52.2091H40.3476H40.3306H33.3816L33.8316 42.7317H40.3306H40.3476H50.4497H51.7767L51.6564 44.0228L50.4995 56.6808L50.4254 57.4933L40.3477 60.2204V60.2212L40.3248 60.2275L30.238 57.4933L29.5484 49.9439H31.8265H34.4914L34.8421 53.7784L40.3261 55.2244L40.3306 55.2233V55.2227L45.8223 53.7755L46.3943 47.5396H40.3476Z" fill="white"/>
</g>
</svg>
