<svg width="111" height="125" viewBox="0 0 111 125" fill="none" xmlns="http://www.w3.org/2000/svg">
<rect width="111" height="124.232" rx="14" fill="#D9D9D9"/>
<rect x="26.4636" y="21.3179" width="58.808" height="58.8079" rx="29.404" fill="#E6E6CF"/>
<mask id="mask0_145_95" style="mask-type:luminance" maskUnits="userSpaceOnUse" x="26" y="21" width="60" height="60">
<rect x="26.4636" y="21.3179" width="58.808" height="58.8079" rx="29.404" fill="white"/>
</mask>
<g mask="url(#mask0_145_95)">
</g>
<g clip-path="url(#clip0_145_95)">
<path d="M43.0156 64.6683L40.4304 33.1385L71.3046 33.2019L68.571 64.6683L55.984 68.3054L43.0156 64.6683Z" fill="#E9CA32"/>
<path d="M55.984 65.2604V36.1414L68.6982 36.1836L66.4309 62.2363L55.984 65.2604Z" fill="#FFDE25"/>
<path d="M54.6226 39.5989H51.2613V58.9798L48.6469 58.4828V55.8739L45.5346 55.3769V61.216L54.6226 63.5765V39.5989ZM57.144 39.5989H66.4494L65.8269 43.3135H60.6963V49.4093H65.8269L65.2044 61.713L57.144 63.5765V59.7252L62.5901 57.8616L62.9046 52.768L57.144 53.6003V39.5989Z" fill="white"/>
</g>
<path d="M27.7494 99.1367C27.2467 99.1367 26.8047 99.0414 26.4234 98.8507C26.0507 98.6514 25.7301 98.3827 25.4614 98.0447L26.1374 97.4207C26.3281 97.6807 26.5534 97.88 26.8134 98.0187C27.0734 98.1487 27.3767 98.2137 27.7234 98.2137C28.0354 98.2137 28.3214 98.1487 28.5814 98.0187C28.8414 97.88 29.0494 97.6677 29.2054 97.3817C29.3614 97.0957 29.4394 96.736 29.4394 96.3027V90.0627H30.4014V96.2897C30.4014 96.8877 30.2801 97.399 30.0374 97.8237C29.8034 98.2484 29.4827 98.5734 29.0754 98.7987C28.6767 99.024 28.2347 99.1367 27.7494 99.1367ZM35.0049 99.1367C34.4243 99.1367 33.9043 98.998 33.4449 98.7207C32.9856 98.4347 32.6216 98.0534 32.3529 97.5767C32.0929 97.1 31.9629 96.5627 31.9629 95.9647C31.9629 95.358 32.0929 94.8164 32.3529 94.3397C32.6216 93.8544 32.9856 93.473 33.4449 93.1957C33.9043 92.9097 34.4199 92.7667 34.9919 92.7667C35.4599 92.7667 35.8759 92.862 36.2399 93.0527C36.6126 93.2347 36.9116 93.4947 37.1369 93.8327C37.3709 94.162 37.5139 94.5477 37.5659 94.9897V96.9007C37.5139 97.3427 37.3709 97.7327 37.1369 98.0707C36.9116 98.4087 36.6126 98.673 36.2399 98.8637C35.8759 99.0457 35.4643 99.1367 35.0049 99.1367ZM35.1479 98.2657C35.7806 98.2657 36.2876 98.0534 36.6689 97.6287C37.0589 97.204 37.2539 96.645 37.2539 95.9517C37.2539 95.4924 37.1629 95.0894 36.9809 94.7427C36.8076 94.3874 36.5606 94.1144 36.2399 93.9237C35.9279 93.7244 35.5596 93.6247 35.1349 93.6247C34.7016 93.6247 34.3159 93.7244 33.9779 93.9237C33.6486 94.123 33.3843 94.4004 33.1849 94.7557C32.9943 95.1024 32.8989 95.501 32.8989 95.9517C32.8989 96.4024 32.9943 96.801 33.1849 97.1477C33.3843 97.4944 33.6529 97.7674 33.9909 97.9667C34.3289 98.166 34.7146 98.2657 35.1479 98.2657ZM37.2019 99.0067V97.3687L37.3839 95.8607L37.2019 94.3917V92.8967H38.1119V99.0067H37.2019ZM42.0894 99.0067L39.2684 92.8967H40.2824L42.6614 98.2397H42.0894L44.4814 92.8967H45.4694L42.6224 99.0067H42.0894ZM48.9952 99.1367C48.4145 99.1367 47.8945 98.998 47.4352 98.7207C46.9758 98.4347 46.6118 98.0534 46.3432 97.5767C46.0832 97.1 45.9532 96.5627 45.9532 95.9647C45.9532 95.358 46.0832 94.8164 46.3432 94.3397C46.6118 93.8544 46.9758 93.473 47.4352 93.1957C47.8945 92.9097 48.4102 92.7667 48.9822 92.7667C49.4502 92.7667 49.8662 92.862 50.2302 93.0527C50.6028 93.2347 50.9018 93.4947 51.1272 93.8327C51.3612 94.162 51.5042 94.5477 51.5562 94.9897V96.9007C51.5042 97.3427 51.3612 97.7327 51.1272 98.0707C50.9018 98.4087 50.6028 98.673 50.2302 98.8637C49.8662 99.0457 49.4545 99.1367 48.9952 99.1367ZM49.1382 98.2657C49.7708 98.2657 50.2778 98.0534 50.6592 97.6287C51.0492 97.204 51.2442 96.645 51.2442 95.9517C51.2442 95.4924 51.1532 95.0894 50.9712 94.7427C50.7978 94.3874 50.5508 94.1144 50.2302 93.9237C49.9182 93.7244 49.5498 93.6247 49.1252 93.6247C48.6918 93.6247 48.3062 93.7244 47.9682 93.9237C47.6388 94.123 47.3745 94.4004 47.1752 94.7557C46.9845 95.1024 46.8892 95.501 46.8892 95.9517C46.8892 96.4024 46.9845 96.801 47.1752 97.1477C47.3745 97.4944 47.6432 97.7674 47.9812 97.9667C48.3192 98.166 48.7048 98.2657 49.1382 98.2657ZM51.1922 99.0067V97.3687L51.3742 95.8607L51.1922 94.3917V92.8967H52.1022V99.0067H51.1922ZM55.8197 99.1367C55.4903 99.1367 55.174 99.0934 54.8707 99.0067C54.5673 98.9114 54.29 98.7814 54.0387 98.6167C53.796 98.452 53.5837 98.257 53.4017 98.0317L53.9867 97.4337C54.2293 97.7284 54.5023 97.9494 54.8057 98.0967C55.1177 98.2354 55.4643 98.3047 55.8457 98.3047C56.253 98.3047 56.5693 98.2267 56.7947 98.0707C57.0287 97.9147 57.1457 97.698 57.1457 97.4207C57.1457 97.1607 57.0633 96.957 56.8987 96.8097C56.734 96.6624 56.5217 96.5454 56.2617 96.4587C56.0103 96.372 55.7417 96.2897 55.4557 96.2117C55.1697 96.125 54.8967 96.021 54.6367 95.8997C54.3767 95.7697 54.1643 95.592 53.9997 95.3667C53.8437 95.1414 53.7657 94.8467 53.7657 94.4827C53.7657 94.136 53.848 93.837 54.0127 93.5857C54.186 93.3257 54.4287 93.1264 54.7407 92.9877C55.0613 92.8404 55.4383 92.7667 55.8717 92.7667C56.331 92.7667 56.747 92.849 57.1197 93.0137C57.4923 93.1784 57.7913 93.421 58.0167 93.7417L57.4317 94.3267C57.2497 94.0927 57.02 93.915 56.7427 93.7937C56.474 93.6637 56.1707 93.5987 55.8327 93.5987C55.4427 93.5987 55.1437 93.6767 54.9357 93.8327C54.7363 93.98 54.6367 94.175 54.6367 94.4177C54.6367 94.6517 54.719 94.838 54.8837 94.9767C55.0483 95.1067 55.2563 95.215 55.5077 95.3017C55.7677 95.3797 56.0407 95.462 56.3267 95.5487C56.6127 95.6267 56.8857 95.735 57.1457 95.8737C57.4057 96.0037 57.6137 96.1857 57.7697 96.4197C57.9343 96.645 58.0167 96.9527 58.0167 97.3427C58.0167 97.8887 57.8173 98.3264 57.4187 98.6557C57.0287 98.9764 56.4957 99.1367 55.8197 99.1367ZM62.2394 99.1367C61.6414 99.1367 61.0998 98.998 60.6144 98.7207C60.1378 98.4347 59.7564 98.049 59.4704 97.5637C59.1931 97.0784 59.0544 96.5367 59.0544 95.9387C59.0544 95.3407 59.1931 94.8034 59.4704 94.3267C59.7564 93.8414 60.1378 93.46 60.6144 93.1827C61.0998 92.9054 61.6414 92.7667 62.2394 92.7667C62.6988 92.7667 63.1278 92.8534 63.5264 93.0267C63.9251 93.2 64.2631 93.4427 64.5404 93.7547L63.9424 94.3657C63.7344 94.1317 63.4831 93.954 63.1884 93.8327C62.8938 93.7027 62.5774 93.6377 62.2394 93.6377C61.8061 93.6377 61.4204 93.7374 61.0824 93.9367C60.7444 94.136 60.4801 94.409 60.2894 94.7557C60.0988 95.0937 60.0034 95.488 60.0034 95.9387C60.0034 96.3807 60.0988 96.7794 60.2894 97.1347C60.4801 97.4814 60.7444 97.7544 61.0824 97.9537C61.4204 98.153 61.8061 98.2527 62.2394 98.2527C62.5861 98.2527 62.9068 98.192 63.2014 98.0707C63.4961 97.9407 63.7474 97.7587 63.9554 97.5247L64.5664 98.1357C64.2804 98.4564 63.9338 98.7034 63.5264 98.8767C63.1278 99.05 62.6988 99.1367 62.2394 99.1367ZM65.8432 99.0067V92.8967H66.7532V99.0067H65.8432ZM66.7532 95.4447L66.3762 95.2757C66.3762 94.5044 66.5625 93.8934 66.9352 93.4427C67.3165 92.992 67.8365 92.7667 68.4952 92.7667C68.7985 92.7667 69.0758 92.823 69.3272 92.9357C69.5785 93.0397 69.8125 93.2087 70.0292 93.4427L69.4312 94.0797C69.2838 93.915 69.1192 93.798 68.9372 93.7287C68.7638 93.6594 68.5645 93.6247 68.3392 93.6247C67.8712 93.6247 67.4898 93.7807 67.1952 94.0927C66.9005 94.396 66.7532 94.8467 66.7532 95.4447ZM70.9975 99.0067V92.8967H71.9205V99.0067H70.9975ZM71.4525 91.5707C71.2791 91.5707 71.1318 91.51 71.0105 91.3887C70.8891 91.2587 70.8285 91.107 70.8285 90.9337C70.8285 90.7517 70.8891 90.6 71.0105 90.4787C71.1318 90.3574 71.2791 90.2967 71.4525 90.2967C71.6431 90.2967 71.7948 90.3574 71.9075 90.4787C72.0288 90.6 72.0895 90.7517 72.0895 90.9337C72.0895 91.107 72.0288 91.2587 71.9075 91.3887C71.7948 91.51 71.6431 91.5707 71.4525 91.5707ZM76.924 99.1367C76.456 99.1367 76.0357 99.0414 75.663 98.8507C75.2904 98.66 74.9827 98.4 74.74 98.0707C74.506 97.7327 74.363 97.3427 74.311 96.9007V94.9897C74.363 94.539 74.5104 94.149 74.753 93.8197C74.9957 93.4817 75.3034 93.2217 75.676 93.0397C76.0574 92.8577 76.4734 92.7667 76.924 92.7667C77.4874 92.7667 77.9944 92.9097 78.445 93.1957C78.8957 93.473 79.251 93.8544 79.511 94.3397C79.7797 94.8164 79.914 95.358 79.914 95.9647C79.914 96.5627 79.784 97.1 79.524 97.5767C79.264 98.0534 78.9044 98.4347 78.445 98.7207C77.9944 98.998 77.4874 99.1367 76.924 99.1367ZM76.768 98.2657C77.2014 98.2657 77.5827 98.1704 77.912 97.9797C78.2414 97.7804 78.497 97.5074 78.679 97.1607C78.8697 96.8054 78.965 96.4024 78.965 95.9517C78.965 95.4924 78.8697 95.0894 78.679 94.7427C78.497 94.396 78.2414 94.123 77.912 93.9237C77.5827 93.7244 77.2057 93.6247 76.781 93.6247C76.3564 93.6247 75.9794 93.7244 75.65 93.9237C75.3294 94.123 75.078 94.396 74.896 94.7427C74.714 95.0894 74.623 95.4924 74.623 95.9517C74.623 96.4024 74.714 96.8054 74.896 97.1607C75.078 97.5074 75.3294 97.7804 75.65 97.9797C75.9707 98.1704 76.3434 98.2657 76.768 98.2657ZM73.765 101.581V92.8967H74.675V94.4567L74.493 95.9387L74.675 97.4337V101.581H73.765ZM82.1027 99.0067V90.3227H83.0127V99.0067H82.1027ZM80.5557 93.7157V92.8967H84.5467V93.7157H80.5557Z" fill="black"/>
<defs>
<clipPath id="clip0_145_95">
<rect width="30.8742" height="35.2848" fill="white" transform="translate(40.4304 33.0796)"/>
</clipPath>
</defs>
</svg>
