<svg width="111" height="125" viewBox="0 0 111 125" fill="none" xmlns="http://www.w3.org/2000/svg">
<rect x="1" y="1" width="109" height="122.232" rx="12" stroke="white" stroke-opacity="0.48" stroke-width="2"/>
<g clip-path="url(#clip0_222_45)">
<path d="M56.6027 80.1258C72.842 80.1258 86.0067 66.9612 86.0067 50.7218C86.0067 34.4825 72.842 21.3179 56.6027 21.3179C40.3633 21.3179 27.1987 34.4825 27.1987 50.7218C27.1987 66.9612 40.3633 80.1258 56.6027 80.1258Z" fill="#13AA52"/>
<path d="M64.4625 47.129C62.6052 38.9321 58.2159 36.2369 57.7432 35.2072C57.2264 34.4807 56.7026 33.1886 56.7026 33.1886C56.694 33.1667 56.6802 33.1283 56.6641 33.0909C56.6107 33.8174 56.5832 34.0977 55.8963 34.8305C54.8327 35.6621 49.3757 40.2409 48.9318 49.5537C48.5177 58.2394 55.206 63.4149 56.1105 64.0748L56.2133 64.1477V64.1414C56.219 64.1851 56.5004 66.2089 56.698 68.3533H57.4067C57.573 66.8375 57.8222 65.3319 58.1533 63.8434L58.2107 63.806C58.6153 63.5159 59.0011 63.2004 59.3656 62.8613L59.407 62.824C61.3297 61.0477 64.7864 56.9392 64.7525 50.3888C64.7454 49.2961 64.6484 48.2058 64.4625 47.129ZM56.6228 59.1709C56.6228 59.1709 56.6228 46.9889 57.0248 46.9912C57.3383 46.9912 57.7444 62.7045 57.7444 62.7045C57.1862 62.6373 56.6228 60.1185 56.6228 59.1709Z" fill="white"/>
</g>
<path d="M27.6076 99.0067V90.0627H28.2836L32.1446 96.3937H31.6636L35.5246 90.0627H36.2006V99.0067H35.2386V91.7267L35.4596 91.7787L32.2356 97.0697H31.5596L28.3356 91.7787L28.5566 91.7267V99.0067H27.6076ZM41.0228 99.1367C40.4335 99.1367 39.8961 98.9937 39.4108 98.7077C38.9341 98.4217 38.5528 98.036 38.2668 97.5507C37.9895 97.0654 37.8508 96.5237 37.8508 95.9257C37.8508 95.3364 37.9895 94.8034 38.2668 94.3267C38.5528 93.85 38.9341 93.473 39.4108 93.1957C39.8961 92.9097 40.4335 92.7667 41.0228 92.7667C41.6208 92.7667 42.1581 92.9054 42.6348 93.1827C43.1115 93.46 43.4885 93.8414 43.7658 94.3267C44.0518 94.8034 44.1948 95.3364 44.1948 95.9257C44.1948 96.5324 44.0518 97.0784 43.7658 97.5637C43.4885 98.0404 43.1115 98.4217 42.6348 98.7077C42.1581 98.9937 41.6208 99.1367 41.0228 99.1367ZM41.0228 98.2527C41.4561 98.2527 41.8375 98.153 42.1668 97.9537C42.5048 97.7544 42.7691 97.477 42.9598 97.1217C43.1591 96.7664 43.2588 96.3677 43.2588 95.9257C43.2588 95.4837 43.1591 95.0937 42.9598 94.7557C42.7691 94.409 42.5048 94.136 42.1668 93.9367C41.8375 93.7374 41.4561 93.6377 41.0228 93.6377C40.5981 93.6377 40.2168 93.7374 39.8788 93.9367C39.5408 94.136 39.2765 94.409 39.0858 94.7557C38.8951 95.0937 38.7998 95.4837 38.7998 95.9257C38.7998 96.3764 38.8951 96.7794 39.0858 97.1347C39.2765 97.4814 39.5408 97.7544 39.8788 97.9537C40.2168 98.153 40.5981 98.2527 41.0228 98.2527ZM50.0885 99.0067V95.4187C50.0885 94.8814 49.9281 94.448 49.6075 94.1187C49.2955 93.7807 48.8795 93.6117 48.3595 93.6117C48.0041 93.6117 47.6921 93.6897 47.4235 93.8457C47.1548 94.0017 46.9425 94.214 46.7865 94.4827C46.6305 94.7514 46.5525 95.059 46.5525 95.4057L46.1365 95.1717C46.1365 94.7124 46.2448 94.3007 46.4615 93.9367C46.6781 93.5727 46.9685 93.2867 47.3325 93.0787C47.7051 92.8707 48.1298 92.7667 48.6065 92.7667C49.0745 92.7667 49.4905 92.8794 49.8545 93.1047C50.2185 93.33 50.5001 93.6334 50.6995 94.0147C50.9075 94.396 51.0115 94.812 51.0115 95.2627V99.0067H50.0885ZM45.6425 99.0067V92.8967H46.5525V99.0067H45.6425ZM55.2358 101.711C54.6204 101.711 54.0701 101.594 53.5848 101.36C53.1081 101.134 52.7224 100.814 52.4278 100.398L53.0258 99.7997C53.2684 100.129 53.5761 100.385 53.9488 100.567C54.3214 100.749 54.7591 100.84 55.2618 100.84C55.9551 100.84 56.5054 100.653 56.9128 100.281C57.3288 99.908 57.5368 99.401 57.5368 98.7597V97.2387L57.7188 95.8477L57.5368 94.4697V92.8967H58.4468V98.7597C58.4468 99.349 58.3124 99.8647 58.0438 100.307C57.7751 100.749 57.3981 101.091 56.9128 101.334C56.4361 101.585 55.8771 101.711 55.2358 101.711ZM55.3008 98.9417C54.7374 98.9417 54.2304 98.8074 53.7798 98.5387C53.3291 98.27 52.9738 97.9017 52.7138 97.4337C52.4538 96.9657 52.3238 96.437 52.3238 95.8477C52.3238 95.2584 52.4494 94.734 52.7008 94.2747C52.9608 93.8067 53.3161 93.4384 53.7668 93.1697C54.2174 92.901 54.7244 92.7667 55.2878 92.7667C55.7644 92.7667 56.1891 92.8577 56.5618 93.0397C56.9431 93.2217 57.2464 93.4817 57.4718 93.8197C57.7058 94.149 57.8488 94.539 57.9008 94.9897V96.7187C57.8488 97.1607 57.7058 97.5507 57.4718 97.8887C57.2378 98.218 56.9344 98.478 56.5618 98.6687C56.1891 98.8507 55.7688 98.9417 55.3008 98.9417ZM55.4698 98.0707C55.8944 98.0707 56.2628 97.9797 56.5748 97.7977C56.8954 97.6157 57.1424 97.36 57.3158 97.0307C57.4978 96.6927 57.5888 96.2984 57.5888 95.8477C57.5888 95.4057 57.4978 95.02 57.3158 94.6907C57.1424 94.3614 56.8954 94.1014 56.5748 93.9107C56.2541 93.72 55.8814 93.6247 55.4568 93.6247C55.0321 93.6247 54.6508 93.72 54.3128 93.9107C53.9834 94.1014 53.7234 94.3614 53.5328 94.6907C53.3508 95.02 53.2598 95.4057 53.2598 95.8477C53.2598 96.281 53.3551 96.6667 53.5458 97.0047C53.7364 97.3427 53.9964 97.607 54.3258 97.7977C54.6551 97.9797 55.0364 98.0707 55.4698 98.0707ZM63.0492 99.1367C62.4598 99.1367 61.9225 98.9937 61.4372 98.7077C60.9605 98.4217 60.5792 98.036 60.2932 97.5507C60.0158 97.0654 59.8772 96.5237 59.8772 95.9257C59.8772 95.3364 60.0158 94.8034 60.2932 94.3267C60.5792 93.85 60.9605 93.473 61.4372 93.1957C61.9225 92.9097 62.4598 92.7667 63.0492 92.7667C63.6472 92.7667 64.1845 92.9054 64.6612 93.1827C65.1378 93.46 65.5148 93.8414 65.7922 94.3267C66.0782 94.8034 66.2212 95.3364 66.2212 95.9257C66.2212 96.5324 66.0782 97.0784 65.7922 97.5637C65.5148 98.0404 65.1378 98.4217 64.6612 98.7077C64.1845 98.9937 63.6472 99.1367 63.0492 99.1367ZM63.0492 98.2527C63.4825 98.2527 63.8638 98.153 64.1932 97.9537C64.5312 97.7544 64.7955 97.477 64.9862 97.1217C65.1855 96.7664 65.2852 96.3677 65.2852 95.9257C65.2852 95.4837 65.1855 95.0937 64.9862 94.7557C64.7955 94.409 64.5312 94.136 64.1932 93.9367C63.8638 93.7374 63.4825 93.6377 63.0492 93.6377C62.6245 93.6377 62.2432 93.7374 61.9052 93.9367C61.5672 94.136 61.3028 94.409 61.1122 94.7557C60.9215 95.0937 60.8262 95.4837 60.8262 95.9257C60.8262 96.3764 60.9215 96.7794 61.1122 97.1347C61.3028 97.4814 61.5672 97.7544 61.9052 97.9537C62.2432 98.153 62.6245 98.2527 63.0492 98.2527ZM68.4748 99.0067V98.1227H71.1008C71.8028 98.1227 72.4225 97.971 72.9598 97.6677C73.4972 97.3557 73.9175 96.931 74.2209 96.3937C74.5242 95.8477 74.6758 95.2237 74.6758 94.5217C74.6758 93.8197 74.5242 93.2 74.2209 92.6627C73.9175 92.1254 73.4972 91.705 72.9598 91.4017C72.4225 91.0897 71.8028 90.9337 71.1008 90.9337H68.5008V90.0627H71.1268C71.7768 90.0627 72.3748 90.1754 72.9208 90.4007C73.4755 90.6174 73.9565 90.9294 74.3638 91.3367C74.7798 91.7354 75.1005 92.2077 75.3258 92.7537C75.5512 93.291 75.6639 93.8847 75.6639 94.5347C75.6639 95.1674 75.5512 95.7567 75.3258 96.3027C75.1005 96.8487 74.7842 97.3254 74.3768 97.7327C73.9695 98.1314 73.4885 98.4434 72.9338 98.6687C72.3878 98.894 71.7942 99.0067 71.1528 99.0067H68.4748ZM67.8898 99.0067V90.0627H68.8388V99.0067H67.8898ZM78.1112 99.0067V98.1617H80.9452C81.5345 98.1617 81.9982 97.997 82.3362 97.6677C82.6742 97.3384 82.8432 96.9267 82.8432 96.4327C82.8432 96.112 82.7695 95.8217 82.6222 95.5617C82.4749 95.3017 82.2625 95.098 81.9852 94.9507C81.7165 94.7947 81.3959 94.7167 81.0232 94.7167H78.1112V93.8847H80.8802C81.3655 93.8847 81.7469 93.7547 82.0242 93.4947C82.3102 93.2347 82.4532 92.8664 82.4532 92.3897C82.4532 91.913 82.3015 91.5447 81.9982 91.2847C81.6949 91.0247 81.2875 90.8947 80.7762 90.8947H78.1112V90.0627H80.8022C81.3569 90.0627 81.8292 90.1624 82.2192 90.3617C82.6092 90.561 82.9039 90.8297 83.1032 91.1677C83.3025 91.5057 83.4022 91.887 83.4022 92.3117C83.4022 92.8144 83.2722 93.2477 83.0122 93.6117C82.7522 93.967 82.3709 94.24 81.8682 94.4307L81.9592 94.1187C82.5399 94.3007 82.9905 94.5997 83.3112 95.0157C83.6405 95.4317 83.8052 95.9257 83.8052 96.4977C83.8052 96.9744 83.6882 97.4034 83.4542 97.7847C83.2289 98.1574 82.8952 98.4564 82.4532 98.6817C82.0199 98.8984 81.4955 99.0067 80.8802 99.0067H78.1112ZM77.5002 99.0067V90.0627H78.4492V99.0067H77.5002Z" fill="white"/>
<defs>
<clipPath id="clip0_222_45">
<rect width="58.808" height="58.8079" fill="white" transform="translate(27.1987 21.3179)"/>
</clipPath>
</defs>
</svg>
