<svg width="111" height="125" viewBox="0 0 111 125" fill="none" xmlns="http://www.w3.org/2000/svg">
<rect x="1" y="1" width="109" height="122.232" rx="12" stroke="white" stroke-opacity="0.48" stroke-width="2"/>
<rect x="25.7285" y="22.053" width="58.808" height="58.8079" rx="29.404" fill="white"/>
<mask id="mask0_222_41" style="mask-type:luminance" maskUnits="userSpaceOnUse" x="25" y="22" width="60" height="59">
<rect x="25.7285" y="22.053" width="58.808" height="58.8079" rx="29.404" fill="white"/>
</mask>
<g mask="url(#mask0_222_41)">
</g>
<g clip-path="url(#clip0_222_41)">
<path d="M53.8126 31.3966C54.8319 30.8149 56.1596 30.8123 57.1781 31.3966C62.3018 34.2832 67.4272 37.1652 72.55 40.0535C73.5136 40.5946 74.1581 41.6638 74.1483 42.7707V60.1373C74.1554 61.2901 73.4472 62.3848 72.4307 62.9137C67.3238 65.7843 62.2195 68.6585 57.1135 71.5291C56.0731 72.1222 54.7187 72.0765 53.7108 71.4348C52.1798 70.5499 50.6461 69.6694 49.1149 68.7853C48.802 68.5994 48.4493 68.4513 48.2284 68.1489C48.4237 67.8864 48.7729 67.8537 49.0566 67.7391C49.6957 67.5365 50.2827 67.2113 50.8698 66.8957C51.0183 66.7943 51.1996 66.8332 51.3419 66.9238C52.6511 67.6723 53.9488 68.4424 55.2624 69.1837C55.5426 69.345 55.8264 69.1309 56.0659 68.9977C61.0773 66.1738 66.0949 63.3605 71.1055 60.5357C71.2911 60.4467 71.3938 60.2502 71.3787 60.0474C71.3822 54.3185 71.3796 48.5887 71.3805 42.8598C71.4017 42.6297 71.2682 42.4182 71.0595 42.324C65.9703 39.4665 60.8838 36.6047 55.7955 33.7464C55.7073 33.686 55.6029 33.6536 55.4959 33.6534C55.3889 33.6533 55.2844 33.6854 55.1961 33.7455C50.1077 36.6047 45.0221 39.4692 39.9338 42.3265C39.7259 42.4208 39.5863 42.6288 39.6111 42.8598C39.6119 48.5887 39.6111 54.3185 39.6111 60.0483C39.6022 60.1472 39.624 60.2465 39.6735 60.3327C39.723 60.4189 39.7978 60.4879 39.8878 60.5305C41.2456 61.2982 42.6052 62.0604 43.9639 62.8255C44.7294 63.2363 45.6692 63.4804 46.5126 63.1656C47.2568 62.8995 47.7785 62.1423 47.7643 61.3545C47.7713 55.6591 47.7607 49.9627 47.7695 44.2682C47.7509 44.0153 47.9915 43.8064 48.238 43.8302C48.8905 43.8259 49.5438 43.8215 50.1962 43.832C50.4685 43.8259 50.6559 44.0981 50.6222 44.3528C50.6196 50.0843 50.6293 55.816 50.6179 61.5475C50.6196 63.075 49.9902 64.7371 48.573 65.4845C46.8272 66.3862 44.6694 66.195 42.9446 65.3303C41.4515 64.5873 40.0266 63.7104 38.56 62.9144C37.5408 62.3885 36.8361 61.2894 36.8433 60.1375V42.7707C36.8326 41.6409 37.5027 40.5523 38.4963 40.0191C43.6023 37.1461 48.7074 34.2709 53.8126 31.3966Z" fill="#8CC84B"/>
<path d="M58.267 43.4266C60.494 43.2837 62.878 43.3419 64.882 44.4357C66.4335 45.2739 67.2937 47.0331 67.3211 48.7517C67.2778 48.9835 67.0347 49.1114 66.8127 49.0955C66.1666 49.0946 65.5204 49.1042 64.8742 49.0911C64.6001 49.1016 64.4408 48.8497 64.4064 48.6081C64.2208 47.7858 63.771 46.9714 62.9947 46.5747C61.8031 45.9799 60.4214 46.0098 59.1219 46.0222C58.1733 46.0724 57.1533 46.1543 56.3496 46.7105C55.7326 47.1318 55.5452 47.9823 55.7654 48.6672C55.973 49.159 56.5424 49.3177 57.0083 49.4639C59.6921 50.1637 62.536 50.0941 65.1685 51.0151C66.2584 51.3905 67.3246 52.1204 67.6977 53.2582C68.1857 54.783 67.9718 56.6057 66.8836 57.8299C66.0012 58.8373 64.716 59.3856 63.4341 59.6834C61.7288 60.0625 59.9591 60.0721 58.2273 59.9038C56.5989 59.7187 54.9043 59.2921 53.6472 58.1859C52.5723 57.2553 52.0472 55.8053 52.0994 54.4058C52.1118 54.1695 52.3478 54.0047 52.5749 54.0241C53.2256 54.0189 53.8762 54.0171 54.5269 54.025C54.7868 54.0064 54.9795 54.2304 54.9928 54.4746C55.1128 55.2581 55.4082 56.0803 56.0934 56.5448C57.4158 57.3955 59.0751 57.3372 60.5893 57.361C61.8438 57.3055 63.252 57.2887 64.2757 56.4621C64.8158 55.9906 64.9758 55.2017 64.8299 54.5231C64.6717 53.9501 64.0706 53.6831 63.5543 53.5085C60.905 52.6729 58.0293 52.9761 55.4055 52.0312C54.3404 51.6559 53.3103 50.9463 52.9011 49.8553C52.3301 48.3111 52.5917 46.4012 53.7939 45.2183C54.9661 44.0418 56.6582 43.5888 58.267 43.4266Z" fill="#8CC84B"/>
</g>
<path d="M34.9585 99.7417V90.7977H35.6345L35.9075 91.9287V99.7417H34.9585ZM41.1465 99.7417L35.4915 92.0717L35.6345 90.7977L41.2765 98.4677L41.1465 99.7417ZM41.1465 99.7417L40.8605 98.6627V90.7977H41.8225V99.7417H41.1465ZM46.6471 99.8717C46.0577 99.8717 45.5204 99.7287 45.0351 99.4427C44.5584 99.1567 44.1771 98.771 43.8911 98.2857C43.6137 97.8004 43.4751 97.2587 43.4751 96.6607C43.4751 96.0714 43.6137 95.5384 43.8911 95.0617C44.1771 94.585 44.5584 94.208 45.0351 93.9307C45.5204 93.6447 46.0577 93.5017 46.6471 93.5017C47.2451 93.5017 47.7824 93.6404 48.2591 93.9177C48.7357 94.195 49.1127 94.5764 49.3901 95.0617C49.6761 95.5384 49.8191 96.0714 49.8191 96.6607C49.8191 97.2674 49.6761 97.8134 49.3901 98.2987C49.1127 98.7754 48.7357 99.1567 48.2591 99.4427C47.7824 99.7287 47.2451 99.8717 46.6471 99.8717ZM46.6471 98.9877C47.0804 98.9877 47.4617 98.888 47.7911 98.6887C48.1291 98.4894 48.3934 98.212 48.5841 97.8567C48.7834 97.5014 48.8831 97.1027 48.8831 96.6607C48.8831 96.2187 48.7834 95.8287 48.5841 95.4907C48.3934 95.144 48.1291 94.871 47.7911 94.6717C47.4617 94.4724 47.0804 94.3727 46.6471 94.3727C46.2224 94.3727 45.8411 94.4724 45.5031 94.6717C45.1651 94.871 44.9007 95.144 44.7101 95.4907C44.5194 95.8287 44.4241 96.2187 44.4241 96.6607C44.4241 97.1114 44.5194 97.5144 44.7101 97.8697C44.9007 98.2164 45.1651 98.4894 45.5031 98.6887C45.8411 98.888 46.2224 98.9877 46.6471 98.9877ZM53.8668 99.8717C53.3034 99.8717 52.7964 99.733 52.3458 99.4557C51.8951 99.1784 51.5354 98.8014 51.2668 98.3247C51.0068 97.8394 50.8768 97.2977 50.8768 96.6997C50.8768 96.093 51.0068 95.5514 51.2668 95.0747C51.5354 94.5894 51.8951 94.208 52.3458 93.9307C52.7964 93.6447 53.3034 93.5017 53.8668 93.5017C54.3261 93.5017 54.7421 93.5927 55.1148 93.7747C55.4874 93.9567 55.7951 94.2167 56.0378 94.5547C56.2891 94.884 56.4364 95.274 56.4798 95.7247V97.6357C56.4278 98.0777 56.2804 98.4677 56.0378 98.8057C55.8038 99.135 55.5004 99.395 55.1278 99.5857C54.7551 99.7764 54.3348 99.8717 53.8668 99.8717ZM54.0228 99.0007C54.4474 99.0007 54.8201 98.9054 55.1408 98.7147C55.4614 98.5154 55.7128 98.2424 55.8948 97.8957C56.0768 97.5404 56.1678 97.1374 56.1678 96.6867C56.1678 96.2274 56.0724 95.8244 55.8818 95.4777C55.6998 95.131 55.4484 94.858 55.1278 94.6587C54.8071 94.4594 54.4344 94.3597 54.0098 94.3597C53.5851 94.3597 53.2081 94.4594 52.8788 94.6587C52.5494 94.858 52.2894 95.1354 52.0988 95.4907C51.9168 95.8374 51.8258 96.236 51.8258 96.6867C51.8258 97.1374 51.9168 97.5404 52.0988 97.8957C52.2894 98.2424 52.5494 98.5154 52.8788 98.7147C53.2168 98.9054 53.5981 99.0007 54.0228 99.0007ZM57.0257 99.7417H56.1158V98.1037L56.2978 96.5957L56.1158 95.1267V90.5377H57.0257V99.7417ZM61.6922 99.8717C61.0769 99.8717 60.5266 99.733 60.0412 99.4557C59.5559 99.1784 59.1702 98.797 58.8842 98.3117C58.6069 97.8264 58.4682 97.2804 58.4682 96.6737C58.4682 96.0757 58.6069 95.5384 58.8842 95.0617C59.1616 94.5764 59.5386 94.195 60.0152 93.9177C60.4919 93.6404 61.0249 93.5017 61.6142 93.5017C62.1689 93.5017 62.6586 93.6274 63.0832 93.8787C63.5166 94.13 63.8546 94.481 64.0972 94.9317C64.3486 95.3737 64.4742 95.885 64.4742 96.4657C64.4742 96.535 64.4699 96.6174 64.4612 96.7127C64.4526 96.7994 64.4352 96.9034 64.4092 97.0247H59.1182V96.2447H63.9152L63.5902 96.5307C63.5989 96.08 63.5209 95.6944 63.3562 95.3737C63.2002 95.0444 62.9706 94.793 62.6672 94.6197C62.3726 94.4377 62.0129 94.3467 61.5882 94.3467C61.1462 94.3467 60.7606 94.442 60.4312 94.6327C60.1019 94.8234 59.8419 95.092 59.6512 95.4387C59.4692 95.7767 59.3782 96.1797 59.3782 96.6477C59.3782 97.1157 59.4736 97.5274 59.6642 97.8827C59.8636 98.238 60.1366 98.5154 60.4832 98.7147C60.8386 98.914 61.2459 99.0137 61.7052 99.0137C62.0779 99.0137 62.4202 98.9487 62.7322 98.8187C63.0442 98.68 63.3086 98.4764 63.5252 98.2077L64.1102 98.8057C63.8242 99.1437 63.4689 99.408 63.0442 99.5987C62.6282 99.7807 62.1776 99.8717 61.6922 99.8717ZM67.7103 102.446C67.355 102.446 67.0473 102.385 66.7873 102.264C66.5273 102.142 66.2977 101.969 66.0983 101.744L66.6963 101.146C66.8263 101.302 66.9737 101.414 67.1383 101.484C67.2943 101.553 67.472 101.588 67.6713 101.588C67.966 101.588 68.2173 101.501 68.4253 101.328C68.6333 101.154 68.7373 100.881 68.7373 100.509V93.6317H69.6473V100.496C69.6473 100.92 69.5563 101.276 69.3743 101.562C69.201 101.856 68.967 102.077 68.6723 102.225C68.3777 102.372 68.057 102.446 67.7103 102.446ZM69.1923 92.3057C69.019 92.3057 68.8717 92.245 68.7503 92.1237C68.629 91.9937 68.5683 91.842 68.5683 91.6687C68.5683 91.4867 68.629 91.335 68.7503 91.2137C68.8717 91.0924 69.019 91.0317 69.1923 91.0317C69.383 91.0317 69.5347 91.0924 69.6473 91.2137C69.7687 91.335 69.8293 91.4867 69.8293 91.6687C69.8293 91.842 69.7687 91.9937 69.6473 92.1237C69.5347 92.245 69.383 92.3057 69.1923 92.3057ZM73.3624 99.8717C73.033 99.8717 72.7167 99.8284 72.4134 99.7417C72.11 99.6464 71.8327 99.5164 71.5814 99.3517C71.3387 99.187 71.1264 98.992 70.9444 98.7667L71.5294 98.1687C71.772 98.4634 72.045 98.6844 72.3484 98.8317C72.6604 98.9704 73.007 99.0397 73.3884 99.0397C73.7957 99.0397 74.112 98.9617 74.3374 98.8057C74.5714 98.6497 74.6884 98.433 74.6884 98.1557C74.6884 97.8957 74.606 97.692 74.4414 97.5447C74.2767 97.3974 74.0644 97.2804 73.8044 97.1937C73.553 97.107 73.2844 97.0247 72.9984 96.9467C72.7124 96.86 72.4394 96.756 72.1794 96.6347C71.9194 96.5047 71.707 96.327 71.5424 96.1017C71.3864 95.8764 71.3084 95.5817 71.3084 95.2177C71.3084 94.871 71.3907 94.572 71.5554 94.3207C71.7287 94.0607 71.9714 93.8614 72.2834 93.7227C72.604 93.5754 72.981 93.5017 73.4144 93.5017C73.8737 93.5017 74.2897 93.584 74.6624 93.7487C75.035 93.9134 75.334 94.156 75.5594 94.4767L74.9744 95.0617C74.7924 94.8277 74.5627 94.65 74.2854 94.5287C74.0167 94.3987 73.7134 94.3337 73.3754 94.3337C72.9854 94.3337 72.6864 94.4117 72.4784 94.5677C72.279 94.715 72.1794 94.91 72.1794 95.1527C72.1794 95.3867 72.2617 95.573 72.4264 95.7117C72.591 95.8417 72.799 95.95 73.0504 96.0367C73.3104 96.1147 73.5834 96.197 73.8694 96.2837C74.1554 96.3617 74.4284 96.47 74.6884 96.6087C74.9484 96.7387 75.1564 96.9207 75.3124 97.1547C75.477 97.38 75.5594 97.6877 75.5594 98.0777C75.5594 98.6237 75.36 99.0614 74.9614 99.3907C74.5714 99.7114 74.0384 99.8717 73.3624 99.8717Z" fill="white"/>
<defs>
<clipPath id="clip0_222_41">
<rect width="37.4901" height="41.1656" fill="white" transform="translate(36.7549 30.874)"/>
</clipPath>
</defs>
</svg>
