<svg width="80" height="80" viewBox="0 0 80 80" fill="none" xmlns="http://www.w3.org/2000/svg">
<rect width="80" height="80" rx="40" fill="white"/>
<mask id="mask0_19_165" style="mask-type:luminance" maskUnits="userSpaceOnUse" x="0" y="0" width="80" height="80">
<rect width="80" height="80" rx="40" fill="white"/>
</mask>
<g mask="url(#mask0_19_165)">
</g>
<g clip-path="url(#clip0_19_165)">
<path d="M38.2047 12.7109C39.5914 11.9196 41.3975 11.916 42.7829 12.7109C49.7531 16.6377 56.7254 20.5583 63.6943 24.4874C65.0051 25.2236 65.8819 26.678 65.8685 28.1838V51.8087C65.8783 53.3769 64.9149 54.866 63.532 55.5855C56.5848 59.4906 49.6411 63.4005 42.6951 67.3056C41.2798 68.1124 39.4374 68.0503 38.0663 67.1773C35.9835 65.9735 33.8971 64.7757 31.8142 63.573C31.3885 63.32 30.9087 63.1187 30.6082 62.7072C30.8739 62.3502 31.3489 62.3057 31.7349 62.1498C32.6043 61.8742 33.4028 61.4317 34.2015 61.0024C34.4034 60.8646 34.65 60.9174 34.8436 61.0407C36.6246 62.0589 38.3899 63.1066 40.1769 64.115C40.5582 64.3344 40.9442 64.0431 41.27 63.862C48.0874 60.0204 54.9131 56.1934 61.7293 52.3506C61.9818 52.2295 62.1215 51.9622 62.1009 51.6863C62.1057 43.893 62.1021 36.0983 62.1033 28.305C62.1322 27.992 61.9506 27.7042 61.6667 27.5762C54.7436 23.6889 47.8241 19.7957 40.9021 15.9075C40.7822 15.8253 40.6401 15.7812 40.4946 15.781C40.3491 15.7808 40.2069 15.8245 40.0867 15.9063C33.1648 19.7957 26.2464 23.6925 19.3245 27.5795C19.0417 27.7078 18.8518 27.9908 18.8855 28.305C18.8867 36.0983 18.8855 43.893 18.8855 51.6875C18.8735 51.8221 18.9032 51.9571 18.9705 52.0744C19.0378 52.1917 19.1395 52.2856 19.262 52.3435C21.1091 53.3878 22.9586 54.4248 24.807 55.4656C25.8483 56.0244 27.1268 56.3564 28.274 55.9282C29.2864 55.5662 29.9961 54.5362 29.9768 53.4644C29.9863 45.7166 29.972 37.9675 29.9839 30.2209C29.9587 29.8769 30.2859 29.5928 30.6213 29.6251C31.5088 29.6192 32.3976 29.6132 33.2851 29.6275C33.6555 29.6192 33.9105 29.9895 33.8647 30.336C33.8611 38.133 33.8742 45.9301 33.8587 53.727C33.8611 55.8049 33.0048 58.066 31.077 59.0827C28.7021 60.3094 25.7666 60.0492 23.4203 58.873C21.3891 57.8622 19.4508 56.6694 17.4556 55.5865C16.0692 54.871 15.1105 53.3759 15.1203 51.8089V28.1838C15.1058 26.6468 16.0174 25.166 17.369 24.4406C24.315 20.5323 31.2599 16.621 38.2047 12.7109Z" fill="#8CC84B"/>
<path d="M44.2644 29.076C47.2939 28.8816 50.537 28.9609 53.2631 30.4488C55.3738 31.5891 56.544 33.9822 56.5812 36.3201C56.5223 36.6354 56.1916 36.8094 55.8897 36.7877C55.0107 36.7866 54.1315 36.7997 53.2526 36.7818C52.8797 36.7961 52.663 36.4533 52.6162 36.1247C52.3637 35.0061 51.7518 33.8982 50.6958 33.3586C49.0747 32.5494 47.1951 32.5901 45.4274 32.607C44.1369 32.6753 42.7493 32.7867 41.656 33.5433C40.8167 34.1164 40.5617 35.2734 40.8613 36.2051C41.1437 36.8741 41.9183 37.09 42.5521 37.289C46.203 38.241 50.0718 38.1462 53.6529 39.3991C55.1356 39.9098 56.586 40.9028 57.0935 42.4505C57.7573 44.5249 57.4663 47.0044 55.9861 48.6697C54.7856 50.0401 53.0373 50.786 51.2935 51.1911C48.9737 51.7068 46.5663 51.7199 44.2104 51.4909C41.9952 51.2391 39.69 50.6589 37.9798 49.154C36.5175 47.8881 35.8033 45.9155 35.8742 44.0117C35.8911 43.6902 36.2122 43.466 36.5211 43.4925C37.4062 43.4853 38.2913 43.4829 39.1765 43.4936C39.53 43.4684 39.7921 43.7731 39.8103 44.1053C39.9736 45.1711 40.3753 46.2897 41.3075 46.9216C43.1064 48.0787 45.3637 47.9995 47.4235 48.0318C49.1301 47.9564 51.0457 47.9335 52.4384 46.809C53.1731 46.1675 53.3908 45.0944 53.1922 44.1712C52.9771 43.3918 52.1593 43.0286 51.457 42.7911C47.853 41.6544 43.941 42.0668 40.3717 40.7814C38.9227 40.2709 37.5215 39.3056 36.9648 37.8214C36.1881 35.7208 36.544 33.1225 38.1794 31.5134C39.774 29.9129 42.0759 29.2967 44.2644 29.076Z" fill="#8CC84B"/>
</g>
<defs>
<clipPath id="clip0_19_165">
<rect width="51" height="56" fill="white" transform="translate(15 12)"/>
</clipPath>
</defs>
</svg>
