<svg width="80" height="80" viewBox="0 0 80 80" fill="none" xmlns="http://www.w3.org/2000/svg">
<rect width="80" height="80" rx="40" fill="white"/>
<mask id="mask0_43_21" style="mask-type:luminance" maskUnits="userSpaceOnUse" x="0" y="0" width="80" height="80">
<rect width="80" height="80" rx="40" fill="white"/>
</mask>
<g mask="url(#mask0_43_21)">
</g>
<path d="M69.8276 46.1262C69.4672 45.0345 68.5228 44.2741 67.3015 44.0915C66.7257 44.0055 66.0662 44.0422 65.2859 44.2031C63.9257 44.4837 62.9166 44.5905 62.1801 44.6113C64.9599 39.9179 67.2203 34.5655 68.5216 29.5273C70.6257 21.3808 69.5013 17.6695 68.1874 15.9907C64.7101 11.5476 59.6367 9.16051 53.5159 9.08733C50.251 9.04748 47.3845 9.69216 45.8894 10.1556C44.4971 9.91015 43.0001 9.77296 41.4293 9.74756C38.4853 9.70063 35.8838 10.3424 33.661 11.6614C32.4301 11.2454 30.4553 10.6588 28.1744 10.2843C22.8099 9.40363 18.4865 10.09 15.324 12.324C11.4946 15.0291 9.71931 19.7288 10.0477 26.2928C10.1518 28.3769 11.3177 34.7177 13.1533 40.7314C14.2083 44.1877 15.3332 47.0581 16.4969 49.2633C18.1471 52.3903 19.9128 54.2318 21.8952 54.893C23.0064 55.2633 25.0251 55.5224 27.1485 53.7543C27.4176 54.0801 27.7765 54.404 28.2532 54.7048C28.8583 55.0864 29.5983 55.3983 30.3373 55.5831C33.0008 56.249 35.4956 56.0824 37.624 55.1492C37.6371 55.5277 37.6472 55.8894 37.6558 56.2017C37.67 56.7083 37.6839 57.205 37.7025 57.6694C37.8285 60.8105 38.0422 63.2527 38.6754 64.9613C38.7101 65.0555 38.7569 65.1986 38.8063 65.3504C39.122 66.3176 39.6504 67.9366 40.994 69.2047C42.3857 70.518 44.0688 70.921 45.6103 70.9208C46.3834 70.9208 47.1211 70.8195 47.768 70.6808C50.0744 70.1866 52.6936 69.4335 54.5883 66.7357C56.3796 64.1852 57.2505 60.3438 57.4081 54.2908C57.4285 54.1198 57.4474 53.9564 57.4655 53.8006C57.4778 53.6955 57.4903 53.588 57.5029 53.4808L57.925 53.5179L58.0337 53.5252C60.3827 53.6323 63.255 53.1341 65.0189 52.3148C66.4128 51.6679 70.8792 49.31 69.8276 46.1262Z" fill="black"/>
<path d="M65.8111 46.7455C58.8268 48.1862 58.3467 45.8214 58.3467 45.8214C65.721 34.8791 68.8037 20.9894 66.1434 17.59C58.8858 8.31705 46.3226 12.7026 46.1129 12.8164L46.0454 12.8285C44.6655 12.5421 43.1213 12.3714 41.3857 12.3431C38.2253 12.2913 35.8281 13.1716 34.0091 14.5511C34.0091 14.5511 11.5975 5.31835 12.6398 26.1629C12.8616 30.5974 18.9957 59.7165 26.3123 50.9212C28.9865 47.7051 31.5704 44.9857 31.5704 44.9857C32.8537 45.8382 34.3901 46.2731 36.0007 46.1169L36.1258 46.0107C36.087 46.41 36.1047 46.8006 36.176 47.263C34.2911 49.3689 34.845 49.7386 31.077 50.5142C27.2644 51.3 29.5042 52.6989 30.9665 53.0645C32.7393 53.5078 36.8408 54.1358 39.612 50.2564L39.5015 50.699C40.24 51.2905 40.7586 54.5467 40.6717 57.4983C40.5848 60.4501 40.5268 62.4765 41.1087 64.0594C41.6906 65.6423 42.2705 69.2037 47.2238 68.1424C51.3627 67.2554 53.5075 64.9569 53.8059 61.1229C54.0177 58.3972 54.4968 58.8001 54.5271 56.3632L54.9114 55.2095C55.3546 51.5146 54.9818 50.3226 57.5318 50.877L58.1514 50.9315C60.0282 51.0169 62.4846 50.6296 63.9263 49.9595C67.0306 48.5188 68.8718 46.1134 65.8108 46.7455H65.8111Z" fill="#336791"/>
<path d="M35.321 28.146C34.6917 28.0584 34.1216 28.1395 33.8332 28.3578C33.6709 28.4807 33.6208 28.623 33.6073 28.721C33.5711 28.9805 33.7529 29.2674 33.8646 29.4154C34.1806 29.8343 34.6424 30.1223 35.0995 30.1857C35.1657 30.1949 35.2315 30.1993 35.2971 30.1993C36.0594 30.1993 36.7522 29.6059 36.8133 29.1678C36.8897 28.6192 36.0932 28.2535 35.321 28.146Z" fill="white"/>
<path d="M56.1718 28.1634C56.1118 27.7334 55.3463 27.6108 54.6201 27.7117C53.8951 27.8128 53.1918 28.1401 53.2505 28.5711C53.2977 28.9063 53.9027 29.4784 54.6192 29.4783C54.6796 29.4783 54.7407 29.4743 54.8022 29.4657C55.2804 29.3994 55.6312 29.0958 55.7978 28.9207C56.0518 28.6541 56.1986 28.3567 56.1718 28.1634Z" fill="white"/>
<path d="M68.1354 46.5818C67.869 45.7765 67.0119 45.5172 65.5878 45.8114C61.3593 46.6841 59.845 46.0796 59.3477 45.7134C62.6345 40.7063 65.3383 34.654 66.7969 29.0069C67.4879 26.332 67.8696 23.8479 67.9007 21.8232C67.9351 19.6005 67.5568 17.9675 66.776 16.9699C63.6285 12.9481 59.0091 10.7908 53.4173 10.7315C49.5732 10.6883 46.3252 11.6722 45.6956 11.9488C44.3696 11.619 42.924 11.4166 41.3504 11.3907C38.4645 11.3441 35.9701 12.035 33.9047 13.4432C33.0076 13.1094 30.6891 12.3135 27.854 11.8568C22.9521 11.0675 19.057 11.6655 16.2773 13.6348C12.9605 15.9847 11.4292 20.1851 11.726 26.1192C11.8258 28.1158 12.9632 34.2575 14.7585 40.1394C17.1216 47.8808 19.6902 52.2634 22.393 53.1648C22.7093 53.2704 23.0742 53.3442 23.4763 53.3442C24.4622 53.3442 25.6709 52.8998 26.9286 51.3879C29.0175 48.8747 30.9679 46.7688 31.6869 46.0036C32.7494 46.574 33.9164 46.8924 35.1103 46.9243C35.1124 46.9556 35.1156 46.9868 35.1184 47.0179C34.8789 47.302 34.6824 47.5509 34.515 47.7635C33.6878 48.8135 33.5157 49.032 30.8531 49.5803C30.0958 49.7365 28.0841 50.1511 28.0548 51.5611C28.0227 53.1017 30.4324 53.7487 30.7071 53.8173C31.6639 54.0568 32.5855 54.175 33.4646 54.175C35.6026 54.1748 37.4838 53.4722 38.9874 52.1128C38.941 57.6049 39.1701 63.0168 39.8295 64.6658C40.3695 66.0155 41.689 69.3145 45.8568 69.3143C46.4681 69.3143 47.1414 69.2432 47.8819 69.0845C52.2314 68.1518 54.1202 66.2295 54.8509 61.9913C55.2419 59.7262 55.913 54.3173 56.2284 51.416C56.8945 51.6238 57.752 51.7189 58.679 51.7187C60.6123 51.7187 62.843 51.308 64.2421 50.6586C65.8135 49.9288 68.6496 48.1377 68.1354 46.5818ZM57.7771 26.9764C57.7627 27.833 57.6448 28.6105 57.5199 29.4222C57.3855 30.2952 57.2463 31.1977 57.2113 32.2933C57.1768 33.3596 57.3099 34.4681 57.4388 35.54C57.699 37.7052 57.966 39.9344 56.9323 42.1341C56.7716 41.8487 56.6165 41.5374 56.4743 41.1927C56.3459 40.8812 56.067 40.381 55.6808 39.6885C54.1779 36.9935 50.6587 30.6823 52.4602 28.1069C52.9967 27.3402 54.3586 26.5522 57.7771 26.9764ZM53.6335 12.466C58.6437 12.5766 62.6068 14.4509 65.413 18.0366C67.5651 20.7869 65.1952 33.3012 58.3346 44.0974C58.2669 44.0113 58.1979 43.9244 58.1265 43.8352C58.098 43.7995 58.069 43.7633 58.0397 43.7266C59.8125 40.7987 59.4658 37.902 59.1573 35.3336C59.0305 34.2796 58.9108 33.284 58.9412 32.349C58.9728 31.3576 59.1038 30.5077 59.2305 29.6858C59.3864 28.6727 59.5448 27.6247 59.5011 26.3891C59.5337 26.2596 59.5469 26.1064 59.5298 25.9247C59.4182 24.7397 58.0655 21.194 55.3083 17.9842C53.8003 16.2289 51.6008 14.2643 48.5978 12.9393C49.8895 12.6716 51.6559 12.422 53.6335 12.466ZM25.5977 50.2812C24.2122 51.9471 23.2552 51.6279 22.9406 51.5231C20.8902 50.8391 18.5113 46.5058 16.4139 39.6341C14.599 33.6882 13.5383 27.7093 13.4545 26.0327C13.1894 20.7303 14.4747 17.0349 17.2749 15.0491C21.8319 11.8174 29.3241 13.7517 32.3346 14.7328C32.2913 14.7754 32.2463 14.8154 32.2034 14.8587C27.2633 19.848 27.3805 28.3721 27.3926 28.8931C27.3922 29.0941 27.409 29.3788 27.4322 29.7703C27.5172 31.2039 27.6753 33.8723 27.2528 36.8942C26.86 39.7023 27.7256 42.4508 29.6272 44.4349C29.8241 44.6403 30.0296 44.8331 30.2419 45.0146C29.3954 45.9211 27.5558 47.9257 25.5977 50.2812ZM30.8769 43.2373C29.3441 41.6382 28.6481 39.4137 28.9669 37.1339C29.4131 33.9416 29.2483 31.1614 29.1599 29.6679C29.1475 29.4589 29.1365 29.2757 29.13 29.1312C29.8517 28.4914 33.1962 26.6993 35.5812 27.2458C36.6697 27.4952 37.3327 28.2362 37.6085 29.5111C39.0356 36.111 37.7975 38.8618 36.8026 41.0723C36.5975 41.5277 36.4038 41.9581 36.2383 42.4036L36.1102 42.7478C35.7856 43.6182 35.4836 44.4274 35.2964 45.1959C33.6672 45.1909 32.0821 44.495 30.8769 43.2373ZM31.1269 52.1382C30.6512 52.0193 30.2233 51.8129 29.9723 51.6417C30.1819 51.5429 30.5552 51.4088 31.2023 51.2755C34.3346 50.6306 34.8182 50.1756 35.8746 48.8343C36.1168 48.5269 36.3914 48.1782 36.7715 47.7536L36.7719 47.7531C37.3383 47.1191 37.5972 47.2266 38.067 47.4214C38.4477 47.579 38.8184 48.0561 38.9688 48.5812C39.0399 48.8292 39.1199 49.3 38.8584 49.6661C36.6517 52.7558 33.4362 52.7161 31.1269 52.1382ZM47.5191 67.3922C43.6873 68.2132 42.3306 66.2581 41.4365 64.023C40.8595 62.58 40.576 56.0731 40.7771 48.8876C40.7798 48.792 40.7662 48.6996 40.7398 48.6128C40.7169 48.4452 40.6816 48.2757 40.6327 48.1051C40.3334 47.0595 39.6043 46.1849 38.7296 45.8224C38.382 45.6784 37.744 45.4142 36.9774 45.6102C37.141 44.9367 37.4245 44.1762 37.7318 43.3526L37.8608 43.006C38.006 42.6154 38.188 42.2108 38.3808 41.7826C39.4219 39.4697 40.8477 36.3019 39.3002 29.1452C38.7205 26.4648 36.785 25.1559 33.8507 25.4598C32.0915 25.6418 30.4823 26.3516 29.6796 26.7586C29.507 26.846 29.3491 26.9305 29.2017 27.0128C29.4256 24.3119 30.2722 19.2647 33.4385 16.0713C35.4319 14.0608 38.087 13.0679 41.3218 13.1213C47.6957 13.2257 51.7829 16.4967 54.0896 19.2225C56.0772 21.5713 57.1536 23.9373 57.5832 25.2133C54.3529 24.885 52.1559 25.5227 51.042 27.1149C48.6191 30.5783 52.3676 37.3008 54.1692 40.5315C54.4995 41.1237 54.7847 41.6353 54.8744 41.8527C55.461 43.2746 56.2205 44.2237 56.7751 44.9167C56.945 45.129 57.11 45.3349 57.2354 45.5147C56.257 45.7969 54.4996 46.4485 54.6597 49.706C54.5306 51.3406 53.612 58.9934 53.1455 61.6972C52.5295 65.2692 51.215 66.5998 47.5191 67.3922ZM63.5132 49.0888C62.5128 49.5533 60.8386 49.9016 59.2481 49.9763C57.4914 50.0587 56.5972 49.7796 56.3869 49.608C56.288 47.578 57.0438 47.3658 57.8434 47.1413C57.969 47.1059 58.0916 47.0716 58.2099 47.0303C58.2835 47.0901 58.3641 47.1495 58.4522 47.2077C59.8642 48.1396 62.3826 48.2402 65.9378 47.5064C65.9509 47.5036 65.9639 47.5011 65.9768 47.4984C65.4974 47.9468 64.6768 48.5486 63.5132 49.0888Z" fill="white"/>
</svg>
