<svg width="111" height="125" viewBox="0 0 111 125" fill="none" xmlns="http://www.w3.org/2000/svg">
<rect x="1" y="1" width="109" height="122.232" rx="12" stroke="white" stroke-opacity="0.48" stroke-width="2"/>
<rect x="26.4636" y="21.3179" width="58.808" height="58.8079" rx="29.404" fill="white"/>
<mask id="mask0_222_46" style="mask-type:luminance" maskUnits="userSpaceOnUse" x="26" y="21" width="60" height="60">
<rect x="26.4636" y="21.3179" width="58.808" height="58.8079" rx="29.404" fill="white"/>
</mask>
<g mask="url(#mask0_222_46)">
</g>
<g clip-path="url(#clip0_222_46)">
<path d="M77.7939 55.225C77.5289 54.4225 76.8347 53.8635 75.937 53.7293C75.5137 53.6661 75.0289 53.6931 74.4552 53.8113C73.4554 54.0176 72.7136 54.0961 72.1722 54.1114C74.2156 50.6613 75.8772 46.7268 76.8338 43.0232C78.3805 37.0347 77.554 34.3065 76.5881 33.0724C74.032 29.8063 70.3025 28.0515 65.8031 27.9978C63.4031 27.9685 61.2959 28.4424 60.1969 28.7831C59.1735 28.6026 58.073 28.5018 56.9183 28.4831C54.7542 28.4486 52.8418 28.9203 51.2078 29.89C50.303 29.5842 48.8513 29.153 47.1747 28.8777C43.2312 28.2303 40.053 28.7348 37.7283 30.377C34.9133 32.3655 33.6083 35.8203 33.8497 40.6455C33.9262 42.1775 34.7833 46.8386 36.1326 51.2593C36.9081 53.8 37.7351 55.9101 38.5905 57.5311C39.8036 59.8297 41.1016 61.1835 42.5588 61.6695C43.3756 61.9417 44.8596 62.1322 46.4205 60.8324C46.6183 61.0719 46.8821 61.31 47.2325 61.5311C47.6773 61.8117 48.2213 62.0409 48.7645 62.1768C50.7225 62.6663 52.5564 62.5438 54.121 61.8578C54.1306 62.136 54.1381 62.4019 54.1444 62.6315C54.1548 63.0039 54.165 63.369 54.1787 63.7104C54.2714 66.0194 54.4285 67.8147 54.8939 69.0707C54.9194 69.1399 54.9538 69.2451 54.9901 69.3567C55.2222 70.0677 55.6106 71.2578 56.5983 72.19C57.6213 73.1554 58.8586 73.4516 59.9917 73.4515C60.56 73.4515 61.1023 73.377 61.5778 73.275C63.2733 72.9118 65.1987 72.3582 66.5915 70.375C67.9083 68.5001 68.5484 65.6763 68.6643 61.2268C68.6793 61.1011 68.6932 60.981 68.7065 60.8664C68.7155 60.7892 68.7247 60.7102 68.734 60.6314L69.0443 60.6586L69.1242 60.664C70.851 60.7427 72.9623 60.3765 74.259 59.7742C75.2836 59.2987 78.5669 57.5654 77.7939 55.225Z" fill="black"/>
<path d="M74.8414 55.6802C69.7072 56.7392 69.3543 55.0009 69.3543 55.0009C74.7751 46.9572 77.0412 36.7469 75.0856 34.248C69.7506 27.4315 60.5153 30.6553 60.3612 30.739L60.3116 30.7478C59.2973 30.5373 58.1621 30.4118 56.8862 30.391C54.5631 30.3529 52.8009 31.0001 51.4637 32.0141C51.4637 32.0141 34.989 25.2271 35.7552 40.55C35.9182 43.8098 40.4274 65.2152 45.8058 58.7498C47.7716 56.3856 49.671 54.3866 49.671 54.3866C50.6144 55.0133 51.7438 55.333 52.9278 55.2181L53.0197 55.1401C52.9912 55.4336 53.0042 55.7207 53.0566 56.0606C51.671 57.6087 52.0782 57.8805 49.3084 58.4506C46.5057 59.0282 48.1522 60.0565 49.2271 60.3253C50.5303 60.6512 53.5453 61.1128 55.5824 58.2611L55.5012 58.5865C56.0441 59.0213 56.4253 61.4148 56.3614 63.5846C56.2975 65.7544 56.2549 67.2441 56.6826 68.4077C57.1104 69.5712 57.5367 72.1893 61.1779 71.409C64.2204 70.757 65.797 69.0674 66.0164 66.249C66.172 64.2454 66.5242 64.5416 66.5465 62.7502L66.829 61.9021C67.1548 59.186 66.8808 58.3098 68.7552 58.7173L69.2107 58.7573C70.5904 58.8201 72.3961 58.5354 73.4558 58.0428C75.7378 56.9838 77.0912 55.2156 74.8412 55.6802H74.8414Z" fill="#336791"/>
<path d="M52.4281 42.0078C51.9655 41.9434 51.5464 42.003 51.3344 42.1635C51.2151 42.2538 51.1782 42.3584 51.1683 42.4305C51.1417 42.6212 51.2754 42.8321 51.3575 42.9409C51.5898 43.2488 51.9292 43.4605 52.2653 43.5072C52.3139 43.5139 52.3623 43.5172 52.4105 43.5172C52.9708 43.5172 53.4802 43.0809 53.5251 42.7589C53.5812 42.3557 52.9957 42.0868 52.4281 42.0078Z" fill="white"/>
<path d="M67.7555 42.0205C67.7114 41.7044 67.1487 41.6143 66.6149 41.6885C66.0819 41.7628 65.5649 42.0034 65.6081 42.3202C65.6428 42.5666 66.0875 42.9872 66.6141 42.9871C66.6585 42.9871 66.7035 42.9842 66.7487 42.9778C67.1002 42.9292 67.3581 42.7059 67.4806 42.5772C67.6673 42.3813 67.7752 42.1626 67.7555 42.0205Z" fill="white"/>
<path d="M76.5499 55.5599C76.3541 54.9679 75.7241 54.7773 74.6772 54.9936C71.5688 55.6351 70.4557 55.1907 70.09 54.9215C72.5062 51.2408 74.4937 46.7918 75.5659 42.6406C76.0739 40.6743 76.3545 38.8482 76.3774 37.3599C76.4027 35.726 76.1246 34.5256 75.5506 33.7922C73.2369 30.8357 69.8412 29.2499 65.7307 29.2063C62.9048 29.1746 60.5173 29.8978 60.0544 30.1012C59.0797 29.8587 58.017 29.7099 56.8603 29.691C54.7388 29.6567 52.9052 30.1645 51.387 31.1997C50.7275 30.9543 49.0232 30.3693 46.9391 30.0336C43.3357 29.4533 40.4724 29.8929 38.429 31.3406C35.9909 33.0679 34.8653 36.1557 35.0834 40.5178C35.1568 41.9855 35.9929 46.5003 37.3126 50.8241C39.0497 56.5148 40.9378 59.7365 42.9247 60.3991C43.1572 60.4766 43.4254 60.5309 43.721 60.5309C44.4458 60.5309 45.3343 60.2042 46.2588 59.0928C47.7944 57.2454 49.2281 55.6974 49.7566 55.1349C50.5377 55.5542 51.3955 55.7882 52.2732 55.8117C52.2747 55.8346 52.2771 55.8576 52.2791 55.8805C52.1031 56.0893 51.9586 56.2723 51.8356 56.4286C51.2275 57.2004 51.101 57.361 49.1437 57.7641C48.5871 57.8789 47.1082 58.1837 47.0867 59.2202C47.0631 60.3526 48.8345 60.8283 49.0364 60.8787C49.7397 61.0548 50.4172 61.1416 51.0634 61.1416C52.635 61.1415 54.018 60.625 55.1232 59.6257C55.0891 63.663 55.2576 67.6412 55.7423 68.8534C56.1392 69.8456 57.1092 72.2707 60.1729 72.2705C60.6223 72.2705 61.1172 72.2182 61.6616 72.1016C64.8589 71.416 66.2473 70.0029 66.7845 66.8874C67.0719 65.2224 67.5652 61.2462 67.7971 59.1135C68.2867 59.2662 68.9171 59.3361 69.5985 59.336C71.0197 59.336 72.6595 59.0341 73.6879 58.5568C74.8431 58.0203 76.9279 56.7036 76.5499 55.5599ZM68.9356 41.148C68.925 41.7776 68.8383 42.3492 68.7464 42.9459C68.6476 43.5876 68.5454 44.251 68.5196 45.0564C68.4942 45.8402 68.5921 46.6551 68.6868 47.4431C68.8781 49.0347 69.0744 50.6734 68.3145 52.2903C68.1964 52.0806 68.0824 51.8518 67.9779 51.5983C67.8835 51.3694 67.6784 51.0016 67.3946 50.4926C66.2898 48.5115 63.7028 43.8722 65.0271 41.979C65.4215 41.4154 66.4226 40.8362 68.9356 41.148ZM65.8896 30.4814C69.5726 30.5627 72.4859 31.9405 74.5486 34.5763C76.1307 36.598 74.3886 45.7973 69.3454 53.7336C69.2956 53.6703 69.2448 53.6064 69.1924 53.5409C69.1714 53.5146 69.1501 53.488 69.1286 53.4611C70.4318 51.3088 70.1769 49.1793 69.9501 47.2913C69.8569 46.5165 69.7689 45.7847 69.7913 45.0974C69.8145 44.3686 69.9108 43.7439 70.0039 43.1396C70.1185 42.3949 70.235 41.6245 70.2028 40.7162C70.2268 40.621 70.2365 40.5084 70.224 40.3748C70.1419 39.5038 69.1476 36.8973 67.1207 34.5378C66.0122 33.2475 64.3953 31.8033 62.1878 30.8293C63.1373 30.6325 64.4358 30.449 65.8896 30.4814ZM45.2805 58.2793C44.262 59.5039 43.5585 59.2693 43.3272 59.1922C41.82 58.6894 40.0713 55.504 38.5295 50.4526C37.1954 46.0818 36.4157 41.6867 36.354 40.4542C36.1592 36.5565 37.104 33.84 39.1624 32.3802C42.5122 30.0046 48.0198 31.4265 50.2328 32.1477C50.2009 32.179 50.1679 32.2084 50.1363 32.2403C46.5049 35.9079 46.591 42.174 46.5999 42.5569C46.5996 42.7047 46.612 42.914 46.629 43.2018C46.6915 44.2556 46.8077 46.2172 46.4971 48.4385C46.2084 50.5027 46.8447 52.5232 48.2426 53.9817C48.3873 54.1327 48.5384 54.2744 48.6944 54.4078C48.0721 55.0742 46.7198 56.5478 45.2805 58.2793ZM49.1612 53.1014C48.0345 51.9259 47.5228 50.2907 47.7572 48.6147C48.0852 46.2681 47.964 44.2244 47.899 43.1265C47.8899 42.9728 47.8819 42.8382 47.8771 42.732C48.4076 42.2616 50.8661 40.9443 52.6193 41.346C53.4195 41.5293 53.9069 42.074 54.1096 43.0112C55.1587 47.8628 54.2485 49.8849 53.5172 51.5098C53.3665 51.8446 53.2241 52.161 53.1024 52.4885L53.0082 52.7415C52.7696 53.3813 52.5476 53.9762 52.41 54.5411C51.2123 54.5375 50.0471 54.0259 49.1612 53.1014ZM49.345 59.6444C48.9953 59.557 48.6808 59.4052 48.4962 59.2794C48.6503 59.2068 48.9247 59.1082 49.4004 59.0102C51.703 58.5361 52.0585 58.2017 52.835 57.2157C53.0131 56.9897 53.2149 56.7334 53.4943 56.4213L53.4947 56.4209C53.911 55.9549 54.1013 56.0339 54.4466 56.1771C54.7265 56.2929 54.999 56.6436 55.1096 57.0296C55.1618 57.2119 55.2206 57.558 55.0284 57.8272C53.4063 60.0984 51.0426 60.0692 49.345 59.6444ZM61.3948 70.8576C58.5781 71.4611 57.5808 70.0239 56.9236 68.3809C56.4994 67.3201 56.291 62.537 56.4389 57.2549C56.4408 57.1846 56.4308 57.1167 56.4114 57.0529C56.3946 56.9297 56.3687 56.8051 56.3327 56.6796C56.1127 55.9111 55.5767 55.2682 54.9337 55.0017C54.6782 54.8958 54.2092 54.7016 53.6457 54.8457C53.7659 54.3506 53.9744 53.7916 54.2002 53.1861L54.2951 52.9313C54.4018 52.6442 54.5356 52.3468 54.6773 52.032C55.4426 50.3318 56.4907 48.0031 55.3532 42.7423C54.9271 40.7719 53.5042 39.8097 51.3473 40.0331C50.0541 40.1669 48.8711 40.6887 48.2811 40.9878C48.1542 41.0521 48.0381 41.1142 47.9297 41.1747C48.0944 39.1893 48.7167 35.4791 51.0442 33.1316C52.5096 31.6537 54.4613 30.9238 56.8393 30.9631C61.5247 31.0399 64.5292 33.4444 66.2249 35.448C67.686 37.1747 68.4772 38.9139 68.793 39.8519C66.4184 39.6105 64.8034 40.0793 63.9846 41.2497C62.2035 43.7957 64.959 48.7374 66.2834 51.1123C66.5262 51.5476 66.7358 51.9237 66.8018 52.0836C67.233 53.1287 67.7913 53.8265 68.1989 54.3359C68.3239 54.4919 68.4451 54.6433 68.5373 54.7755C67.8181 54.9829 66.5263 55.4619 66.644 57.8565C66.549 59.0581 65.8738 64.6836 65.5308 66.6712C65.078 69.297 64.1118 70.2751 61.3948 70.8576ZM73.1522 57.4028C72.4168 57.7442 71.186 58.0003 70.0169 58.0552C68.7255 58.1157 68.0682 57.9106 67.9136 57.7844C67.8409 56.2922 68.3965 56.1362 68.9843 55.9712C69.0766 55.9452 69.1668 55.92 69.2537 55.8895C69.3078 55.9335 69.367 55.9772 69.4318 56.02C70.4697 56.7051 72.321 56.779 74.9345 56.2395C74.9441 56.2375 74.9536 56.2357 74.9631 56.2337C74.6107 56.5633 74.0075 57.0056 73.1522 57.4028Z" fill="white"/>
</g>
<path d="M33.3643 95.4187V94.5737H36.0033C36.3673 94.5737 36.6923 94.5 36.9783 94.3527C37.273 94.2054 37.5026 93.9974 37.6673 93.7287C37.8406 93.4514 37.9273 93.122 37.9273 92.7407C37.9273 92.3594 37.8406 92.0344 37.6673 91.7657C37.5026 91.4884 37.273 91.276 36.9783 91.1287C36.6923 90.9727 36.3673 90.8947 36.0033 90.8947H33.3643V90.0627H36.0683C36.6056 90.0627 37.0866 90.1754 37.5113 90.4007C37.936 90.6174 38.2696 90.925 38.5123 91.3237C38.7636 91.7224 38.8893 92.1947 38.8893 92.7407C38.8893 93.278 38.7636 93.7504 38.5123 94.1577C38.2696 94.5564 37.936 94.8684 37.5113 95.0937C37.0866 95.3104 36.6056 95.4187 36.0683 95.4187H33.3643ZM32.7533 99.0067V90.0627H33.7023V99.0067H32.7533ZM42.8169 99.1367C42.2276 99.1367 41.6903 98.9937 41.2049 98.7077C40.7283 98.4217 40.3469 98.036 40.0609 97.5507C39.7836 97.0654 39.6449 96.5237 39.6449 95.9257C39.6449 95.3364 39.7836 94.8034 40.0609 94.3267C40.3469 93.85 40.7283 93.473 41.2049 93.1957C41.6903 92.9097 42.2276 92.7667 42.8169 92.7667C43.4149 92.7667 43.9523 92.9054 44.4289 93.1827C44.9056 93.46 45.2826 93.8414 45.5599 94.3267C45.8459 94.8034 45.9889 95.3364 45.9889 95.9257C45.9889 96.5324 45.8459 97.0784 45.5599 97.5637C45.2826 98.0404 44.9056 98.4217 44.4289 98.7077C43.9523 98.9937 43.4149 99.1367 42.8169 99.1367ZM42.8169 98.2527C43.2503 98.2527 43.6316 98.153 43.9609 97.9537C44.2989 97.7544 44.5633 97.477 44.7539 97.1217C44.9533 96.7664 45.0529 96.3677 45.0529 95.9257C45.0529 95.4837 44.9533 95.0937 44.7539 94.7557C44.5633 94.409 44.2989 94.136 43.9609 93.9367C43.6316 93.7374 43.2503 93.6377 42.8169 93.6377C42.3923 93.6377 42.0109 93.7374 41.6729 93.9367C41.3349 94.136 41.0706 94.409 40.8799 94.7557C40.6893 95.0937 40.5939 95.4837 40.5939 95.9257C40.5939 96.3764 40.6893 96.7794 40.8799 97.1347C41.0706 97.4814 41.3349 97.7544 41.6729 97.9537C42.0109 98.153 42.3923 98.2527 42.8169 98.2527ZM49.3086 99.1367C48.9793 99.1367 48.6629 99.0934 48.3596 99.0067C48.0563 98.9114 47.7789 98.7814 47.5276 98.6167C47.2849 98.452 47.0726 98.257 46.8906 98.0317L47.4756 97.4337C47.7183 97.7284 47.9913 97.9494 48.2946 98.0967C48.6066 98.2354 48.9533 98.3047 49.3346 98.3047C49.7419 98.3047 50.0583 98.2267 50.2836 98.0707C50.5176 97.9147 50.6346 97.698 50.6346 97.4207C50.6346 97.1607 50.5523 96.957 50.3876 96.8097C50.2229 96.6624 50.0106 96.5454 49.7506 96.4587C49.4993 96.372 49.2306 96.2897 48.9446 96.2117C48.6586 96.125 48.3856 96.021 48.1256 95.8997C47.8656 95.7697 47.6533 95.592 47.4886 95.3667C47.3326 95.1414 47.2546 94.8467 47.2546 94.4827C47.2546 94.136 47.3369 93.837 47.5016 93.5857C47.6749 93.3257 47.9176 93.1264 48.2296 92.9877C48.5503 92.8404 48.9273 92.7667 49.3606 92.7667C49.8199 92.7667 50.2359 92.849 50.6086 93.0137C50.9813 93.1784 51.2803 93.421 51.5056 93.7417L50.9206 94.3267C50.7386 94.0927 50.5089 93.915 50.2316 93.7937C49.9629 93.6637 49.6596 93.5987 49.3216 93.5987C48.9316 93.5987 48.6326 93.6767 48.4246 93.8327C48.2253 93.98 48.1256 94.175 48.1256 94.4177C48.1256 94.6517 48.2079 94.838 48.3726 94.9767C48.5373 95.1067 48.7453 95.215 48.9966 95.3017C49.2566 95.3797 49.5296 95.462 49.8156 95.5487C50.1016 95.6267 50.3746 95.735 50.6346 95.8737C50.8946 96.0037 51.1026 96.1857 51.2586 96.4197C51.4233 96.645 51.5056 96.9527 51.5056 97.3427C51.5056 97.8887 51.3063 98.3264 50.9076 98.6557C50.5176 98.9764 49.9846 99.1367 49.3086 99.1367ZM53.8954 99.0067V90.3227H54.8054V99.0067H53.8954ZM52.3484 93.7157V92.8967H56.3394V93.7157H52.3484ZM59.899 101.711C59.2837 101.711 58.7334 101.594 58.248 101.36C57.7714 101.134 57.3857 100.814 57.091 100.398L57.689 99.7997C57.9317 100.129 58.2394 100.385 58.612 100.567C58.9847 100.749 59.4224 100.84 59.925 100.84C60.6184 100.84 61.1687 100.653 61.576 100.281C61.992 99.908 62.2 99.401 62.2 98.7597V97.2387L62.382 95.8477L62.2 94.4697V92.8967H63.11V98.7597C63.11 99.349 62.9757 99.8647 62.707 100.307C62.4384 100.749 62.0614 101.091 61.576 101.334C61.0994 101.585 60.5404 101.711 59.899 101.711ZM59.964 98.9417C59.4007 98.9417 58.8937 98.8074 58.443 98.5387C57.9924 98.27 57.637 97.9017 57.377 97.4337C57.117 96.9657 56.987 96.437 56.987 95.8477C56.987 95.2584 57.1127 94.734 57.364 94.2747C57.624 93.8067 57.9794 93.4384 58.43 93.1697C58.8807 92.901 59.3877 92.7667 59.951 92.7667C60.4277 92.7667 60.8524 92.8577 61.225 93.0397C61.6064 93.2217 61.9097 93.4817 62.135 93.8197C62.369 94.149 62.512 94.539 62.564 94.9897V96.7187C62.512 97.1607 62.369 97.5507 62.135 97.8887C61.901 98.218 61.5977 98.478 61.225 98.6687C60.8524 98.8507 60.432 98.9417 59.964 98.9417ZM60.133 98.0707C60.5577 98.0707 60.926 97.9797 61.238 97.7977C61.5587 97.6157 61.8057 97.36 61.979 97.0307C62.161 96.6927 62.252 96.2984 62.252 95.8477C62.252 95.4057 62.161 95.02 61.979 94.6907C61.8057 94.3614 61.5587 94.1014 61.238 93.9107C60.9174 93.72 60.5447 93.6247 60.12 93.6247C59.6954 93.6247 59.314 93.72 58.976 93.9107C58.6467 94.1014 58.3867 94.3614 58.196 94.6907C58.014 95.02 57.923 95.4057 57.923 95.8477C57.923 96.281 58.0184 96.6667 58.209 97.0047C58.3997 97.3427 58.6597 97.607 58.989 97.7977C59.3184 97.9797 59.6997 98.0707 60.133 98.0707ZM64.9434 99.0067V92.8967H65.8534V99.0067H64.9434ZM65.8534 95.4447L65.4764 95.2757C65.4764 94.5044 65.6628 93.8934 66.0354 93.4427C66.4168 92.992 66.9368 92.7667 67.5954 92.7667C67.8988 92.7667 68.1761 92.823 68.4274 92.9357C68.6788 93.0397 68.9128 93.2087 69.1294 93.4427L68.5314 94.0797C68.3841 93.915 68.2194 93.798 68.0374 93.7287C67.8641 93.6594 67.6648 93.6247 67.4394 93.6247C66.9714 93.6247 66.5901 93.7807 66.2954 94.0927C66.0008 94.396 65.8534 94.8467 65.8534 95.4447ZM72.7029 99.1367C72.0876 99.1367 71.5373 98.998 71.0519 98.7207C70.5666 98.4434 70.1809 98.062 69.8949 97.5767C69.6176 97.0914 69.4789 96.5454 69.4789 95.9387C69.4789 95.3407 69.6176 94.8034 69.8949 94.3267C70.1723 93.8414 70.5493 93.46 71.0259 93.1827C71.5026 92.9054 72.0356 92.7667 72.6249 92.7667C73.1796 92.7667 73.6693 92.8924 74.0939 93.1437C74.5273 93.395 74.8653 93.746 75.1079 94.1967C75.3593 94.6387 75.4849 95.15 75.4849 95.7307C75.4849 95.8 75.4806 95.8824 75.4719 95.9777C75.4633 96.0644 75.4459 96.1684 75.4199 96.2897H70.1289V95.5097H74.9259L74.6009 95.7957C74.6096 95.345 74.5316 94.9594 74.3669 94.6387C74.2109 94.3094 73.9813 94.058 73.6779 93.8847C73.3833 93.7027 73.0236 93.6117 72.5989 93.6117C72.1569 93.6117 71.7713 93.707 71.4419 93.8977C71.1126 94.0884 70.8526 94.357 70.6619 94.7037C70.4799 95.0417 70.3889 95.4447 70.3889 95.9127C70.3889 96.3807 70.4843 96.7924 70.6749 97.1477C70.8743 97.503 71.1473 97.7804 71.4939 97.9797C71.8493 98.179 72.2566 98.2787 72.7159 98.2787C73.0886 98.2787 73.4309 98.2137 73.7429 98.0837C74.0549 97.945 74.3193 97.7414 74.5359 97.4727L75.1209 98.0707C74.8349 98.4087 74.4796 98.673 74.0549 98.8637C73.6389 99.0457 73.1883 99.1367 72.7029 99.1367ZM78.749 99.1367C78.4197 99.1367 78.1034 99.0934 77.8 99.0067C77.4967 98.9114 77.2194 98.7814 76.968 98.6167C76.7254 98.452 76.513 98.257 76.331 98.0317L76.916 97.4337C77.1587 97.7284 77.4317 97.9494 77.735 98.0967C78.047 98.2354 78.3937 98.3047 78.775 98.3047C79.1824 98.3047 79.4987 98.2267 79.724 98.0707C79.958 97.9147 80.075 97.698 80.075 97.4207C80.075 97.1607 79.9927 96.957 79.828 96.8097C79.6634 96.6624 79.451 96.5454 79.191 96.4587C78.9397 96.372 78.671 96.2897 78.385 96.2117C78.099 96.125 77.826 96.021 77.566 95.8997C77.306 95.7697 77.0937 95.592 76.929 95.3667C76.773 95.1414 76.695 94.8467 76.695 94.4827C76.695 94.136 76.7774 93.837 76.942 93.5857C77.1154 93.3257 77.358 93.1264 77.67 92.9877C77.9907 92.8404 78.3677 92.7667 78.801 92.7667C79.2604 92.7667 79.6764 92.849 80.049 93.0137C80.4217 93.1784 80.7207 93.421 80.946 93.7417L80.361 94.3267C80.179 94.0927 79.9494 93.915 79.672 93.7937C79.4034 93.6637 79.1 93.5987 78.762 93.5987C78.372 93.5987 78.073 93.6767 77.865 93.8327C77.6657 93.98 77.566 94.175 77.566 94.4177C77.566 94.6517 77.6484 94.838 77.813 94.9767C77.9777 95.1067 78.1857 95.215 78.437 95.3017C78.697 95.3797 78.97 95.462 79.256 95.5487C79.542 95.6267 79.815 95.735 80.075 95.8737C80.335 96.0037 80.543 96.1857 80.699 96.4197C80.8637 96.645 80.946 96.9527 80.946 97.3427C80.946 97.8887 80.7467 98.3264 80.348 98.6557C79.958 98.9764 79.425 99.1367 78.749 99.1367Z" fill="white"/>
<defs>
<clipPath id="clip0_222_46">
<rect width="45.5762" height="45.5762" fill="white" transform="translate(33.0795 27.9336)"/>
</clipPath>
</defs>
</svg>
