<svg width="111" height="125" viewBox="0 0 111 125" fill="none" xmlns="http://www.w3.org/2000/svg">
<rect width="111" height="124.232" rx="13" fill="#D9D9D9"/>
<rect x="25.7285" y="19.1125" width="58.8079" height="58.8079" rx="29.404" fill="#39B2D3"/>
<mask id="mask0_145_62" style="mask-type:luminance" maskUnits="userSpaceOnUse" x="25" y="19" width="60" height="59">
<rect x="25.7285" y="19.1125" width="58.8079" height="58.8079" rx="29.404" fill="white"/>
</mask>
<g mask="url(#mask0_145_62)">
<ellipse cx="55.1325" cy="48.9441" rx="3.2879" ry="3.2879" fill="white"/>
<ellipse cx="55.1325" cy="48.9442" rx="17.6424" ry="6.73618" stroke="white"/>
<ellipse cx="55.1325" cy="48.9442" rx="17.6424" ry="6.73618" transform="rotate(60 55.1325 48.9442)" stroke="white"/>
<ellipse cx="55.1325" cy="48.9442" rx="17.6424" ry="6.73618" transform="rotate(120 55.1325 48.9442)" stroke="white"/>
</g>
<path d="M34.0994 92.7973V91.9913H36.6994C37.2887 91.9913 37.7394 91.8439 38.0514 91.5493C38.3634 91.2459 38.5194 90.8429 38.5194 90.3403C38.5194 89.8549 38.3634 89.4606 38.0514 89.1573C37.7394 88.8453 37.2887 88.6893 36.6994 88.6893H34.0994V87.8573H36.6994C37.28 87.8573 37.7784 87.9656 38.1944 88.1823C38.6104 88.3903 38.9267 88.6806 39.1434 89.0533C39.3687 89.4259 39.4814 89.8506 39.4814 90.3273C39.4814 90.8213 39.3687 91.2546 39.1434 91.6273C38.9267 91.9999 38.6104 92.2903 38.1944 92.4983C37.7784 92.6976 37.28 92.7973 36.6994 92.7973H34.0994ZM33.4884 96.8013V87.8573H34.4374V96.8013H33.4884ZM38.8964 96.8013L35.5424 92.6673L36.4654 92.3683L40.1184 96.8013H38.8964ZM43.9214 96.9313C43.306 96.9313 42.7557 96.7926 42.2704 96.5153C41.785 96.2379 41.3994 95.8566 41.1134 95.3713C40.836 94.8859 40.6974 94.3399 40.6974 93.7333C40.6974 93.1353 40.836 92.5979 41.1134 92.1213C41.3907 91.6359 41.7677 91.2546 42.2444 90.9773C42.721 90.6999 43.254 90.5613 43.8434 90.5613C44.398 90.5613 44.8877 90.6869 45.3124 90.9383C45.7457 91.1896 46.0837 91.5406 46.3264 91.9913C46.5777 92.4333 46.7034 92.9446 46.7034 93.5253C46.7034 93.5946 46.699 93.6769 46.6904 93.7723C46.6817 93.8589 46.6644 93.9629 46.6384 94.0843H41.3474V93.3043H46.1444L45.8194 93.5903C45.828 93.1396 45.75 92.7539 45.5854 92.4333C45.4294 92.1039 45.1997 91.8526 44.8964 91.6793C44.6017 91.4973 44.242 91.4063 43.8174 91.4063C43.3754 91.4063 42.9897 91.5016 42.6604 91.6923C42.331 91.8829 42.071 92.1516 41.8804 92.4983C41.6984 92.8363 41.6074 93.2393 41.6074 93.7073C41.6074 94.1753 41.7027 94.5869 41.8934 94.9423C42.0927 95.2976 42.3657 95.5749 42.7124 95.7743C43.0677 95.9736 43.475 96.0733 43.9344 96.0733C44.307 96.0733 44.6494 96.0083 44.9614 95.8783C45.2734 95.7396 45.5377 95.5359 45.7544 95.2673L46.3394 95.8653C46.0534 96.2033 45.698 96.4676 45.2734 96.6583C44.8574 96.8403 44.4067 96.9313 43.9214 96.9313ZM50.7475 96.9313C50.1668 96.9313 49.6468 96.7926 49.1875 96.5153C48.7282 96.2293 48.3642 95.8479 48.0955 95.3713C47.8355 94.8946 47.7055 94.3573 47.7055 93.7593C47.7055 93.1526 47.8355 92.6109 48.0955 92.1343C48.3642 91.6489 48.7282 91.2676 49.1875 90.9903C49.6468 90.7043 50.1625 90.5613 50.7345 90.5613C51.2025 90.5613 51.6185 90.6566 51.9825 90.8473C52.3552 91.0293 52.6542 91.2893 52.8795 91.6273C53.1135 91.9566 53.2565 92.3423 53.3085 92.7843V94.6953C53.2565 95.1373 53.1135 95.5273 52.8795 95.8653C52.6542 96.2033 52.3552 96.4676 51.9825 96.6583C51.6185 96.8403 51.2068 96.9313 50.7475 96.9313ZM50.8905 96.0603C51.5232 96.0603 52.0302 95.8479 52.4115 95.4233C52.8015 94.9986 52.9965 94.4396 52.9965 93.7463C52.9965 93.2869 52.9055 92.8839 52.7235 92.5373C52.5502 92.1819 52.3032 91.9089 51.9825 91.7183C51.6705 91.5189 51.3022 91.4193 50.8775 91.4193C50.4442 91.4193 50.0585 91.5189 49.7205 91.7183C49.3912 91.9176 49.1268 92.1949 48.9275 92.5503C48.7368 92.8969 48.6415 93.2956 48.6415 93.7463C48.6415 94.1969 48.7368 94.5956 48.9275 94.9423C49.1268 95.2889 49.3955 95.5619 49.7335 95.7613C50.0715 95.9606 50.4572 96.0603 50.8905 96.0603ZM52.9445 96.8013V95.1633L53.1265 93.6553L52.9445 92.1863V90.6913H53.8545V96.8013H52.9445ZM58.482 96.9313C57.884 96.9313 57.3423 96.7926 56.857 96.5153C56.3803 96.2293 55.999 95.8436 55.713 95.3583C55.4356 94.8729 55.297 94.3313 55.297 93.7333C55.297 93.1353 55.4356 92.5979 55.713 92.1213C55.999 91.6359 56.3803 91.2546 56.857 90.9773C57.3423 90.6999 57.884 90.5613 58.482 90.5613C58.9413 90.5613 59.3703 90.6479 59.769 90.8213C60.1676 90.9946 60.5056 91.2373 60.783 91.5493L60.185 92.1603C59.977 91.9263 59.7256 91.7486 59.431 91.6273C59.1363 91.4973 58.82 91.4323 58.482 91.4323C58.0486 91.4323 57.663 91.5319 57.325 91.7313C56.987 91.9306 56.7226 92.2036 56.532 92.5503C56.3413 92.8883 56.246 93.2826 56.246 93.7333C56.246 94.1753 56.3413 94.5739 56.532 94.9293C56.7226 95.2759 56.987 95.5489 57.325 95.7483C57.663 95.9476 58.0486 96.0473 58.482 96.0473C58.8286 96.0473 59.1493 95.9866 59.444 95.8653C59.7386 95.7353 59.99 95.5533 60.198 95.3193L60.809 95.9303C60.523 96.2509 60.1763 96.4979 59.769 96.6713C59.3703 96.8446 58.9413 96.9313 58.482 96.9313ZM62.9839 96.8013V88.1173H63.8939V96.8013H62.9839ZM61.4369 91.5103V90.6913H65.4279V91.5103H61.4369ZM68.5254 99.5053C68.1701 99.5053 67.8624 99.4446 67.6024 99.3233C67.3424 99.2019 67.1127 99.0286 66.9134 98.8033L67.5114 98.2053C67.6414 98.3613 67.7887 98.4739 67.9534 98.5433C68.1094 98.6126 68.2871 98.6473 68.4864 98.6473C68.7811 98.6473 69.0324 98.5606 69.2404 98.3873C69.4484 98.2139 69.5524 97.9409 69.5524 97.5683V90.6913H70.4624V97.5553C70.4624 97.9799 70.3714 98.3353 70.1894 98.6213C70.0161 98.9159 69.7821 99.1369 69.4874 99.2843C69.1927 99.4316 68.8721 99.5053 68.5254 99.5053ZM70.0074 89.3653C69.8341 89.3653 69.6867 89.3046 69.5654 89.1833C69.4441 89.0533 69.3834 88.9016 69.3834 88.7283C69.3834 88.5463 69.4441 88.3946 69.5654 88.2733C69.6867 88.1519 69.8341 88.0913 70.0074 88.0913C70.1981 88.0913 70.3497 88.1519 70.4624 88.2733C70.5837 88.3946 70.6444 88.5463 70.6444 88.7283C70.6444 88.9016 70.5837 89.0533 70.4624 89.1833C70.3497 89.3046 70.1981 89.3653 70.0074 89.3653ZM74.1774 96.9313C73.8481 96.9313 73.5318 96.8879 73.2284 96.8013C72.9251 96.7059 72.6478 96.5759 72.3964 96.4113C72.1538 96.2466 71.9414 96.0516 71.7594 95.8263L72.3444 95.2283C72.5871 95.5229 72.8601 95.7439 73.1634 95.8913C73.4754 96.0299 73.8221 96.0993 74.2034 96.0993C74.6108 96.0993 74.9271 96.0213 75.1524 95.8653C75.3864 95.7093 75.5034 95.4926 75.5034 95.2153C75.5034 94.9553 75.4211 94.7516 75.2564 94.6043C75.0918 94.4569 74.8794 94.3399 74.6194 94.2533C74.3681 94.1666 74.0994 94.0843 73.8134 94.0063C73.5274 93.9196 73.2544 93.8156 72.9944 93.6943C72.7344 93.5643 72.5221 93.3866 72.3574 93.1613C72.2014 92.9359 72.1234 92.6413 72.1234 92.2773C72.1234 91.9306 72.2058 91.6316 72.3704 91.3803C72.5438 91.1203 72.7864 90.9209 73.0984 90.7823C73.4191 90.6349 73.7961 90.5613 74.2294 90.5613C74.6888 90.5613 75.1048 90.6436 75.4774 90.8083C75.8501 90.9729 76.1491 91.2156 76.3744 91.5363L75.7894 92.1213C75.6074 91.8873 75.3778 91.7096 75.1004 91.5883C74.8318 91.4583 74.5284 91.3933 74.1904 91.3933C73.8004 91.3933 73.5014 91.4713 73.2934 91.6273C73.0941 91.7746 72.9944 91.9696 72.9944 92.2123C72.9944 92.4463 73.0768 92.6326 73.2414 92.7713C73.4061 92.9013 73.6141 93.0096 73.8654 93.0963C74.1254 93.1743 74.3984 93.2566 74.6844 93.3433C74.9704 93.4213 75.2434 93.5296 75.5034 93.6683C75.7634 93.7983 75.9714 93.9803 76.1274 94.2143C76.2921 94.4396 76.3744 94.7473 76.3744 95.1373C76.3744 95.6833 76.1751 96.1209 75.7764 96.4503C75.3864 96.7709 74.8534 96.9313 74.1774 96.9313Z" fill="black"/>
</svg>
