<svg width="80" height="80" viewBox="0 0 80 80" fill="none" xmlns="http://www.w3.org/2000/svg">
<rect width="80" height="80" rx="40" fill="white"/>
<mask id="mask0_112_139" style="mask-type:luminance" maskUnits="userSpaceOnUse" x="0" y="0" width="80" height="80">
<rect width="80" height="80" rx="40" fill="white"/>
</mask>
<g mask="url(#mask0_112_139)">
</g>
<path d="M51.1694 49.7439C53.2106 49.5361 54.7592 47.8061 54.6888 45.7299C54.6185 43.654 52.8587 41.9931 50.747 41.9931H50.6063C48.4241 42.0623 46.735 43.8616 46.8054 46.0068C46.8759 47.0448 47.2981 47.9444 47.9316 48.5672C45.5384 53.2039 41.8782 56.5947 36.3881 59.4321C32.6574 61.3697 28.7863 62.0618 24.9151 61.5775C21.7475 61.1622 19.284 59.7783 17.7352 57.4943C15.483 54.1034 15.2719 50.4357 17.1724 46.7681C18.5098 44.1383 20.6212 42.2006 21.9586 41.2317C21.6771 40.3321 21.2547 38.8097 21.0436 37.7026C10.8374 44.9688 11.8933 54.7956 14.9904 59.4321C17.313 62.8922 22.0291 65.0376 27.2377 65.0376C28.6454 65.0376 30.0531 64.899 31.461 64.5533C40.4707 62.8231 47.2983 57.5636 51.1694 49.7439ZM63.5578 41.1627C58.2083 35.0037 50.3248 31.6128 41.3151 31.6128H40.1891C39.5556 30.3672 38.2182 29.5366 36.74 29.5366H36.5992C34.4173 29.6059 32.7282 31.405 32.7985 33.5504C32.8689 35.6265 34.6284 37.2873 36.74 37.2873H36.8807C38.4293 37.2182 39.7667 36.2493 40.3298 34.9343H41.5967C46.9463 34.9343 52.014 36.4567 56.5895 39.4325C60.1086 41.7162 62.6427 44.692 64.0504 48.2905C65.247 51.197 65.1766 54.0343 63.9095 56.4564C61.9388 60.124 58.6307 62.1309 54.2665 62.1309C51.451 62.1309 48.7764 61.3005 47.3685 60.6777C46.5943 61.3697 45.1864 62.4768 44.201 63.1692C47.2278 64.5531 50.3248 65.3144 53.2811 65.3144C60.0382 65.3144 65.0359 61.6464 66.9364 57.9788C68.9775 53.965 68.8366 47.0448 63.5578 41.1627ZM27.8008 50.92C27.8713 52.9961 29.6309 54.6568 31.7426 54.6568H31.8834C34.0653 54.5878 35.7546 52.7885 35.6841 50.6433C35.6139 48.567 33.854 46.9064 31.7426 46.9064H31.6019C31.461 46.9064 31.2497 46.9064 31.1092 46.9753C28.2232 42.2697 27.0266 37.1489 27.4491 31.6126C27.7304 27.4604 29.1382 23.8619 31.6019 20.8861C33.6429 18.3256 37.5847 17.08 40.2596 17.0109C47.7205 16.8724 50.8877 26.0071 51.099 29.6749C52.014 29.8825 53.5626 30.367 54.6185 30.7131C53.7737 19.5024 46.735 13.6893 39.978 13.6893C33.6429 13.6893 27.8008 18.1875 25.4779 24.8309C22.2402 33.6887 24.3518 42.2006 28.2934 48.9133C27.9417 49.3976 27.7304 50.1587 27.8008 50.92Z" fill="#764ABC"/>
</svg>
