<svg width="111" height="125" viewBox="0 0 111 125" fill="none" xmlns="http://www.w3.org/2000/svg">
<rect x="1" y="1" width="109" height="122.232" rx="12" stroke="white" stroke-opacity="0.48" stroke-width="2"/>
<rect x="25.7285" y="22.053" width="58.808" height="58.8079" rx="29.404" fill="white"/>
<mask id="mask0_222_47" style="mask-type:luminance" maskUnits="userSpaceOnUse" x="25" y="22" width="60" height="59">
<rect x="25.7285" y="22.053" width="58.808" height="58.8079" rx="29.404" fill="white"/>
</mask>
<g mask="url(#mask0_222_47)">
</g>
<path d="M63.343 58.6195C64.8435 58.4668 65.9818 57.1951 65.93 55.6688C65.8784 54.1428 64.5847 52.922 63.0325 52.922H62.929C61.3249 52.9728 60.0832 54.2955 60.135 55.8724C60.1868 56.6355 60.4972 57.2967 60.9629 57.7546C59.2036 61.163 56.513 63.6556 52.4772 65.7413C49.7348 67.1656 46.8891 67.6744 44.0434 67.3184C41.715 67.0131 39.904 65.9958 38.7655 64.3168C37.1099 61.8242 36.9547 59.1281 38.3518 56.432C39.3349 54.4989 40.887 53.0744 41.8701 52.3622C41.6632 51.7009 41.3527 50.5818 41.1975 49.7679C33.6949 55.1093 34.4711 62.333 36.7478 65.7413C38.4552 68.2849 41.9219 69.8619 45.7508 69.8619C46.7856 69.8619 47.8204 69.76 48.8553 69.5059C55.4783 68.234 60.4973 64.3678 63.343 58.6195ZM72.4496 52.3115C68.5172 47.784 62.7221 45.2914 56.0991 45.2914H55.2714C54.8057 44.3757 53.8225 43.7651 52.7359 43.7651H52.6324C51.0285 43.8161 49.7869 45.1386 49.8385 46.7157C49.8903 48.2418 51.1837 49.4627 52.7359 49.4627H52.8394C53.9777 49.4119 54.9609 48.6997 55.3748 47.733H56.306C60.2386 47.733 63.9639 48.8521 67.3273 51.0397C69.9142 52.7184 71.777 54.9059 72.8118 57.5511C73.6914 59.6877 73.6396 61.7734 72.7082 63.5539C71.2595 66.25 68.8278 67.7252 65.6197 67.7252C63.5499 67.7252 61.5839 67.1148 60.5489 66.657C59.9798 67.1656 58.9449 67.9795 58.2205 68.4884C60.4455 69.5058 62.7221 70.0654 64.8952 70.0654C69.8624 70.0654 73.5362 67.3691 74.9333 64.673C76.4337 61.7224 76.3301 56.6355 72.4496 52.3115ZM46.1647 59.4841C46.2165 61.0102 47.51 62.231 49.0623 62.231H49.1658C50.7698 62.1803 52.0115 60.8576 51.9597 59.2807C51.9081 57.7544 50.6144 56.5337 49.0623 56.5337H48.9589C48.8553 56.5337 48.7 56.5337 48.5967 56.5844C46.4752 53.1253 45.5956 49.3609 45.9061 45.2913C46.1129 42.239 47.1479 39.5937 48.9589 37.4062C50.4592 35.5239 53.3568 34.6083 55.3232 34.5575C60.8077 34.4557 63.1359 41.1706 63.2912 43.8668C63.9639 44.0194 65.1022 44.3756 65.8784 44.63C65.2574 36.389 60.0832 32.1158 55.1162 32.1158C50.4592 32.1158 46.1647 35.4225 44.4572 40.306C42.0771 46.8174 43.6293 53.0744 46.5269 58.009C46.2683 58.365 46.1129 58.9245 46.1647 59.4841Z" fill="#764ABC"/>
<path d="M38.5099 95.7377V94.9317H41.1099C41.6992 94.9317 42.1499 94.7844 42.4619 94.4897C42.7739 94.1864 42.9299 93.7834 42.9299 93.2807C42.9299 92.7954 42.7739 92.401 42.4619 92.0977C42.1499 91.7857 41.6992 91.6297 41.1099 91.6297H38.5099V90.7977H41.1099C41.6905 90.7977 42.1889 90.906 42.6049 91.1227C43.0209 91.3307 43.3372 91.621 43.5539 91.9937C43.7792 92.3664 43.8919 92.791 43.8919 93.2677C43.8919 93.7617 43.7792 94.195 43.5539 94.5677C43.3372 94.9404 43.0209 95.2307 42.6049 95.4387C42.1889 95.638 41.6905 95.7377 41.1099 95.7377H38.5099ZM37.8989 99.7417V90.7977H38.8479V99.7417H37.8989ZM43.3069 99.7417L39.9529 95.6077L40.8759 95.3087L44.5289 99.7417H43.3069ZM48.3319 99.8717C47.7166 99.8717 47.1662 99.733 46.6809 99.4557C46.1956 99.1784 45.8099 98.797 45.5239 98.3117C45.2466 97.8264 45.1079 97.2804 45.1079 96.6737C45.1079 96.0757 45.2466 95.5384 45.5239 95.0617C45.8012 94.5764 46.1782 94.195 46.6549 93.9177C47.1316 93.6404 47.6646 93.5017 48.2539 93.5017C48.8086 93.5017 49.2982 93.6274 49.7229 93.8787C50.1562 94.13 50.4942 94.481 50.7369 94.9317C50.9882 95.3737 51.1139 95.885 51.1139 96.4657C51.1139 96.535 51.1096 96.6174 51.1009 96.7127C51.0922 96.7994 51.0749 96.9034 51.0489 97.0247H45.7579V96.2447H50.5549L50.2299 96.5307C50.2386 96.08 50.1606 95.6944 49.9959 95.3737C49.8399 95.0444 49.6102 94.793 49.3069 94.6197C49.0122 94.4377 48.6526 94.3467 48.2279 94.3467C47.7859 94.3467 47.4002 94.442 47.0709 94.6327C46.7416 94.8234 46.4816 95.092 46.2909 95.4387C46.1089 95.7767 46.0179 96.1797 46.0179 96.6477C46.0179 97.1157 46.1132 97.5274 46.3039 97.8827C46.5032 98.238 46.7762 98.5154 47.1229 98.7147C47.4782 98.914 47.8856 99.0137 48.3449 99.0137C48.7176 99.0137 49.0599 98.9487 49.3719 98.8187C49.6839 98.68 49.9482 98.4764 50.1649 98.2077L50.7499 98.8057C50.4639 99.1437 50.1086 99.408 49.6839 99.5987C49.2679 99.7807 48.8172 99.8717 48.3319 99.8717ZM55.106 99.8717C54.5427 99.8717 54.0357 99.733 53.585 99.4557C53.1343 99.1784 52.7747 98.8014 52.506 98.3247C52.246 97.8394 52.116 97.2977 52.116 96.6997C52.116 96.093 52.246 95.5514 52.506 95.0747C52.7747 94.5894 53.1343 94.208 53.585 93.9307C54.0357 93.6447 54.5427 93.5017 55.106 93.5017C55.5653 93.5017 55.9813 93.5927 56.354 93.7747C56.7267 93.9567 57.0343 94.2167 57.277 94.5547C57.5283 94.884 57.6757 95.274 57.719 95.7247V97.6357C57.667 98.0777 57.5197 98.4677 57.277 98.8057C57.043 99.135 56.7397 99.395 56.367 99.5857C55.9943 99.7764 55.574 99.8717 55.106 99.8717ZM55.262 99.0007C55.6867 99.0007 56.0593 98.9054 56.38 98.7147C56.7007 98.5154 56.952 98.2424 57.134 97.8957C57.316 97.5404 57.407 97.1374 57.407 96.6867C57.407 96.2274 57.3117 95.8244 57.121 95.4777C56.939 95.131 56.6877 94.858 56.367 94.6587C56.0463 94.4594 55.6737 94.3597 55.249 94.3597C54.8243 94.3597 54.4473 94.4594 54.118 94.6587C53.7887 94.858 53.5287 95.1354 53.338 95.4907C53.156 95.8374 53.065 96.236 53.065 96.6867C53.065 97.1374 53.156 97.5404 53.338 97.8957C53.5287 98.2424 53.7887 98.5154 54.118 98.7147C54.456 98.9054 54.8373 99.0007 55.262 99.0007ZM58.265 99.7417H57.355V98.1037L57.537 96.5957L57.355 95.1267V90.5377H58.265V99.7417ZM62.5285 99.8717C62.0345 99.8717 61.5925 99.759 61.2025 99.5337C60.8125 99.2997 60.5048 98.9834 60.2795 98.5847C60.0628 98.186 59.9545 97.718 59.9545 97.1807V93.6317H60.8775V97.1417C60.8775 97.5144 60.9425 97.8394 61.0725 98.1167C61.2112 98.394 61.4062 98.6107 61.6575 98.7667C61.9088 98.9227 62.1992 99.0007 62.5285 99.0007C63.0398 99.0007 63.4428 98.8317 63.7375 98.4937C64.0408 98.1557 64.1925 97.705 64.1925 97.1417V93.6317H65.1025V97.1807C65.1025 97.7094 64.9942 98.1774 64.7775 98.5847C64.5608 98.992 64.2575 99.3084 63.8675 99.5337C63.4775 99.759 63.0312 99.8717 62.5285 99.8717ZM70.9609 99.7417L68.9199 96.9597L68.7249 96.8037L66.2679 93.6317H67.3989L69.2969 96.1277L69.4789 96.2837L72.0789 99.7417H70.9609ZM66.1639 99.7417L68.7379 96.3877L69.2449 97.0637L67.2429 99.7417H66.1639ZM69.5439 96.7907L69.0239 96.1277L70.8959 93.6317H71.9749L69.5439 96.7907Z" fill="white"/>
</svg>
