<svg width="111" height="125" viewBox="0 0 111 125" fill="none" xmlns="http://www.w3.org/2000/svg">
<g clip-path="url(#clip0_2001_62)">
<path d="M98 1H13C6.37258 1 1 6.37258 1 13V111.232C1 117.859 6.37258 123.232 13 123.232H98C104.627 123.232 110 117.859 110 111.232V13C110 6.37258 104.627 1 98 1Z" stroke="white" stroke-opacity="0.48" stroke-width="2"/>
<path d="M72.376 33.4599C72.3389 33.1897 72.1024 33.0404 71.9069 33.024C71.7118 33.0076 67.5826 32.7016 67.5826 32.7016C67.5826 32.7016 64.7148 29.8546 64.4002 29.5395C64.0852 29.2245 63.4702 29.3203 63.2315 29.3906C63.1961 29.401 62.6049 29.5835 61.6265 29.8861C60.6684 27.1297 58.978 24.5964 56.0036 24.5964C55.9216 24.5964 55.8371 24.5998 55.7525 24.6046C54.9066 23.4859 53.8588 23 52.9538 23C46.0254 23 42.7153 31.6611 41.6774 36.0626C38.9853 36.8969 37.0726 37.4898 36.8283 37.5667C35.3256 38.0379 35.2781 38.0854 35.0809 39.5014C34.932 40.5734 31 70.9815 31 70.9815L61.639 76.7222L78.2405 73.1307C78.2405 73.1307 72.4127 33.73 72.376 33.4599ZM59.9331 30.41C59.1636 30.6482 58.2888 30.9188 57.3406 31.2123C57.3415 31.0297 57.3424 30.8498 57.3424 30.6534C57.3424 28.9401 57.1046 27.5608 56.7231 26.4672C58.2556 26.6597 59.2762 28.4032 59.9331 30.41ZM54.822 26.8068C55.248 27.8745 55.525 29.4066 55.525 31.4742C55.525 31.58 55.5242 31.6766 55.5233 31.7746C53.8372 32.2968 52.0052 32.8639 50.1689 33.4327C51.1999 29.4536 53.1324 27.5319 54.822 26.8068ZM52.7634 24.8583C53.0625 24.8583 53.3638 24.9597 53.652 25.1583C51.4316 26.2031 49.0515 28.8348 48.0464 34.09C46.5774 34.5448 45.1416 34.9893 43.8141 35.4006C44.9914 31.3922 47.7871 24.8583 52.7634 24.8583Z" fill="#95BF46"/>
<path d="M71.9068 33.024C71.7118 33.0076 67.5825 32.7016 67.5825 32.7016C67.5825 32.7016 64.7148 29.8546 64.4002 29.5395C64.2824 29.4221 64.1235 29.3622 63.9574 29.3363L61.6407 76.7218L78.2405 73.1307C78.2405 73.1307 72.4126 33.73 72.376 33.4599C72.3388 33.1897 72.1023 33.0404 71.9068 33.024Z" fill="#5E8E3E"/>
<path d="M56.0036 42.1969L53.9567 48.2859C53.9567 48.2859 52.1631 47.3287 49.9647 47.3287C46.7418 47.3287 46.5795 49.3514 46.5795 49.8611C46.5795 52.6421 53.829 53.7077 53.829 60.2217C53.829 65.3466 50.5784 68.6468 46.1954 68.6468C40.9359 68.6468 38.2464 65.3733 38.2464 65.3733L39.6546 60.7206C39.6546 60.7206 42.4192 63.0942 44.7523 63.0942C46.2766 63.0942 46.8967 61.894 46.8967 61.0171C46.8967 57.3894 40.9493 57.2275 40.9493 51.2667C40.9493 46.2498 44.5503 41.3947 51.8192 41.3947C54.62 41.3947 56.0036 42.1969 56.0036 42.1969Z" fill="white"/>
<path d="M34.614 102.13C33.9207 102.13 33.3227 102 32.82 101.74C32.3173 101.471 31.8753 101.099 31.494 100.622L32.157 99.972C32.4603 100.397 32.8113 100.713 33.21 100.921C33.6173 101.129 34.0983 101.233 34.653 101.233C35.225 101.233 35.6887 101.103 36.044 100.843C36.3993 100.583 36.577 100.223 36.577 99.764C36.577 99.4087 36.4947 99.1183 36.33 98.893C36.1653 98.659 35.9487 98.4727 35.68 98.334C35.42 98.1867 35.1297 98.0567 34.809 97.944C34.4883 97.8313 34.1677 97.7143 33.847 97.593C33.535 97.463 33.2447 97.3027 32.976 97.112C32.7073 96.9213 32.4907 96.6787 32.326 96.384C32.17 96.0893 32.092 95.7123 32.092 95.253C32.092 94.7677 32.209 94.3517 32.443 94.005C32.677 93.6583 32.9977 93.394 33.405 93.212C33.8123 93.0213 34.276 92.926 34.796 92.926C35.3767 92.926 35.8923 93.0387 36.343 93.264C36.8023 93.4893 37.1837 93.7927 37.487 94.174L36.837 94.824C36.5597 94.4947 36.2563 94.2433 35.927 94.07C35.5977 93.8967 35.212 93.81 34.77 93.81C34.25 93.81 33.834 93.9313 33.522 94.174C33.21 94.4167 33.054 94.7547 33.054 95.188C33.054 95.526 33.132 95.799 33.288 96.007C33.4527 96.215 33.6693 96.3883 33.938 96.527C34.2067 96.6657 34.497 96.7913 34.809 96.904C35.1297 97.008 35.4503 97.125 35.771 97.255C36.0917 97.385 36.382 97.5497 36.642 97.749C36.9107 97.9483 37.1273 98.204 37.292 98.516C37.4567 98.8193 37.539 99.2093 37.539 99.686C37.539 100.457 37.2747 101.06 36.746 101.493C36.226 101.918 35.5153 102.13 34.614 102.13ZM43.5672 102V98.412C43.5672 97.8747 43.4069 97.4413 43.0862 97.112C42.7742 96.774 42.3582 96.605 41.8382 96.605C41.4829 96.605 41.1709 96.683 40.9022 96.839C40.6336 96.995 40.4212 97.2073 40.2652 97.476C40.1092 97.7447 40.0312 98.0523 40.0312 98.399L39.6152 98.165C39.6152 97.7057 39.7236 97.294 39.9402 96.93C40.1569 96.566 40.4472 96.28 40.8112 96.072C41.1839 95.864 41.6086 95.76 42.0852 95.76C42.5532 95.76 42.9692 95.8683 43.3332 96.085C43.6972 96.293 43.9789 96.5833 44.1782 96.956C44.3862 97.3287 44.4902 97.762 44.4902 98.256V102H43.5672ZM39.1212 102V92.796H40.0312V102H39.1212ZM48.9615 102.13C48.3722 102.13 47.8349 101.987 47.3495 101.701C46.8729 101.415 46.4915 101.029 46.2055 100.544C45.9282 100.059 45.7895 99.517 45.7895 98.919C45.7895 98.3297 45.9282 97.7967 46.2055 97.32C46.4915 96.8433 46.8729 96.4663 47.3495 96.189C47.8349 95.903 48.3722 95.76 48.9615 95.76C49.5595 95.76 50.0969 95.8987 50.5735 96.176C51.0502 96.4533 51.4272 96.8347 51.7045 97.32C51.9905 97.7967 52.1335 98.3297 52.1335 98.919C52.1335 99.5257 51.9905 100.072 51.7045 100.557C51.4272 101.034 51.0502 101.415 50.5735 101.701C50.0969 101.987 49.5595 102.13 48.9615 102.13ZM48.9615 101.246C49.3949 101.246 49.7762 101.146 50.1055 100.947C50.4435 100.748 50.7079 100.47 50.8985 100.115C51.0979 99.7597 51.1975 99.361 51.1975 98.919C51.1975 98.477 51.0979 98.087 50.8985 97.749C50.7079 97.4023 50.4435 97.1293 50.1055 96.93C49.7762 96.7307 49.3949 96.631 48.9615 96.631C48.5369 96.631 48.1555 96.7307 47.8175 96.93C47.4795 97.1293 47.2152 97.4023 47.0245 97.749C46.8339 98.087 46.7385 98.477 46.7385 98.919C46.7385 99.3697 46.8339 99.7727 47.0245 100.128C47.2152 100.475 47.4795 100.748 47.8175 100.947C48.1555 101.146 48.5369 101.246 48.9615 101.246ZM56.7402 102.13C56.2722 102.13 55.8519 102.035 55.4792 101.844C55.1065 101.653 54.7989 101.393 54.5562 101.064C54.3222 100.726 54.1792 100.336 54.1272 99.894V97.983C54.1792 97.5323 54.3265 97.1423 54.5692 96.813C54.8119 96.475 55.1195 96.215 55.4922 96.033C55.8735 95.851 56.2895 95.76 56.7402 95.76C57.3035 95.76 57.8105 95.903 58.2612 96.189C58.7119 96.4663 59.0672 96.8477 59.3272 97.333C59.5959 97.8097 59.7302 98.3513 59.7302 98.958C59.7302 99.556 59.6002 100.093 59.3402 100.57C59.0802 101.047 58.7205 101.428 58.2612 101.714C57.8105 101.991 57.3035 102.13 56.7402 102.13ZM53.5812 104.574V95.89H54.4912V97.45L54.3092 98.932L54.4912 100.427V104.574H53.5812ZM56.5842 101.259C57.0175 101.259 57.3989 101.164 57.7282 100.973C58.0575 100.774 58.3132 100.501 58.4952 100.154C58.6859 99.7987 58.7812 99.3957 58.7812 98.945C58.7812 98.4857 58.6859 98.0827 58.4952 97.736C58.3132 97.3893 58.0575 97.1163 57.7282 96.917C57.3989 96.7177 57.0219 96.618 56.5972 96.618C56.1725 96.618 55.7955 96.7177 55.4662 96.917C55.1455 97.1163 54.8942 97.3893 54.7122 97.736C54.5302 98.0827 54.4392 98.4857 54.4392 98.945C54.4392 99.3957 54.5302 99.7987 54.7122 100.154C54.8942 100.501 55.1455 100.774 55.4662 100.973C55.7869 101.164 56.1595 101.259 56.5842 101.259ZM61.1857 102V95.89H62.1087V102H61.1857ZM61.6407 94.564C61.4674 94.564 61.32 94.5033 61.1987 94.382C61.0774 94.252 61.0167 94.1003 61.0167 93.927C61.0167 93.745 61.0774 93.5933 61.1987 93.472C61.32 93.3507 61.4674 93.29 61.6407 93.29C61.8314 93.29 61.983 93.3507 62.0957 93.472C62.217 93.5933 62.2777 93.745 62.2777 93.927C62.2777 94.1003 62.217 94.252 62.0957 94.382C61.983 94.5033 61.8314 94.564 61.6407 94.564ZM64.8503 102V94.85C64.8503 94.4253 64.9413 94.0483 65.1233 93.719C65.3139 93.3897 65.5739 93.134 65.9033 92.952C66.2413 92.7613 66.6226 92.666 67.0473 92.666C67.3766 92.666 67.6669 92.7267 67.9183 92.848C68.1696 92.9607 68.3993 93.121 68.6073 93.329L68.0093 93.927C67.8706 93.7883 67.7233 93.6887 67.5673 93.628C67.4199 93.5587 67.2466 93.524 67.0473 93.524C66.6399 93.524 66.3236 93.6453 66.0983 93.888C65.8816 94.122 65.7733 94.4513 65.7733 94.876V102H64.8503ZM63.3163 96.709V95.89H67.8143V96.709H63.3163ZM70.882 102.026L68.204 95.89H69.205L71.363 101.012H70.986L73.261 95.89H74.275L71.402 102.026H70.882ZM69.218 104.574L70.895 101.103L71.402 102.026L70.219 104.574H69.218Z" fill="white"/>
</g>
<defs>
<clipPath id="clip0_2001_62">
<rect width="111" height="125" fill="white"/>
</clipPath>
</defs>
</svg>
