<svg width="111" height="125" viewBox="0 0 111 125" fill="none" xmlns="http://www.w3.org/2000/svg">
<rect width="111" height="124.232" rx="13" fill="#D9D9D9"/>
<rect x="26.4636" y="21.3179" width="58.8079" height="58.808" rx="29.404" fill="white"/>
<mask id="mask0_145_115" style="mask-type:luminance" maskUnits="userSpaceOnUse" x="26" y="21" width="60" height="60">
<rect x="26.4636" y="21.3179" width="58.8079" height="58.808" rx="29.404" fill="white"/>
</mask>
<g mask="url(#mask0_145_115)">
</g>
<path d="M44.2898 46.9178C45.8335 40.7429 49.6927 37.6555 55.8676 37.6555C65.1298 37.6555 66.2876 44.6022 70.9187 45.76C74.0062 46.5318 76.7076 45.3741 79.0232 42.2866C77.4795 48.4615 73.6202 51.5489 67.4454 51.5489C58.1831 51.5489 57.0254 44.6022 52.3942 43.4444C49.3068 42.6726 46.6053 43.8304 44.2898 46.9178ZM32.7119 60.8111C34.2557 54.6363 38.1149 51.5489 44.2898 51.5489C53.552 51.5489 54.7098 58.4956 59.3409 59.6534C62.4283 60.4252 65.1298 59.2674 67.4454 56.18C65.9017 62.3549 62.0424 65.4423 55.8676 65.4423C46.6053 65.4423 45.4475 58.4956 40.8164 57.3378C37.729 56.566 35.0275 57.7237 32.7119 60.8111Z" fill="#44A8B3"/>
<path d="M35.2363 99.0066V90.3096H36.1983V99.0066H35.2363ZM32.0903 90.9336V90.0626H39.3443V90.9336H32.0903ZM41.5827 99.1366C41.002 99.1366 40.482 98.9979 40.0227 98.7206C39.5634 98.4346 39.1994 98.0533 38.9307 97.5766C38.6707 97.0999 38.5407 96.5626 38.5407 95.9646C38.5407 95.3579 38.6707 94.8163 38.9307 94.3396C39.1994 93.8543 39.5634 93.4729 40.0227 93.1956C40.482 92.9096 40.9977 92.7666 41.5697 92.7666C42.0377 92.7666 42.4537 92.8619 42.8177 93.0526C43.1904 93.2346 43.4894 93.4946 43.7147 93.8326C43.9487 94.1619 44.0917 94.5476 44.1437 94.9896V96.9006C44.0917 97.3426 43.9487 97.7326 43.7147 98.0706C43.4894 98.4086 43.1904 98.6729 42.8177 98.8636C42.4537 99.0456 42.042 99.1366 41.5827 99.1366ZM41.7257 98.2656C42.3584 98.2656 42.8654 98.0533 43.2467 97.6286C43.6367 97.2039 43.8317 96.6449 43.8317 95.9516C43.8317 95.4923 43.7407 95.0893 43.5587 94.7426C43.3854 94.3873 43.1384 94.1143 42.8177 93.9236C42.5057 93.7243 42.1374 93.6246 41.7127 93.6246C41.2794 93.6246 40.8937 93.7243 40.5557 93.9236C40.2264 94.1229 39.962 94.4003 39.7627 94.7556C39.572 95.1023 39.4767 95.5009 39.4767 95.9516C39.4767 96.4023 39.572 96.8009 39.7627 97.1476C39.962 97.4943 40.2307 97.7673 40.5687 97.9666C40.9067 98.1659 41.2924 98.2656 41.7257 98.2656ZM43.7797 99.0066V97.3686L43.9617 95.8606L43.7797 94.3916V92.8966H44.6897V99.0066H43.7797ZM46.5352 99.0066V92.8966H47.4582V99.0066H46.5352ZM46.9902 91.5706C46.8168 91.5706 46.6695 91.5099 46.5482 91.3886C46.4268 91.2586 46.3662 91.1069 46.3662 90.9336C46.3662 90.7516 46.4268 90.5999 46.5482 90.4786C46.6695 90.3573 46.8168 90.2966 46.9902 90.2966C47.1808 90.2966 47.3325 90.3573 47.4452 90.4786C47.5665 90.5999 47.6272 90.7516 47.6272 90.9336C47.6272 91.1069 47.5665 91.2586 47.4452 91.3886C47.3325 91.5099 47.1808 91.5706 46.9902 91.5706ZM49.3028 99.0066V89.8026H50.2128V99.0066H49.3028ZM53.7606 99.0066L51.4076 92.8966H52.3566L54.2156 97.9666L53.8776 97.9796L55.7236 92.8966H56.2566L58.1026 97.9796L57.7646 97.9666L59.6106 92.8966H60.5726L58.2066 99.0066H57.6736L55.7886 94.0016H56.1786L54.3066 99.0066H53.7606ZM61.6553 99.0066V92.8966H62.5783V99.0066H61.6553ZM62.1103 91.5706C61.937 91.5706 61.7896 91.5099 61.6683 91.3886C61.547 91.2586 61.4863 91.1069 61.4863 90.9336C61.4863 90.7516 61.547 90.5999 61.6683 90.4786C61.7896 90.3573 61.937 90.2966 62.1103 90.2966C62.301 90.2966 62.4526 90.3573 62.5653 90.4786C62.6866 90.5999 62.7473 90.7516 62.7473 90.9336C62.7473 91.1069 62.6866 91.2586 62.5653 91.3886C62.4526 91.5099 62.301 91.5706 62.1103 91.5706ZM68.8689 99.0066V95.4186C68.8689 94.8813 68.7085 94.4479 68.3879 94.1186C68.0759 93.7806 67.6599 93.6116 67.1399 93.6116C66.7845 93.6116 66.4725 93.6896 66.2039 93.8456C65.9352 94.0016 65.7229 94.2139 65.5669 94.4826C65.4109 94.7513 65.3329 95.0589 65.3329 95.4056L64.9169 95.1716C64.9169 94.7123 65.0252 94.3006 65.2419 93.9366C65.4585 93.5726 65.7489 93.2866 66.1129 93.0786C66.4855 92.8706 66.9102 92.7666 67.3869 92.7666C67.8549 92.7666 68.2709 92.8793 68.6349 93.1046C68.9989 93.3299 69.2805 93.6333 69.4799 94.0146C69.6879 94.3959 69.7919 94.8119 69.7919 95.2626V99.0066H68.8689ZM64.4229 99.0066V92.8966H65.3329V99.0066H64.4229ZM74.0942 99.1366C73.5308 99.1366 73.0238 98.9979 72.5732 98.7206C72.1225 98.4433 71.7628 98.0663 71.4942 97.5896C71.2342 97.1043 71.1042 96.5626 71.1042 95.9646C71.1042 95.3579 71.2342 94.8163 71.4942 94.3396C71.7628 93.8543 72.1225 93.4729 72.5732 93.1956C73.0238 92.9096 73.5308 92.7666 74.0942 92.7666C74.5535 92.7666 74.9695 92.8576 75.3422 93.0396C75.7148 93.2216 76.0225 93.4816 76.2652 93.8196C76.5165 94.1489 76.6638 94.5389 76.7072 94.9896V96.9006C76.6552 97.3426 76.5078 97.7326 76.2652 98.0706C76.0312 98.3999 75.7278 98.6599 75.3552 98.8506C74.9825 99.0413 74.5622 99.1366 74.0942 99.1366ZM74.2502 98.2656C74.6748 98.2656 75.0475 98.1703 75.3682 97.9796C75.6888 97.7803 75.9402 97.5073 76.1222 97.1606C76.3042 96.8053 76.3952 96.4023 76.3952 95.9516C76.3952 95.4923 76.2998 95.0893 76.1092 94.7426C75.9272 94.3959 75.6758 94.1229 75.3552 93.9236C75.0345 93.7243 74.6618 93.6246 74.2372 93.6246C73.8125 93.6246 73.4355 93.7243 73.1062 93.9236C72.7768 94.1229 72.5168 94.4003 72.3262 94.7556C72.1442 95.1023 72.0532 95.5009 72.0532 95.9516C72.0532 96.4023 72.1442 96.8053 72.3262 97.1606C72.5168 97.5073 72.7768 97.7803 73.1062 97.9796C73.4442 98.1703 73.8255 98.2656 74.2502 98.2656ZM77.2532 99.0066H76.3432V97.3686L76.5252 95.8606L76.3432 94.3916V89.8026H77.2532V99.0066Z" fill="black"/>
</svg>
