<svg width="80" height="80" viewBox="0 0 80 80" fill="none" xmlns="http://www.w3.org/2000/svg">
<rect width="80" height="80" rx="40" fill="white"/>
<mask id="mask0_19_164" style="mask-type:luminance" maskUnits="userSpaceOnUse" x="0" y="0" width="80" height="80">
<rect width="80" height="80" rx="40" fill="white"/>
</mask>
<g mask="url(#mask0_19_164)">
</g>
<path d="M24.25 34.825C26.35 26.425 31.6 22.225 40 22.225C52.6 22.225 54.175 31.675 60.475 33.25C64.675 34.3 68.35 32.725 71.5 28.525C69.4 36.925 64.15 41.125 55.75 41.125C43.15 41.125 41.575 31.675 35.275 30.1C31.075 29.05 27.4 30.625 24.25 34.825ZM8.5 53.725C10.6 45.325 15.85 41.125 24.25 41.125C36.85 41.125 38.425 50.575 44.725 52.15C48.925 53.2 52.6 51.625 55.75 47.425C53.65 55.825 48.4 60.025 40 60.025C27.4 60.025 25.825 50.575 19.525 49C15.325 47.95 11.65 49.525 8.5 53.725Z" fill="#44A8B3"/>
</svg>
