<svg width="111" height="125" viewBox="0 0 111 125" fill="none" xmlns="http://www.w3.org/2000/svg">
<rect x="1" y="1" width="109" height="122.232" rx="12" stroke="white" stroke-opacity="0.48" stroke-width="2"/>
<rect x="26.4635" y="21.3179" width="58.8079" height="58.808" rx="29.404" fill="white"/>
<mask id="mask0_222_50" style="mask-type:luminance" maskUnits="userSpaceOnUse" x="26" y="21" width="60" height="60">
<rect x="26.4635" y="21.3179" width="58.8079" height="58.808" rx="29.404" fill="white"/>
</mask>
<g mask="url(#mask0_222_50)">
</g>
<path d="M44.2897 46.9178C45.8334 40.7429 49.6927 37.6555 55.8675 37.6555C65.1298 37.6555 66.2876 44.6022 70.9187 45.76C74.0061 46.5318 76.7076 45.3741 79.0231 42.2866C77.4794 48.4615 73.6202 51.5489 67.4453 51.5489C58.1831 51.5489 57.0253 44.6022 52.3942 43.4444C49.3068 42.6726 46.6053 43.8304 44.2897 46.9178ZM32.7119 60.8111C34.2556 54.6363 38.1149 51.5489 44.2897 51.5489C53.552 51.5489 54.7097 58.4956 59.3409 59.6534C62.4283 60.4252 65.1298 59.2674 67.4453 56.18C65.9016 62.3549 62.0424 65.4423 55.8675 65.4423C46.6053 65.4423 45.4475 58.4956 40.8164 57.3378C37.7289 56.566 35.0274 57.7237 32.7119 60.8111Z" fill="#44A8B3"/>
<path d="M35.2362 99.0066V90.3096H36.1982V99.0066H35.2362ZM32.0902 90.9336V90.0626H39.3442V90.9336H32.0902ZM41.5826 99.1366C41.002 99.1366 40.482 98.9979 40.0226 98.7206C39.5633 98.4346 39.1993 98.0533 38.9306 97.5766C38.6706 97.0999 38.5406 96.5626 38.5406 95.9646C38.5406 95.3579 38.6706 94.8163 38.9306 94.3396C39.1993 93.8543 39.5633 93.4729 40.0226 93.1956C40.482 92.9096 40.9976 92.7666 41.5696 92.7666C42.0376 92.7666 42.4536 92.8619 42.8176 93.0526C43.1903 93.2346 43.4893 93.4946 43.7146 93.8326C43.9486 94.1619 44.0916 94.5476 44.1436 94.9896V96.9006C44.0916 97.3426 43.9486 97.7326 43.7146 98.0706C43.4893 98.4086 43.1903 98.6729 42.8176 98.8636C42.4536 99.0456 42.042 99.1366 41.5826 99.1366ZM41.7256 98.2656C42.3583 98.2656 42.8653 98.0533 43.2466 97.6286C43.6366 97.2039 43.8316 96.6449 43.8316 95.9516C43.8316 95.4923 43.7406 95.0893 43.5586 94.7426C43.3853 94.3873 43.1383 94.1143 42.8176 93.9236C42.5056 93.7243 42.1373 93.6246 41.7126 93.6246C41.2793 93.6246 40.8936 93.7243 40.5556 93.9236C40.2263 94.1229 39.962 94.4003 39.7626 94.7556C39.572 95.1023 39.4766 95.5009 39.4766 95.9516C39.4766 96.4023 39.572 96.8009 39.7626 97.1476C39.962 97.4943 40.2306 97.7673 40.5686 97.9666C40.9066 98.1659 41.2923 98.2656 41.7256 98.2656ZM43.7796 99.0066V97.3686L43.9616 95.8606L43.7796 94.3916V92.8966H44.6896V99.0066H43.7796ZM46.5351 99.0066V92.8966H47.4581V99.0066H46.5351ZM46.9901 91.5706C46.8168 91.5706 46.6695 91.5099 46.5481 91.3886C46.4268 91.2586 46.3661 91.1069 46.3661 90.9336C46.3661 90.7516 46.4268 90.5999 46.5481 90.4786C46.6695 90.3573 46.8168 90.2966 46.9901 90.2966C47.1808 90.2966 47.3325 90.3573 47.4451 90.4786C47.5665 90.5999 47.6271 90.7516 47.6271 90.9336C47.6271 91.1069 47.5665 91.2586 47.4451 91.3886C47.3325 91.5099 47.1808 91.5706 46.9901 91.5706ZM49.3027 99.0066V89.8026H50.2127V99.0066H49.3027ZM53.7606 99.0066L51.4076 92.8966H52.3566L54.2156 97.9666L53.8776 97.9796L55.7236 92.8966H56.2566L58.1026 97.9796L57.7646 97.9666L59.6106 92.8966H60.5726L58.2066 99.0066H57.6736L55.7886 94.0016H56.1786L54.3066 99.0066H53.7606ZM61.6552 99.0066V92.8966H62.5782V99.0066H61.6552ZM62.1102 91.5706C61.9369 91.5706 61.7896 91.5099 61.6682 91.3886C61.5469 91.2586 61.4862 91.1069 61.4862 90.9336C61.4862 90.7516 61.5469 90.5999 61.6682 90.4786C61.7896 90.3573 61.9369 90.2966 62.1102 90.2966C62.3009 90.2966 62.4526 90.3573 62.5652 90.4786C62.6866 90.5999 62.7472 90.7516 62.7472 90.9336C62.7472 91.1069 62.6866 91.2586 62.5652 91.3886C62.4526 91.5099 62.3009 91.5706 62.1102 91.5706ZM68.8688 99.0066V95.4186C68.8688 94.8813 68.7085 94.4479 68.3878 94.1186C68.0758 93.7806 67.6598 93.6116 67.1398 93.6116C66.7845 93.6116 66.4725 93.6896 66.2038 93.8456C65.9352 94.0016 65.7228 94.2139 65.5668 94.4826C65.4108 94.7513 65.3328 95.0589 65.3328 95.4056L64.9168 95.1716C64.9168 94.7123 65.0252 94.3006 65.2418 93.9366C65.4585 93.5726 65.7488 93.2866 66.1128 93.0786C66.4855 92.8706 66.9102 92.7666 67.3868 92.7666C67.8548 92.7666 68.2708 92.8793 68.6348 93.1046C68.9988 93.3299 69.2805 93.6333 69.4798 94.0146C69.6878 94.3959 69.7918 94.8119 69.7918 95.2626V99.0066H68.8688ZM64.4228 99.0066V92.8966H65.3328V99.0066H64.4228ZM74.0941 99.1366C73.5308 99.1366 73.0238 98.9979 72.5731 98.7206C72.1224 98.4433 71.7628 98.0663 71.4941 97.5896C71.2341 97.1043 71.1041 96.5626 71.1041 95.9646C71.1041 95.3579 71.2341 94.8163 71.4941 94.3396C71.7628 93.8543 72.1224 93.4729 72.5731 93.1956C73.0238 92.9096 73.5308 92.7666 74.0941 92.7666C74.5534 92.7666 74.9694 92.8576 75.3421 93.0396C75.7148 93.2216 76.0224 93.4816 76.2651 93.8196C76.5164 94.1489 76.6638 94.5389 76.7071 94.9896V96.9006C76.6551 97.3426 76.5078 97.7326 76.2651 98.0706C76.0311 98.3999 75.7278 98.6599 75.3551 98.8506C74.9824 99.0413 74.5621 99.1366 74.0941 99.1366ZM74.2501 98.2656C74.6748 98.2656 75.0474 98.1703 75.3681 97.9796C75.6888 97.7803 75.9401 97.5073 76.1221 97.1606C76.3041 96.8053 76.3951 96.4023 76.3951 95.9516C76.3951 95.4923 76.2998 95.0893 76.1091 94.7426C75.9271 94.3959 75.6758 94.1229 75.3551 93.9236C75.0344 93.7243 74.6618 93.6246 74.2371 93.6246C73.8124 93.6246 73.4354 93.7243 73.1061 93.9236C72.7768 94.1229 72.5168 94.4003 72.3261 94.7556C72.1441 95.1023 72.0531 95.5009 72.0531 95.9516C72.0531 96.4023 72.1441 96.8053 72.3261 97.1606C72.5168 97.5073 72.7768 97.7803 73.1061 97.9796C73.4441 98.1703 73.8254 98.2656 74.2501 98.2656ZM77.2531 99.0066H76.3431V97.3686L76.5251 95.8606L76.3431 94.3916V89.8026H77.2531V99.0066Z" fill="white"/>
</svg>
