<svg width="111" height="125" viewBox="0 0 111 125" fill="none" xmlns="http://www.w3.org/2000/svg">
<rect x="1" y="1" width="109" height="122.232" rx="12" stroke="white" stroke-opacity="0.48" stroke-width="2"/>
<path d="M55.1325 81.8716C71.1181 81.8716 84.077 68.9127 84.077 52.9271C84.077 36.9415 71.1181 23.9825 55.1325 23.9825C39.1468 23.9825 26.1879 36.9415 26.1879 52.9271C26.1879 68.9127 39.1468 81.8716 55.1325 81.8716Z" fill="#028CB0"/>
<path d="M35.3993 52.9271C35.3993 60.7469 39.9477 67.482 46.5254 70.6835L37.1137 44.8974C35.9835 47.4235 35.3993 50.1598 35.3993 52.9271ZM55.1325 72.6602C57.4242 72.6602 59.6284 72.2579 61.6927 71.5407L61.5528 71.2783L55.4823 54.659L49.5693 71.8556C51.3188 72.3803 53.1907 72.6602 55.1325 72.6602ZM57.8439 43.6727L64.9815 64.893L66.9584 58.3153C67.7982 55.5863 68.4453 53.6269 68.4453 51.9299C68.4453 49.4808 67.5707 47.8014 66.836 46.5068C65.8213 44.8623 64.894 43.4804 64.894 41.8709C64.894 40.0515 66.2585 38.3721 68.2179 38.3721H68.4629C64.8268 35.0341 60.0683 33.1857 55.1325 33.1939C51.8642 33.1933 48.6472 34.0051 45.7706 35.5564C42.8941 37.1077 40.4482 39.3497 38.6532 42.0807L39.9127 42.1159C41.977 42.1159 45.1609 41.8533 45.1609 41.8533C46.2454 41.801 46.368 43.3578 45.3008 43.4804C45.3008 43.4804 44.2338 43.6204 43.0266 43.6727L50.2342 65.0503L54.5552 52.1048L51.4761 43.6727C50.7866 43.6346 50.0982 43.5763 49.412 43.4978C48.3448 43.4279 48.4674 41.801 49.5344 41.8533C49.5344 41.8533 52.7884 42.1159 54.7301 42.1159C56.7943 42.1159 59.9782 41.8533 59.9782 41.8533C61.0454 41.801 61.1854 43.3578 60.1182 43.4804C60.1182 43.4804 59.0511 43.6028 57.8439 43.6727ZM65.0515 69.9837C68.0368 68.2478 70.5142 65.759 72.2364 62.7659C73.9586 59.7729 74.8652 56.3804 74.8656 52.9271C74.8656 49.4982 73.9909 46.2793 72.4514 43.4628C72.764 46.5616 72.2949 49.6892 71.0869 52.5597L65.0515 69.9837ZM55.1325 75.6692C49.1008 75.6692 43.3163 73.2732 39.0513 69.0083C34.7864 64.7433 32.3903 58.9587 32.3903 52.9271C32.3903 46.8954 34.7864 41.1109 39.0513 36.846C43.3163 32.581 49.1008 30.1849 55.1325 30.1849C61.1641 30.1849 66.9486 32.581 71.2136 36.846C75.4786 41.1109 77.8746 46.8954 77.8746 52.9271C77.8746 58.9587 75.4786 64.7433 71.2136 69.0083C66.9486 73.2732 61.1641 75.6692 55.1325 75.6692Z" fill="white"/>
<path d="M28.3864 100.477L25.5004 91.5328H26.4494L28.8804 99.2288H28.5944L30.9994 91.5328H31.7144L34.1324 99.2288H33.8334L36.2644 91.5328H37.2264L34.3274 100.477H33.6254L31.2204 92.7938H31.4934L29.0884 100.477H28.3864ZM40.4032 100.607C39.8138 100.607 39.2765 100.464 38.7912 100.178C38.3145 99.8918 37.9332 99.5061 37.6472 99.0208C37.3698 98.5355 37.2312 97.9938 37.2312 97.3958C37.2312 96.8065 37.3698 96.2735 37.6472 95.7968C37.9332 95.3201 38.3145 94.9431 38.7912 94.6658C39.2765 94.3798 39.8138 94.2368 40.4032 94.2368C41.0012 94.2368 41.5385 94.3755 42.0152 94.6528C42.4918 94.9301 42.8688 95.3115 43.1462 95.7968C43.4322 96.2735 43.5752 96.8065 43.5752 97.3958C43.5752 98.0025 43.4322 98.5485 43.1462 99.0338C42.8688 99.5105 42.4918 99.8918 42.0152 100.178C41.5385 100.464 41.0012 100.607 40.4032 100.607ZM40.4032 99.7228C40.8365 99.7228 41.2178 99.6231 41.5472 99.4238C41.8852 99.2245 42.1495 98.9471 42.3402 98.5918C42.5395 98.2365 42.6392 97.8378 42.6392 97.3958C42.6392 96.9538 42.5395 96.5638 42.3402 96.2258C42.1495 95.8791 41.8852 95.6061 41.5472 95.4068C41.2178 95.2075 40.8365 95.1078 40.4032 95.1078C39.9785 95.1078 39.5972 95.2075 39.2592 95.4068C38.9212 95.6061 38.6568 95.8791 38.4662 96.2258C38.2755 96.5638 38.1802 96.9538 38.1802 97.3958C38.1802 97.8465 38.2755 98.2495 38.4662 98.6048C38.6568 98.9515 38.9212 99.2245 39.2592 99.4238C39.5972 99.6231 39.9785 99.7228 40.4032 99.7228ZM45.0229 100.477V94.3668H45.9329V100.477H45.0229ZM45.9329 96.9148L45.5559 96.7458C45.5559 95.9745 45.7422 95.3635 46.1149 94.9128C46.4962 94.4621 47.0162 94.2368 47.6749 94.2368C47.9782 94.2368 48.2555 94.2931 48.5069 94.4058C48.7582 94.5098 48.9922 94.6788 49.2089 94.9128L48.6109 95.5498C48.4635 95.3851 48.2989 95.2681 48.1169 95.1988C47.9435 95.1295 47.7442 95.0948 47.5189 95.0948C47.0509 95.0948 46.6695 95.2508 46.3749 95.5628C46.0802 95.8661 45.9329 96.3168 45.9329 96.9148ZM52.5613 100.607C51.998 100.607 51.491 100.468 51.0403 100.191C50.5897 99.9135 50.23 99.5365 49.9613 99.0598C49.7013 98.5745 49.5713 98.0328 49.5713 97.4348C49.5713 96.8281 49.7013 96.2865 49.9613 95.8098C50.23 95.3245 50.5897 94.9431 51.0403 94.6658C51.491 94.3798 51.998 94.2368 52.5613 94.2368C53.0207 94.2368 53.4367 94.3278 53.8093 94.5098C54.182 94.6918 54.4897 94.9518 54.7323 95.2898C54.9837 95.6191 55.131 96.0091 55.1743 96.4598V98.3708C55.1223 98.8128 54.975 99.2028 54.7323 99.5408C54.4983 99.8701 54.195 100.13 53.8223 100.321C53.4497 100.511 53.0293 100.607 52.5613 100.607ZM52.7173 99.7358C53.142 99.7358 53.5147 99.6405 53.8353 99.4498C54.156 99.2505 54.4073 98.9775 54.5893 98.6308C54.7713 98.2755 54.8623 97.8725 54.8623 97.4218C54.8623 96.9625 54.767 96.5595 54.5763 96.2128C54.3943 95.8661 54.143 95.5931 53.8223 95.3938C53.5017 95.1945 53.129 95.0948 52.7043 95.0948C52.2797 95.0948 51.9027 95.1945 51.5733 95.3938C51.244 95.5931 50.984 95.8705 50.7933 96.2258C50.6113 96.5725 50.5203 96.9711 50.5203 97.4218C50.5203 97.8725 50.6113 98.2755 50.7933 98.6308C50.984 98.9775 51.244 99.2505 51.5733 99.4498C51.9113 99.6405 52.2927 99.7358 52.7173 99.7358ZM55.7203 100.477H54.8103V98.8388L54.9923 97.3308L54.8103 95.8618V91.2728H55.7203V100.477ZM60.7248 100.607C60.2568 100.607 59.8365 100.511 59.4638 100.321C59.0912 100.13 58.7835 99.8701 58.5408 99.5408C58.3068 99.2028 58.1638 98.8128 58.1118 98.3708V96.4598C58.1638 96.0091 58.3112 95.6191 58.5538 95.2898C58.7965 94.9518 59.1042 94.6918 59.4768 94.5098C59.8582 94.3278 60.2742 94.2368 60.7248 94.2368C61.2882 94.2368 61.7952 94.3798 62.2458 94.6658C62.6965 94.9431 63.0518 95.3245 63.3118 95.8098C63.5805 96.2865 63.7148 96.8281 63.7148 97.4348C63.7148 98.0328 63.5848 98.5701 63.3248 99.0468C63.0648 99.5235 62.7052 99.9048 62.2458 100.191C61.7952 100.468 61.2882 100.607 60.7248 100.607ZM60.5688 99.7358C61.0022 99.7358 61.3835 99.6405 61.7128 99.4498C62.0422 99.2505 62.2978 98.9775 62.4798 98.6308C62.6705 98.2755 62.7658 97.8725 62.7658 97.4218C62.7658 96.9625 62.6705 96.5595 62.4798 96.2128C62.2978 95.8661 62.0422 95.5931 61.7128 95.3938C61.3835 95.1945 61.0065 95.0948 60.5818 95.0948C60.1572 95.0948 59.7802 95.1945 59.4508 95.3938C59.1302 95.5931 58.8788 95.8661 58.6968 96.2128C58.5148 96.5595 58.4238 96.9625 58.4238 97.4218C58.4238 97.8725 58.5148 98.2755 58.6968 98.6308C58.8788 98.9775 59.1302 99.2505 59.4508 99.4498C59.7715 99.6405 60.1442 99.7358 60.5688 99.7358ZM57.5658 103.051V94.3668H58.4758V95.9268L58.2938 97.4088L58.4758 98.9038V103.051H57.5658ZM65.1703 100.477V94.3668H66.0803V100.477H65.1703ZM66.0803 96.9148L65.7033 96.7458C65.7033 95.9745 65.8896 95.3635 66.2623 94.9128C66.6436 94.4621 67.1636 94.2368 67.8223 94.2368C68.1256 94.2368 68.403 94.2931 68.6543 94.4058C68.9056 94.5098 69.1396 94.6788 69.3563 94.9128L68.7583 95.5498C68.611 95.3851 68.4463 95.2681 68.2643 95.1988C68.091 95.1295 67.8916 95.0948 67.6663 95.0948C67.1983 95.0948 66.817 95.2508 66.5223 95.5628C66.2276 95.8661 66.0803 96.3168 66.0803 96.9148ZM72.9298 100.607C72.3145 100.607 71.7641 100.468 71.2788 100.191C70.7935 99.9135 70.4078 99.5321 70.1218 99.0468C69.8445 98.5615 69.7058 98.0155 69.7058 97.4088C69.7058 96.8108 69.8445 96.2735 70.1218 95.7968C70.3991 95.3115 70.7761 94.9301 71.2528 94.6528C71.7295 94.3755 72.2625 94.2368 72.8518 94.2368C73.4065 94.2368 73.8961 94.3625 74.3208 94.6138C74.7541 94.8651 75.0921 95.2161 75.3348 95.6668C75.5861 96.1088 75.7118 96.6201 75.7118 97.2008C75.7118 97.2701 75.7075 97.3525 75.6988 97.4478C75.6901 97.5345 75.6728 97.6385 75.6468 97.7598H70.3558V96.9798H75.1528L74.8278 97.2658C74.8365 96.8151 74.7585 96.4295 74.5938 96.1088C74.4378 95.7795 74.2081 95.5281 73.9048 95.3548C73.6101 95.1728 73.2505 95.0818 72.8258 95.0818C72.3838 95.0818 71.9981 95.1771 71.6688 95.3678C71.3395 95.5585 71.0795 95.8271 70.8888 96.1738C70.7068 96.5118 70.6158 96.9148 70.6158 97.3828C70.6158 97.8508 70.7111 98.2625 70.9018 98.6178C71.1011 98.9731 71.3741 99.2505 71.7208 99.4498C72.0761 99.6491 72.4835 99.7488 72.9428 99.7488C73.3155 99.7488 73.6578 99.6838 73.9698 99.5538C74.2818 99.4151 74.5461 99.2115 74.7628 98.9428L75.3478 99.5408C75.0618 99.8788 74.7065 100.143 74.2818 100.334C73.8658 100.516 73.4151 100.607 72.9298 100.607ZM78.9759 100.607C78.6466 100.607 78.3302 100.563 78.0269 100.477C77.7236 100.381 77.4462 100.251 77.1949 100.087C76.9522 99.9221 76.7399 99.7271 76.5579 99.5018L77.1429 98.9038C77.3856 99.1985 77.6586 99.4195 77.9619 99.5668C78.2739 99.7055 78.6206 99.7748 79.0019 99.7748C79.4092 99.7748 79.7256 99.6968 79.9509 99.5408C80.1849 99.3848 80.3019 99.1681 80.3019 98.8908C80.3019 98.6308 80.2196 98.4271 80.0549 98.2798C79.8902 98.1325 79.6779 98.0155 79.4179 97.9288C79.1666 97.8421 78.8979 97.7598 78.6119 97.6818C78.3259 97.5951 78.0529 97.4911 77.7929 97.3698C77.5329 97.2398 77.3206 97.0621 77.1559 96.8368C76.9999 96.6115 76.9219 96.3168 76.9219 95.9528C76.9219 95.6061 77.0042 95.3071 77.1689 95.0558C77.3422 94.7958 77.5849 94.5965 77.8969 94.4578C78.2176 94.3105 78.5946 94.2368 79.0279 94.2368C79.4872 94.2368 79.9032 94.3191 80.2759 94.4838C80.6486 94.6485 80.9476 94.8911 81.1729 95.2118L80.5879 95.7968C80.4059 95.5628 80.1762 95.3851 79.8989 95.2638C79.6302 95.1338 79.3269 95.0688 78.9889 95.0688C78.5989 95.0688 78.2999 95.1468 78.0919 95.3028C77.8926 95.4501 77.7929 95.6451 77.7929 95.8878C77.7929 96.1218 77.8752 96.3081 78.0399 96.4468C78.2046 96.5768 78.4126 96.6851 78.6639 96.7718C78.9239 96.8498 79.1969 96.9321 79.4829 97.0188C79.7689 97.0968 80.0419 97.2051 80.3019 97.3438C80.5619 97.4738 80.7699 97.6558 80.9259 97.8898C81.0906 98.1151 81.1729 98.4228 81.1729 98.8128C81.1729 99.3588 80.9736 99.7965 80.5749 100.126C80.1849 100.446 79.6519 100.607 78.9759 100.607ZM84.4857 100.607C84.1563 100.607 83.84 100.563 83.5367 100.477C83.2333 100.381 82.956 100.251 82.7047 100.087C82.462 99.9221 82.2497 99.7271 82.0677 99.5018L82.6527 98.9038C82.8953 99.1985 83.1683 99.4195 83.4717 99.5668C83.7837 99.7055 84.1303 99.7748 84.5117 99.7748C84.919 99.7748 85.2353 99.6968 85.4607 99.5408C85.6947 99.3848 85.8117 99.1681 85.8117 98.8908C85.8117 98.6308 85.7293 98.4271 85.5647 98.2798C85.4 98.1325 85.1877 98.0155 84.9277 97.9288C84.6763 97.8421 84.4077 97.7598 84.1217 97.6818C83.8357 97.5951 83.5627 97.4911 83.3027 97.3698C83.0427 97.2398 82.8303 97.0621 82.6657 96.8368C82.5097 96.6115 82.4317 96.3168 82.4317 95.9528C82.4317 95.6061 82.514 95.3071 82.6787 95.0558C82.852 94.7958 83.0947 94.5965 83.4067 94.4578C83.7273 94.3105 84.1043 94.2368 84.5377 94.2368C84.997 94.2368 85.413 94.3191 85.7857 94.4838C86.1583 94.6485 86.4573 94.8911 86.6827 95.2118L86.0977 95.7968C85.9157 95.5628 85.686 95.3851 85.4087 95.2638C85.14 95.1338 84.8367 95.0688 84.4987 95.0688C84.1087 95.0688 83.8097 95.1468 83.6017 95.3028C83.4023 95.4501 83.3027 95.6451 83.3027 95.8878C83.3027 96.1218 83.385 96.3081 83.5497 96.4468C83.7143 96.5768 83.9223 96.6851 84.1737 96.7718C84.4337 96.8498 84.7067 96.9321 84.9927 97.0188C85.2787 97.0968 85.5517 97.2051 85.8117 97.3438C86.0717 97.4738 86.2797 97.6558 86.4357 97.8898C86.6003 98.1151 86.6827 98.4228 86.6827 98.8128C86.6827 99.3588 86.4833 99.7965 86.0847 100.126C85.6947 100.446 85.1617 100.607 84.4857 100.607Z" fill="white"/>
</svg>
