<svg width="95" height="95" viewBox="0 0 95 95" fill="none" xmlns="http://www.w3.org/2000/svg">
<path d="M47.5 89.0625C70.4543 89.0625 89.0625 70.4543 89.0625 47.5C89.0625 24.5457 70.4543 5.9375 47.5 5.9375C24.5457 5.9375 5.9375 24.5457 5.9375 47.5C5.9375 70.4543 24.5457 89.0625 47.5 89.0625Z" fill="#028CB0"/>
<path d="M19.1644 47.5C19.1644 58.7287 25.6957 68.4 35.1408 72.9971L21.6262 35.97C20.0034 39.5972 19.1645 43.5263 19.1644 47.5ZM47.5 75.8355C50.7909 75.8355 53.9558 75.2578 56.9201 74.228L56.7192 73.8512L48.0023 49.9869L39.5117 74.6801C42.0238 75.4336 44.7118 75.8355 47.5 75.8355ZM51.3935 34.2113L61.6425 64.6822L64.4812 55.2372C65.6872 51.3184 66.6164 48.5049 66.6164 46.0682C66.6164 42.5514 65.3606 40.1399 64.3055 38.2808C62.8484 35.9195 61.517 33.9352 61.517 31.624C61.517 29.0115 63.4763 26.6 66.2898 26.6H66.6416C61.4205 21.8068 54.5876 19.1526 47.5 19.1644C42.807 19.1635 38.1876 20.3293 34.0569 22.5568C29.9265 24.7844 26.4143 28.0038 23.8368 31.9253L25.6454 31.9758C28.6096 31.9758 33.1814 31.5988 33.1814 31.5988C34.7388 31.5237 34.9149 33.7591 33.3824 33.9352C33.3824 33.9352 31.8502 34.1362 30.1168 34.2113L40.4664 64.9082L46.6711 46.3193L42.2498 34.2113C41.2597 34.1567 40.2711 34.0729 39.2858 33.9601C37.7533 33.8598 37.9293 31.5237 39.4615 31.5988C39.4615 31.5988 44.134 31.9758 46.9223 31.9758C49.8863 31.9758 54.4582 31.5988 54.4582 31.5988C55.9906 31.5237 56.1916 33.7591 54.6591 33.9352C54.6591 33.9352 53.127 34.1109 51.3935 34.2113ZM61.7432 71.9922C66.0298 69.4996 69.5872 65.9258 72.0602 61.628C74.5331 57.3301 75.8349 52.4587 75.8355 47.5C75.8355 42.5763 74.5795 37.9543 72.3689 33.91C72.8178 38.3595 72.1442 42.8506 70.4095 46.9725L61.7432 71.9922ZM47.5 80.1562C38.839 80.1562 30.5327 76.7158 24.4086 70.5915C18.2843 64.4673 14.8438 56.161 14.8438 47.5C14.8438 38.839 18.2843 30.5327 24.4086 24.4086C30.5327 18.2843 38.839 14.8438 47.5 14.8438C56.161 14.8438 64.4673 18.2843 70.5915 24.4086C76.7158 30.5327 80.1562 38.839 80.1562 47.5C80.1562 56.161 76.7158 64.4673 70.5915 70.5915C64.4673 76.7158 56.161 80.1562 47.5 80.1562Z" fill="white"/>
</svg>
